<svg width="16" height="16" viewBox="0 0 16 16" fill="none" xmlns="http://www.w3.org/2000/svg">
<path d="M11.7711 11.1046C11.2493 11.6263 10.2518 12.6239 9.41365 13.462C8.6326 14.243 7.36711 14.2431 6.58606 13.462C5.76367 12.6396 4.78292 11.6589 4.2286 11.1046C2.1458 9.02177 2.1458 5.64489 4.2286 3.5621C6.3114 1.4793 9.68828 1.4793 11.7711 3.5621C13.8539 5.64489 13.8539 9.02177 11.7711 11.1046Z" stroke="#686868" stroke-width="1.5" stroke-linecap="round" stroke-linejoin="round"/>
<path d="M9.99984 7.33333C9.99984 8.4379 9.10441 9.33333 7.99984 9.33333C6.89527 9.33333 5.99984 8.4379 5.99984 7.33333C5.99984 6.22876 6.89527 5.33333 7.99984 5.33333C9.10441 5.33333 9.99984 6.22876 9.99984 7.33333Z" stroke="#686868" stroke-width="1.5" stroke-linecap="round" stroke-linejoin="round"/>
</svg>
