<svg width="495" height="344" viewBox="0 0 495 344" fill="none" xmlns="http://www.w3.org/2000/svg">
<path d="M287.335 264.661L272.785 303.706H278.741C283.525 303.706 287.782 300.68 289.36 296.167L294.371 281.809C295.059 279.834 297.858 279.834 298.547 281.809L310.262 315.395C310.463 315.978 310.031 316.587 309.417 316.587H267.996L257.965 343.509C266.87 343.509 274.806 337.89 277.766 329.492L278.766 326.653H327.399C328.022 326.653 328.455 326.03 328.238 325.447L305.693 264.666C305.372 263.797 304.542 263.224 303.618 263.224H289.4C288.48 263.219 287.656 263.792 287.335 264.661Z" fill="url(#paint0_linear_1432_3252)"/>
<path d="M448.573 274.481C450.649 272.707 453.372 271.813 456.669 271.813C460.449 271.813 463.494 272.878 465.731 274.984C467.369 276.527 468.55 278.406 469.254 280.583C469.485 281.306 470.143 281.804 470.902 281.804H484.461C483.567 275.974 480.878 271.205 476.455 267.616C471.626 263.696 465.007 261.711 456.785 261.711C448.864 261.711 442.437 263.641 437.682 267.45C433.22 271.029 430.918 275.733 430.677 281.809H445.362C445.467 278.673 446.548 276.21 448.573 274.481Z" fill="url(#paint1_linear_1432_3252)"/>
<path d="M464.721 341.875C468.51 341.483 471.852 340.549 474.667 339.091C478.481 337.111 481.396 334.458 483.326 331.206C485.261 327.944 486.241 324.326 486.241 320.456C486.241 315.556 485.165 311.566 483.039 308.59C480.883 305.57 478.245 303.273 475.204 301.771C472.003 300.193 467.781 298.474 462.66 296.665C460.776 296.051 459.037 295.443 457.479 294.855C456.589 294.519 455.649 294.348 454.695 294.348H433.748C435.878 297.333 438.502 299.635 441.532 301.188C444.683 302.801 448.794 304.454 453.755 306.108C457.68 307.414 460.811 308.59 463.067 309.601C465.449 310.666 467.455 312.113 469.028 313.893C470.696 315.782 471.541 318.184 471.541 321.029C471.541 324.215 470.5 326.864 468.455 328.914L468.425 328.944C466.053 331.306 464.716 334.518 464.716 337.87V341.875H464.721Z" fill="url(#paint2_linear_1432_3252)"/>
<path d="M389.689 308.897C395.941 307.55 400.766 304.851 404.033 300.881C407.309 296.921 408.973 291.91 408.973 285.99C408.973 278.728 406.566 272.808 401.811 268.395C397.037 263.957 389.926 261.711 380.678 261.711H350.404V261.791C350.404 268.003 355.44 273.039 361.651 273.039H379.276C384.473 273.039 388.403 274.29 390.941 276.763C393.509 279.24 394.811 282.703 394.811 287.055C394.811 294.488 391.157 299.142 384.242 300.514C383.01 300.755 381.643 300.896 380.186 300.936C379.894 300.951 379.583 300.951 379.271 300.951H377.085V315.38L393.052 342.001H408.244L387.84 309.304L389.689 308.897Z" fill="url(#paint3_linear_1432_3252)"/>
<path d="M350.396 341.986H364.318V312.173C364.318 305.962 359.282 300.926 353.07 300.926H350.396V341.986Z" fill="url(#paint4_linear_1432_3252)"/>
<path d="M471.575 220.742L416.967 221.033C414.65 221.043 412.393 220.682 411.966 220.214L408.222 216.128C407.699 215.555 409.473 215.108 412.152 215.143L473.802 215.902C475.561 215.922 476.782 216.314 476.546 216.762L474.817 220.038C474.621 220.42 473.174 220.732 471.575 220.742ZM412.383 215.42C410.418 215.4 409.117 215.726 409.488 216.143L413.112 220.214C413.419 220.561 415.077 220.827 416.796 220.822L471.661 220.566C472.847 220.561 473.917 220.33 474.063 220.043L475.742 216.757C475.913 216.425 475.003 216.138 473.706 216.123L412.383 215.42Z" fill="url(#paint5_linear_1432_3252)"/>
<path d="M475.752 217.52L409.725 217.093L409.494 216.837L475.857 217.314L475.752 217.52Z" fill="url(#paint6_linear_1432_3252)"/>
<path d="M475.169 218.641L410.986 218.495L410.77 218.249L475.269 218.445L475.169 218.641Z" fill="url(#paint7_linear_1432_3252)"/>
<path d="M474.616 219.707L412.177 219.812L411.971 219.581L474.711 219.521L474.616 219.707Z" fill="url(#paint8_linear_1432_3252)"/>
<path d="M424.068 220.893L423.017 220.898L420.419 217.038L421.575 217.048L424.068 220.893Z" fill="url(#paint9_linear_1432_3252)"/>
<path d="M432.069 220.853L431.069 220.858L429.25 217.098L430.345 217.108L432.069 220.853Z" fill="url(#paint10_linear_1432_3252)"/>
<path d="M439.683 220.813L438.733 220.818L437.617 217.159L438.652 217.164L439.683 220.813Z" fill="url(#paint11_linear_1432_3252)"/>
<path d="M446.94 220.777L446.035 220.782L445.552 217.209L446.538 217.219L446.94 220.777Z" fill="url(#paint12_linear_1432_3252)"/>
<path d="M453.865 220.742L452.996 220.747L453.096 217.259L454.031 217.269L453.865 220.742Z" fill="url(#paint13_linear_1432_3252)"/>
<path d="M460.474 220.707L459.645 220.712L460.268 217.31L461.162 217.315L460.474 220.707Z" fill="url(#paint14_linear_1432_3252)"/>
<path d="M466.796 220.677L466.002 220.682L467.103 217.355L467.952 217.365L466.796 220.677Z" fill="url(#paint15_linear_1432_3252)"/>
<path d="M473.409 215.088L394.124 213.947C390.325 213.892 388.134 212.837 389.3 211.61L397.823 202.675C398.818 201.629 402.356 200.956 405.658 201.147L476.405 205.243C478.289 205.353 479.621 206.077 479.405 206.871L477.57 213.52C477.314 214.41 475.465 215.118 473.409 215.088ZM405.221 201.624C402.774 201.489 400.175 201.991 399.452 202.76L391.099 211.65C390.255 212.545 391.863 213.324 394.642 213.369L473.54 214.656C475.058 214.681 476.43 214.158 476.616 213.5L478.505 206.826C478.671 206.238 477.681 205.7 476.284 205.62L405.221 201.624Z" fill="url(#paint16_linear_1432_3252)"/>
<path d="M478.56 208.248L396.888 204.565L397.376 204.057L478.671 207.861L478.56 208.248Z" fill="url(#paint17_linear_1432_3252)"/>
<path d="M477.943 210.464L394.1 207.519L394.602 206.982L478.053 210.062L477.943 210.464Z" fill="url(#paint18_linear_1432_3252)"/>
<path d="M477.299 212.761L391.17 210.61L391.702 210.052L477.415 212.344L477.299 212.761Z" fill="url(#paint19_linear_1432_3252)"/>
<path d="M405.839 213.837L404.186 213.811L411.488 204.971L412.996 205.037L405.839 213.837Z" fill="url(#paint20_linear_1432_3252)"/>
<path d="M418.187 214.023L416.664 214.003L422.891 205.494L424.283 205.559L418.187 214.023Z" fill="url(#paint21_linear_1432_3252)"/>
<path d="M429.551 214.199L428.148 214.179L433.43 205.977L434.722 206.037L429.551 214.199Z" fill="url(#paint22_linear_1432_3252)"/>
<path d="M440.044 214.359L438.747 214.339L443.215 206.429L444.411 206.484L440.044 214.359Z" fill="url(#paint23_linear_1432_3252)"/>
<path d="M449.759 214.51L448.557 214.49L452.312 206.846L453.427 206.896L449.759 214.51Z" fill="url(#paint24_linear_1432_3252)"/>
<path d="M458.79 214.646L457.674 214.631L460.795 207.238L461.835 207.283L458.79 214.646Z" fill="url(#paint25_linear_1432_3252)"/>
<path d="M467.197 214.776L466.157 214.761L468.725 207.6L469.7 207.645L467.197 214.776Z" fill="url(#paint26_linear_1432_3252)"/>
<path d="M398.431 132.084H398.487C398.502 132.074 398.512 132.064 398.522 132.054C398.527 132.049 398.532 132.044 398.542 132.034L398.431 132.084ZM398.431 132.084H398.487C398.502 132.074 398.512 132.064 398.522 132.054C398.527 132.049 398.532 132.044 398.542 132.034L398.431 132.084ZM398.431 132.084H398.487C398.502 132.074 398.512 132.064 398.522 132.054C398.527 132.049 398.532 132.044 398.542 132.034L398.431 132.084ZM398.431 132.084H398.487C398.502 132.074 398.512 132.064 398.522 132.054C398.527 132.049 398.532 132.044 398.542 132.034L398.431 132.084ZM398.431 132.084H398.487C398.502 132.074 398.512 132.064 398.522 132.054C398.527 132.049 398.532 132.044 398.542 132.034L398.431 132.084ZM398.431 132.084H398.487C398.502 132.074 398.512 132.064 398.522 132.054C398.527 132.049 398.532 132.044 398.542 132.034L398.431 132.084ZM398.431 132.084H398.487C398.502 132.074 398.512 132.064 398.522 132.054C398.527 132.049 398.532 132.044 398.542 132.034L398.431 132.084ZM398.431 132.084H398.487C398.502 132.074 398.512 132.064 398.522 132.054C398.527 132.049 398.532 132.044 398.542 132.034L398.431 132.084ZM491.697 231.768L376.283 230.155L375.479 231.316L374.796 232.301H374.781L373.434 234.276H303.703L300.883 243.116C300.883 243.116 300.923 243.116 300.999 243.116H376.444C378.595 243.116 380.193 238.357 380.193 238.357C380.193 238.357 473.148 238.357 476.274 238.357C479.385 238.357 479.767 242.805 479.767 242.805H494.642V231.808L491.697 231.768ZM398.431 132.084H398.487C398.502 132.074 398.512 132.064 398.522 132.054C398.527 132.049 398.532 132.044 398.542 132.034L398.431 132.084Z" fill="url(#paint27_linear_1432_3252)"/>
<path d="M486.115 225.833V189.799H490.814C490.487 189.774 490.14 188.618 489.793 186.688C489.23 183.572 488.678 178.446 488.175 172.893C487.235 162.525 486.491 150.654 486.3 147.583C486.27 147.091 486.255 146.824 486.255 146.824C479.244 138.733 468.434 127.888 453.709 119.002C442.497 112.268 426.646 105.222 379.49 102.202C333.244 99.2415 299.356 102.865 299.356 104.463C299.356 105.192 306.166 104.534 315.73 107.896C317.835 108.629 320.077 109.569 322.409 110.76C329.068 114.163 334.274 118.339 338.054 121.932C330.47 116.972 323.911 114.163 319.172 112.469C315.267 111.077 310.975 109.876 307.181 108.931C301.221 107.443 296.507 106.579 296.507 106.579L267.257 107.443L202.577 109.338L174.574 75.4249L170.031 69.9269C182.298 68.0573 198.928 66.9215 218.262 69.7862H218.267C220.006 70.0475 221.76 70.334 223.539 70.6556C226.268 71.1582 229.047 71.7361 231.867 72.4045C235.867 73.3494 239.968 74.4801 244.134 75.8169C261.513 81.3804 276.012 89.1651 287.39 96.6131C287.395 96.6131 287.395 96.6232 287.405 96.6232C288.164 97.1257 288.908 97.6183 289.636 98.1108C283.912 91.5322 274.956 82.5413 262.689 75.1686C253.964 69.9219 245.622 66.7406 237.701 64.7655C237.304 64.665 236.912 64.5645 236.52 64.474C236.083 64.3735 235.641 64.273 235.204 64.1775C234.771 64.077 234.334 63.9815 233.902 63.8961C233.495 63.8107 233.088 63.7252 232.681 63.6448C232.656 63.6398 232.625 63.6398 232.605 63.6297C232.123 63.5342 231.64 63.4488 231.163 63.3634C231.007 63.3332 230.846 63.3081 230.69 63.2779C230.329 63.2126 229.972 63.1523 229.61 63.092C229.122 63.0116 228.645 62.9312 228.168 62.8608C227.409 62.7452 226.655 62.6447 225.911 62.5392C225.182 62.4386 224.464 62.3532 223.75 62.2678C222.78 62.1572 221.815 62.0567 220.86 61.9612C220.252 61.9059 219.649 61.8506 219.046 61.7954C218.167 61.725 217.297 61.6546 216.433 61.5943C210.025 61.137 203.25 60.936 196.28 60.936H196.275C195.214 60.936 194.159 60.941 193.094 60.9511H192.973C192.717 60.9511 192.465 60.9611 192.209 60.9611C191.696 60.9661 191.184 60.9762 190.671 60.9812C188.158 61.0164 185.62 61.0767 183.072 61.1571C182.927 61.1621 182.776 61.1621 182.625 61.1722C181.273 61.2174 179.911 61.2626 178.539 61.328C178.383 61.328 178.218 61.333 178.062 61.3431H178.022C177.841 61.3531 177.67 61.3581 177.489 61.3682C176.353 61.4235 175.217 61.4737 174.081 61.529C173.634 61.5541 173.182 61.5692 172.735 61.5994C171.87 61.6496 171.011 61.6948 170.141 61.7401C168.825 61.8205 167.518 61.9009 166.201 61.9863C166.005 61.9914 165.799 62.0064 165.608 62.0265C164.518 62.0969 163.427 62.1673 162.347 62.2426C162.321 62.2527 162.301 62.2527 162.276 62.2527C156.049 62.6899 149.878 63.2226 143.877 63.8006C112.206 66.8813 85.3635 71.4547 80.0062 72.3894L85.253 72.4045L99.8224 72.4447C105.431 72.3794 112.417 72.3744 120.513 72.495C120.98 72.505 121.453 72.5151 121.92 72.5201C125.85 72.5855 130.042 72.686 134.454 72.8267C164.704 73.7966 191.445 109.976 191.445 109.976L191.259 109.971L111.587 108.047H90.746C89.2735 109.971 87.8613 111.936 86.5245 113.957C84.6599 116.721 82.9261 119.58 81.3279 122.52C81.0314 123.078 80.7198 123.631 80.4283 124.204C80.3178 124.4 80.2173 124.601 80.1218 124.797C73.5834 137.472 69.4071 151.549 68.211 166.435C68.0602 168.294 67.9496 170.144 67.8943 171.988L67.9044 172.259C67.9094 172.651 67.9195 173.043 67.9346 173.42L67.9647 174.33L68.02 175.395C68.0351 175.737 68.0501 176.044 68.0652 176.35C68.0853 176.617 68.1004 176.818 68.1155 177.024L68.2009 178.285C68.2311 178.667 68.2612 179.049 68.2964 179.436L68.412 180.627C68.4522 181.034 68.4824 181.391 68.5326 181.753L68.5376 181.838C68.5778 182.2 68.6231 182.562 68.6633 182.929C68.7738 183.758 68.8744 184.542 68.9849 185.331C69.0402 185.708 69.0854 186.08 69.1508 186.447C69.4624 188.452 69.8242 190.417 70.2212 192.322C70.377 193.05 70.5328 193.784 70.7137 194.513L70.9902 195.659C71.1711 196.428 71.3671 197.172 71.5631 197.915C71.7641 198.664 71.9852 199.408 72.1963 200.152C72.2818 200.468 72.3622 200.735 72.4476 201.001L72.8698 202.378C73.4176 204.147 74.0508 205.971 74.7393 207.801C76.3927 212.213 78.3427 216.51 80.559 220.666L227.082 224.556C225.851 218.365 225.202 211.796 225.202 204.981C225.202 168.586 243.898 139.07 266.961 139.07C273.343 139.07 279.389 141.336 284.797 145.377C288.646 148.252 292.174 152.036 295.26 156.539C303.532 168.581 308.709 185.829 308.709 204.981C308.709 214.028 307.558 222.642 305.452 230.477H372.087L374.952 226.34L415.238 226.903L468.098 227.642L489.421 227.939C488.23 226.17 486.115 225.833 486.115 225.833ZM107.28 176.637L121.558 176.973L150.129 177.783L178.685 178.778L185.831 179.049L189.395 179.195C190.601 179.245 191.807 179.436 192.958 179.778C194.119 180.109 195.229 180.627 196.275 181.18L199.461 182.803L205.813 186.06L199.366 182.989L196.149 181.446C195.074 180.909 194.003 180.446 192.857 180.15C190.596 179.481 188.199 179.637 185.816 179.547L178.67 179.371L150.104 178.567L121.543 177.576L107.265 177.024L92.9925 176.38L107.28 176.637ZM199.446 188.618L196.225 187.075C195.154 186.542 194.079 186.07 192.938 185.773C190.671 185.105 188.274 185.271 185.892 185.17L178.75 184.994L150.184 184.19L121.624 183.205L107.341 182.647L93.0729 182.004L107.361 182.265L121.639 182.602L150.205 183.406L178.765 184.401L185.907 184.678L189.475 184.818C190.681 184.874 191.887 185.065 193.038 185.406C194.199 185.743 195.31 186.251 196.35 186.809L199.541 188.427L205.894 191.689L199.446 188.618ZM306.095 158.605C304.643 155.609 303.025 152.73 301.195 150.086C299.17 147.106 296.898 144.397 294.406 142.07C294.139 141.804 293.873 141.548 293.602 141.296C289.822 137.748 285.53 135.16 281.053 133.376C280.259 133.054 279.459 132.768 278.655 132.501C275.796 131.551 272.866 130.938 269.926 130.672C266.981 130.35 263.996 130.376 261.035 130.752C266.895 129.25 273.012 129.481 278.897 131.074C279.374 131.205 279.851 131.345 280.329 131.506C285.711 133.23 290.833 136.316 295.3 140.552C297.632 142.854 299.833 145.382 301.748 148.262C301.794 148.332 301.839 148.403 301.889 148.473C303.844 151.383 305.648 154.489 307.08 157.846C307.141 157.986 307.211 158.137 307.276 158.288C308.704 161.459 309.83 164.836 310.885 168.209C311.413 169.998 311.81 171.822 312.287 173.621C312.689 175.466 313.041 177.295 313.393 179.139C311.543 171.953 309.196 164.962 306.095 158.605ZM398.271 131.536L398.341 131.471H398.432C403.116 131.089 407.805 130.908 412.489 130.667C417.183 130.471 421.877 130.35 426.56 130.275C431.244 130.205 435.948 130.139 440.642 130.245C445.336 130.275 450.035 130.376 454.719 130.642C450.035 131.089 445.351 131.381 440.657 131.607C435.969 131.888 431.28 132.019 426.591 132.14C421.907 132.25 417.198 132.31 412.504 132.31C407.84 132.27 403.171 132.27 398.487 132.084C397.206 133.165 395.914 134.27 394.622 135.336C395.829 134.044 397.05 132.783 398.271 131.536ZM321.444 148.277C319.459 147.94 318.846 144.648 320.519 143.206L333.963 131.647C334.757 130.953 335.727 130.667 336.672 130.798L390.853 138.1L387.612 142.603L382.671 149.488L354.447 147.061L354.151 152.488C354.101 153.227 353.578 153.76 353 153.674L324.761 148.84L321.444 148.277ZM353.563 191.09L353.849 192.04L361.182 215.978C362.157 215.947 363.041 215.952 363.845 215.993C370.6 216.359 371.6 219.204 371.6 219.204H347.969L339.571 185.919L388.903 188.829L353.563 191.09ZM480.199 208.982L480.033 209.499L477.41 217.897C476.606 220.435 474.661 222.109 472.515 222.109H412.313C411.81 222.109 411.298 221.853 410.931 221.43L405.925 215.601C405.598 215.209 405.161 214.982 404.714 214.982L392.823 214.631L385.003 214.405C384.591 214.379 384.395 213.711 384.707 213.359L396.542 200.006C397.02 199.473 397.633 199.192 398.256 199.227L477.742 204.092C479.667 204.228 480.923 206.71 480.199 208.982ZM454.915 177.114H408.086C406.468 177.114 405.533 177.114 405.533 177.114L400.774 162.454L415.841 143.668H461.775L481.667 152.152L482.22 156.062L485.803 181.23C485.803 181.23 467.309 177.114 454.915 177.114ZM81.8657 223.054C82.7904 224.682 83.7553 226.285 84.7605 227.868L122.252 228.25L227.112 232.135L228.906 232.115C228.419 230.421 227.972 228.682 227.58 226.918L81.8657 223.054Z" fill="url(#paint28_linear_1432_3252)"/>
<path d="M398.426 132.081H398.489C398.52 132.06 398.536 132.04 398.567 132.024L398.426 132.081Z" fill="url(#paint29_linear_1432_3252)"/>
<path d="M79.78 72.3846H80.0312H79.78ZM241.822 294.614L236.008 275.361C235.344 273.175 233.374 271.823 231.278 271.783H231.183C230.344 271.783 229.489 271.994 228.7 272.446C227.519 273.129 226.328 273.778 225.127 274.396C224.725 274.607 224.318 274.813 223.921 275.024C223.725 275.125 223.529 275.22 223.328 275.321C222.921 275.532 222.504 275.738 222.097 275.934C221.539 276.21 220.976 276.477 220.418 276.733C219.719 277.06 219.006 277.381 218.297 277.698C217.709 277.954 217.131 278.205 216.543 278.457C216.503 278.472 216.473 278.487 216.433 278.497C208.613 281.779 200.577 284.105 192.47 285.508C192.274 285.538 192.088 285.568 191.897 285.603C158.567 291.197 124.131 281.301 98.8624 258.711C99.2544 259.063 99.6313 259.414 100.023 259.761C92.5049 253.198 85.861 245.644 80.3227 237.312C79.9709 236.789 79.6242 236.256 79.2824 235.723C78.9457 235.201 78.609 234.668 78.2773 234.125C77.0108 232.075 75.8047 229.974 74.6739 227.833C72.6787 224.079 70.8896 220.209 69.3417 216.224C69.2864 216.108 69.2412 215.983 69.1909 215.857C69.0401 215.49 68.8994 215.113 68.7587 214.736C68.0601 212.897 67.4168 211.032 66.8238 209.138L66.4067 207.776C66.3062 207.479 66.2207 207.173 66.1303 206.861C65.9091 206.107 65.693 205.343 65.487 204.564C65.2759 203.795 65.0799 203.022 64.894 202.253L64.6125 201.077C64.4316 200.323 64.2658 199.564 64.1049 198.805C63.6878 196.825 63.3209 194.82 63.0093 192.804C62.949 192.407 62.8837 192.005 62.8284 191.608C62.7581 191.091 62.6877 190.583 62.6224 190.075C62.5822 189.784 62.542 189.487 62.5068 189.196C62.4615 188.789 62.4113 188.387 62.3761 187.98C62.3208 187.573 62.2806 187.166 62.2454 186.758C62.2052 186.361 62.165 185.949 62.1299 185.542C62.0896 185.095 62.0595 184.643 62.0193 184.2C61.9942 183.834 61.9741 183.457 61.9389 183.09C61.9238 182.864 61.9087 182.627 61.8987 182.391C61.8735 182.044 61.8585 181.708 61.8384 181.371C61.8233 181.004 61.8082 180.642 61.7931 180.275C61.7831 179.979 61.768 179.682 61.763 179.381C61.7479 178.974 61.7328 178.557 61.7228 178.145C61.7228 177.793 61.7127 177.446 61.7077 177.094C61.7077 176.622 61.6976 176.154 61.6976 175.677C61.6976 174.446 61.7228 173.219 61.758 171.988L61.7479 171.229C61.7379 170.767 61.7328 170.315 61.7328 169.852C61.7328 166.867 61.8585 163.846 62.0997 160.861C62.3661 157.464 62.8133 154.102 63.4064 150.765C64.0698 146.94 64.9593 143.176 66.0448 139.462C66.0448 139.447 66.0549 139.437 66.0599 139.422C67.9697 132.883 70.5227 126.506 73.7039 120.339C73.7844 120.174 73.8748 120.013 73.9804 119.807C74.1663 119.44 74.3623 119.078 74.5583 118.716L74.8397 118.198C75.6288 116.751 76.453 115.314 77.3073 113.912C78.5236 111.906 79.8001 109.946 81.1369 108.047C81.4987 107.524 81.8656 106.996 82.2425 106.479C82.6245 105.956 83.0165 105.428 83.4085 104.911C90.2685 95.7941 98.4855 87.8636 107.682 81.3704C107.813 81.2699 107.954 81.1644 108.09 81.0739C108.778 80.5814 109.562 80.0236 110.401 79.4506C109.572 79.4406 108.748 79.4406 107.924 79.4406C105.205 79.4406 102.501 79.4557 99.9128 79.4858H99.8273C99.8173 79.4858 99.8173 79.4858 99.8122 79.4858L85.2429 79.4456L79.9961 79.4305C76.3374 79.4205 73.2969 76.6162 72.9953 72.9776C72.6837 69.334 75.2116 66.0623 78.805 65.4341C86.1274 64.1676 112.417 59.7702 143.209 56.7799C149.772 56.1467 155.803 55.634 161.658 55.2219C161.718 55.2219 161.784 55.2119 161.844 55.2069C162.924 55.1264 164.015 55.0561 165.111 54.9857C165.347 54.9706 165.588 54.9556 165.824 54.9405C167.131 54.8551 168.433 54.7847 169.774 54.6993L172.257 54.5686H172.312C172.639 54.5435 172.976 54.5284 173.312 54.5133L173.75 54.4882L177.187 54.3223L177.428 54.3123L177.72 54.2972C177.765 54.2972 177.815 54.2872 177.861 54.2872C178.017 54.2771 178.182 54.2771 178.348 54.2721C179.68 54.2168 180.997 54.1716 182.303 54.1213H182.344C182.454 54.1113 182.565 54.1113 182.675 54.1062H182.715C182.771 54.1062 182.816 54.1062 182.871 54.0962C185.771 54.0107 188.299 53.9555 190.581 53.9253L191.294 53.9153L192.118 53.9002H192.5C192.666 53.8901 192.822 53.8901 192.988 53.8901H193.088C194.164 53.8801 195.229 53.8751 196.295 53.8751H196.305C203.683 53.8751 210.633 54.1012 216.97 54.5485C217.78 54.6088 218.594 54.6741 219.413 54.7445L219.634 54.7596C219.659 54.7596 219.679 54.7596 219.704 54.7696L219.845 54.7797L221.514 54.9355H221.574C222.559 55.036 223.554 55.1415 224.559 55.2571C224.584 55.2571 224.599 55.2571 224.619 55.2672L224.76 55.2822C225.464 55.3677 226.187 55.4531 226.891 55.5486L227.047 55.5737C227.776 55.6742 228.504 55.7798 229.248 55.8853C229.685 55.9456 230.117 56.016 230.565 56.0964L230.751 56.1265C230.776 56.1265 230.806 56.1366 230.836 56.1366L231.917 56.3225C231.972 56.3376 232.017 56.3477 232.072 56.3527L232.153 56.3678C232.198 56.3778 232.238 56.3829 232.284 56.3929L234.44 47.2663L235.817 41.4315L234.51 40.1852C230.63 36.5215 228.469 31.5058 228.414 26.0681L228.283 13.8256C228.253 10.2925 225.966 7.19172 222.604 6.1112C214.453 3.48781 206.06 1.46749 197.662 0.105539C197.23 0.0402053 196.782 0 196.335 0C193.274 0 190.49 1.69365 189.073 4.41253L183.394 15.3182C179.916 21.9923 173.338 25.9776 165.809 25.9776C164.156 25.9776 162.517 25.7716 160.919 25.3846C159.839 25.1182 158.778 24.7564 157.768 24.3041L157.602 24.2337C157.492 24.1885 157.381 24.1382 157.205 24.0528C157.075 23.9975 156.939 23.9272 156.753 23.8317C153.361 22.1732 150.516 19.5247 148.526 16.1625L142.274 5.63376C141.364 4.10094 139.962 2.88473 138.374 2.24144C138.223 2.18114 138.093 2.13088 137.942 2.09067C137.143 1.83437 136.314 1.69867 135.469 1.69867C134.881 1.69867 134.293 1.75898 133.72 1.89467C129.524 2.80934 125.338 3.88986 121.287 5.09099C117.196 6.31223 113.11 7.68926 109.12 9.19695C105.808 10.4584 103.682 13.6798 103.838 17.2179L104.371 29.4303C104.893 41.5773 95.3495 49.4826 85.7806 50.1108C85.5293 50.1259 85.2881 50.141 84.9966 50.151H84.7001C84.685 50.151 84.2629 50.151 84.2629 50.151C80.9208 50.151 77.6843 49.2917 74.6538 47.588L63.9994 41.5974C62.7782 40.9089 61.3911 40.547 59.9889 40.547C58.4762 40.547 56.9886 40.9692 55.6417 41.7984C55.4859 41.8989 55.3301 42.0044 55.1542 42.1251C54.9733 42.2658 54.7924 42.4216 54.6064 42.5874C48.2942 48.3267 42.3539 54.6189 36.9563 61.2778C34.73 64.0118 34.5189 67.8514 36.4136 70.8266L42.9871 81.1594C48.9777 90.5674 45.6758 101.166 39.2882 106.79C39.1626 106.906 39.0319 107.016 38.9364 107.097L38.4892 107.459C38.2932 107.614 38.1072 107.765 37.876 107.931C34.5842 110.368 30.614 111.675 26.3924 111.72L14.0846 111.871C12.1798 111.896 10.3405 112.585 8.85788 113.846C7.77736 114.801 6.96823 116.047 6.50587 117.45C4.37499 124.058 2.63612 130.868 1.33447 137.668C1.2038 138.351 1.08319 139.03 0.957546 139.713L0.927392 139.864C0.776622 140.759 0.630878 141.648 0.490159 142.553C0.465031 142.648 0.460006 142.739 0.444929 142.834C0.434877 142.93 0.429852 143.02 0.4198 143.091L0.409749 143.216C0.203697 146.438 1.9275 149.483 4.79715 150.981L7.50095 152.393L15.6928 156.66C17.1904 157.434 18.5574 158.384 19.7736 159.464C23.6434 162.902 26.0155 167.736 26.3321 173.094C26.3421 173.3 26.3572 173.491 26.3572 173.697C26.3723 174.094 26.3723 174.496 26.3572 174.893C26.1863 181.833 22.6533 187.849 16.6577 191.407L6.12392 197.659C3.50053 199.217 1.96268 202.077 2.1235 205.172C2.13858 205.303 2.14863 205.449 2.1637 205.57C2.17375 205.655 2.17878 205.74 2.19386 205.821V205.956L2.28935 206.323C3.18894 210.449 4.26443 214.636 5.48566 218.762C6.7069 222.853 8.08393 226.949 9.59665 230.929C10.6219 233.633 13.0191 235.583 15.8084 236.085C16.2858 236.171 16.7632 236.221 17.2558 236.221C17.3713 236.221 17.492 236.221 17.6176 236.211L29.8199 235.678C30.1265 235.663 30.433 235.653 30.7295 235.653C34.8255 235.653 38.7254 236.874 42.0272 239.186L42.178 239.297C42.3891 239.447 42.5951 239.603 42.8062 239.759L43.2083 240.081C43.3238 240.181 43.4495 240.287 43.56 240.387L43.8716 240.664L44.334 241.071C51.0634 247.383 52.6314 257.198 48.0781 265.284L42.0926 275.939C40.3637 279.025 40.806 282.854 43.1881 285.472C46.0528 288.603 49.0883 291.694 52.1941 294.629C55.2648 297.534 58.5164 300.389 61.8434 303.097C62.6676 303.761 63.5973 304.263 64.5874 304.57C65.1101 304.736 65.6428 304.846 66.1956 304.897L66.3062 304.907C66.4771 304.922 66.6529 304.922 66.8288 304.922C68.3868 304.922 69.9096 304.485 71.2213 303.645L81.559 297.057C84.6699 295.077 88.0622 294.026 91.6506 293.931C91.8616 293.921 92.0677 293.921 92.2687 293.921H92.6507C97.3195 293.991 102.089 295.81 105.737 299.077C109.537 302.454 112.145 307.389 112.216 313.546L112.356 325.834C112.402 329.367 114.688 332.467 118.06 333.543C118.422 333.658 118.779 333.769 119.141 333.87C126.966 336.297 135.002 338.172 143.078 339.448C143.495 339.508 143.917 339.544 144.34 339.544C145.415 339.544 146.46 339.337 147.455 338.93L147.606 338.86C149.204 338.106 150.536 336.825 151.36 335.242L157.039 324.346C158.934 320.702 161.804 317.808 165.357 315.943C165.528 315.848 165.694 315.762 165.905 315.662C166.553 315.335 167.221 315.043 167.895 314.802C170.121 313.978 172.468 313.566 174.865 313.566C179.831 313.566 184.454 315.36 188.008 318.556C189.51 319.888 190.822 321.476 191.892 323.28L198.144 333.809C198.873 335.046 199.923 336.051 201.135 336.739C201.934 337.191 202.803 337.513 203.713 337.689C204.2 337.774 204.683 337.825 205.185 337.825C205.773 337.825 206.351 337.764 206.924 337.639C215.282 335.83 223.554 333.377 231.52 330.336C234.113 329.351 235.967 327.17 236.586 324.572C236.756 323.843 236.827 323.084 236.797 322.311L236.334 312.169L236.239 310.048C236.018 305.108 237.51 300.509 240.556 296.745C241.099 296.062 241.516 295.358 241.822 294.614ZM80.5087 81.4157C80.5187 81.4257 80.5238 81.4307 80.5338 81.4307C80.4635 81.4307 80.3931 81.4307 80.3278 81.4207C80.383 81.4257 80.4434 81.4257 80.5087 81.4157Z" fill="url(#paint30_linear_1432_3252)"/>
<path d="M80.5289 81.4307C80.4585 81.4307 80.3882 81.4307 80.3228 81.4206C80.3781 81.4206 80.4384 81.4206 80.5038 81.4106C80.5138 81.4257 80.5239 81.4307 80.5289 81.4307Z" fill="url(#paint31_linear_1432_3252)"/>
<path d="M272.062 150.483C271.67 150.483 271.278 150.488 270.891 150.513L269.172 150.654L264.202 151.066C245.928 151.519 231.631 172.963 231.62 199.629C231.615 225.989 245.828 248.323 265.086 248.167C265.433 248.162 265.775 248.152 266.117 248.132L267.675 248.006L267.765 247.996L272.771 247.584L275.374 247.373L275.404 247.368C293.215 244.88 305.402 222.617 305.181 199.187C305.523 174.566 291.959 150.549 272.062 150.483ZM270.157 245.549C270.75 245.599 271.348 245.629 271.951 245.629C273.524 245.634 275.067 245.473 276.575 245.152C274.605 246.222 272.534 247.026 270.368 247.539H270.363C268.132 247.383 265.981 246.926 263.915 246.182C263.915 246.182 263.91 246.182 263.905 246.182C246.135 245.438 232.912 223.592 232.982 199.499C233.048 176.049 245.175 156.544 260.322 153.509C261.83 153.202 263.373 153.066 264.936 153.102C265.488 153.092 266.041 153.107 266.589 153.147C282.872 154.197 296.773 174.27 296.718 199.745C296.668 222.732 285.184 241.85 270.157 245.549Z" fill="#3D3D3D"/>
<path d="M271.951 245.629C271.348 245.629 270.75 245.599 270.157 245.549C268.403 245.986 266.604 246.207 264.764 246.202C264.483 246.202 264.196 246.197 263.915 246.182C265.981 246.926 268.132 247.383 270.363 247.539H270.368C272.534 247.026 274.605 246.222 276.575 245.152C275.067 245.473 273.524 245.634 271.951 245.629ZM267.674 248.006L266.116 248.132C266.639 248.112 267.162 248.066 267.674 248.006Z" fill="#3D3D3D"/>
<path d="M266.589 153.147C266.041 153.107 265.488 153.091 264.935 153.102C263.372 153.066 261.83 153.202 260.322 153.509C245.175 156.544 233.048 176.049 232.982 199.498C232.912 223.591 246.134 245.438 263.905 246.182C263.91 246.182 263.915 246.182 263.915 246.182C264.197 246.197 264.483 246.202 264.765 246.202C266.604 246.207 268.403 245.986 270.157 245.548C285.184 241.85 296.667 222.732 296.718 199.745C296.773 174.27 282.872 154.197 266.589 153.147ZM279.098 160.153C284.711 164.661 288.832 170.646 291.778 178.757C291.24 179.074 290.813 179.441 290.36 179.572C285.727 180.913 281.083 182.215 276.444 183.517C276.339 183.547 276.208 183.421 275.866 183.271C276.922 175.712 277.982 168.123 279.098 160.153ZM291.154 182.466C291.375 183.135 291.582 183.748 291.778 184.341C291.632 184.658 291.566 184.939 291.436 185.07C287.219 189.241 283.003 193.422 278.756 197.523C278.238 198.026 277.53 198.327 276.907 198.348C274.419 198.443 271.931 198.388 269.237 198.388C269.001 197.523 268.805 196.81 268.579 195.995C270.509 193.186 272.384 190.417 274.298 187.713C274.625 187.251 275.122 186.929 275.575 186.799C280.736 185.331 285.908 183.919 291.154 182.466ZM287.506 212.027C287.626 212.143 287.707 212.359 287.868 212.64C287.697 213.208 287.521 213.806 287.31 214.535C286.797 214.415 286.345 214.334 285.903 214.203C282.043 213.073 278.188 211.932 274.333 210.796C273.665 210.605 273.037 210.364 272.534 209.59C271.961 208.705 271.388 207.826 270.8 206.946C270.574 206.605 270.348 206.263 270.122 205.921C269.443 204.896 268.75 203.861 268.046 202.8C268.202 202.167 268.348 201.554 268.489 200.966C268.7 200.87 268.845 200.745 268.991 200.745C271.067 200.73 273.142 200.684 275.213 200.75C275.7 200.765 276.253 200.996 276.655 201.383C280.289 204.896 283.897 208.464 287.506 212.027ZM274.916 167.897C274.881 168.153 274.851 168.41 274.821 168.666C274.801 168.807 274.781 168.942 274.766 169.083C274.715 169.48 274.665 169.872 274.615 170.259C274.555 170.726 274.494 171.189 274.434 171.646C274.404 171.877 274.374 172.104 274.343 172.335C273.74 176.702 273.117 181.069 272.519 185.442C272.343 186.738 271.991 187.814 271.308 188.748C269.835 190.754 268.433 192.875 266.971 194.995C266.493 194.684 266.081 194.422 265.594 194.111C265.594 190.739 265.574 187.412 265.614 184.09C265.619 183.527 265.785 182.899 266.001 182.421C267.976 178.064 269.966 173.717 271.986 169.309C272.509 168.168 273.037 167.018 273.565 165.867C274.047 166.128 274.504 166.379 275.067 166.686C275.017 167.093 274.967 167.5 274.916 167.897ZM255.97 233.251C255.623 233.07 255.201 232.859 254.683 232.592C254.743 231.753 254.753 231.009 254.854 230.291C255.638 224.591 256.432 218.892 257.251 213.203C257.357 212.495 257.538 211.696 257.869 211.193C259.402 208.846 261 206.59 262.649 204.197C263.192 204.529 263.568 204.755 263.95 204.986C264.006 205.223 264.096 205.434 264.096 205.645C264.106 208.67 264.126 211.701 264.091 214.726C264.086 215.364 263.976 216.098 263.734 216.621C261.287 222.054 258.799 227.446 256.316 232.849C256.261 232.964 256.156 233.035 255.97 233.251ZM242.34 184.763C242.802 184.834 243.265 184.849 243.707 184.974C247.607 186.125 251.507 187.276 255.402 188.477C255.929 188.643 256.523 188.955 256.899 189.482C258.508 191.724 260.046 194.071 261.644 196.433C261.478 197.106 261.322 197.724 261.191 198.247C261.005 198.368 260.915 198.483 260.824 198.488C258.704 198.508 256.578 198.554 254.457 198.513C254.015 198.503 253.512 198.337 253.15 197.986C249.482 194.438 245.833 190.839 242.179 187.251C242.054 187.125 241.938 186.979 241.712 186.723C241.953 185.974 242.124 185.437 242.34 184.763ZM253.1 161.163C253.537 160.826 253.99 160.484 254.482 160.107C254.497 160.132 254.507 160.158 254.522 160.178C254.663 160.429 254.794 160.645 254.909 160.846C254.939 160.896 254.97 160.947 254.995 160.997C255.035 161.072 255.075 161.148 255.115 161.223C255.156 161.293 255.191 161.369 255.226 161.444C257.925 167.314 260.628 173.184 263.302 179.079C263.624 179.788 263.95 180.657 263.96 181.461C264.031 185.341 263.996 189.226 263.996 193.186C263.428 193.528 262.935 193.819 262.418 194.126C260.498 191.337 258.573 188.658 256.754 185.824C256.306 185.12 256.12 183.949 255.985 182.939C255.613 180.19 255.246 177.436 254.879 174.672C254.658 173.013 254.437 171.345 254.221 169.671C253.869 166.997 253.512 164.304 253.155 161.585C253.135 161.444 253.12 161.303 253.1 161.163ZM262.051 199.549C262.086 197.523 263.423 195.578 264.825 195.523C266.197 195.468 267.519 197.423 267.544 199.529C267.569 201.75 266.408 203.584 264.935 203.65C263.433 203.715 262.016 201.7 262.051 199.549ZM260.463 155.438C260.644 155.398 260.824 155.363 261.01 155.328C261.232 155.288 261.458 155.252 261.684 155.222C261.89 155.192 262.101 155.162 262.312 155.142C263.468 155.006 264.664 154.966 265.84 155.021C266.016 155.026 266.192 155.031 266.368 155.046C266.433 155.051 266.493 155.051 266.554 155.062C266.815 155.082 267.081 155.102 267.343 155.132C267.599 155.162 267.86 155.192 268.117 155.232C268.313 155.258 268.509 155.293 268.705 155.328C268.871 155.353 269.036 155.388 269.202 155.423C269.363 155.454 269.519 155.489 269.675 155.529C269.79 155.554 269.906 155.584 270.021 155.614C270.152 155.644 270.283 155.68 270.413 155.72C270.604 155.77 270.79 155.825 270.971 155.886C271.338 156.006 271.69 156.137 272.032 156.278C272.368 156.418 272.695 156.574 273.007 156.74C273.313 156.911 273.605 157.087 273.876 157.278C271.997 161.379 270.117 165.47 268.212 169.626C267.102 172.043 265.986 174.481 264.85 176.953C264.463 176.114 264.081 175.28 263.699 174.445C262.935 172.782 262.176 171.129 261.423 169.49C259.729 165.801 258.055 162.153 256.377 158.504C256.191 158.097 256 157.69 255.814 157.283C256.085 157.092 256.377 156.916 256.688 156.75C256.844 156.665 257.005 156.584 257.166 156.509C257.327 156.428 257.492 156.353 257.663 156.288C257.925 156.177 258.191 156.077 258.467 155.981C258.613 155.931 258.759 155.881 258.905 155.84C258.99 155.81 259.071 155.785 259.156 155.765C259.342 155.705 259.533 155.655 259.724 155.609C259.965 155.544 260.211 155.489 260.463 155.438ZM250.869 160.173C250.919 160.539 250.964 160.901 251.014 161.268C251.12 162.082 251.23 162.897 251.336 163.716C252.2 170.224 253.065 176.737 253.964 183.512C253.291 183.311 252.618 183.11 251.949 182.914C250.612 182.522 249.291 182.125 247.974 181.738C246.28 181.235 244.597 180.733 242.923 180.24C242.441 180.094 241.958 179.954 241.476 179.808C240.395 179.491 239.32 179.17 238.239 178.853C238.923 173.46 246.134 162.786 250.869 160.173ZM235.741 186.251C236.968 187.452 238.189 188.638 239.405 189.824C239.506 189.924 239.601 190.02 239.702 190.115C240.018 190.427 240.34 190.734 240.657 191.045C243.541 193.865 246.426 196.679 249.401 199.584C248.662 200.302 247.934 201.016 247.21 201.725C246.486 202.433 245.768 203.137 245.054 203.836C243.622 205.233 242.204 206.625 240.782 208.017C240.365 208.424 239.948 208.831 239.531 209.238C239.4 209.364 239.274 209.489 239.144 209.62C238.013 210.726 236.872 211.836 235.726 212.962C233.877 203.971 233.852 195.312 235.741 186.251ZM238.204 214.219C238.822 213.61 239.44 213.002 240.058 212.394C240.471 211.992 240.883 211.585 241.295 211.183C244.436 208.097 247.572 205.017 250.703 201.916C251.437 201.192 252.18 200.85 253.075 200.875C255.492 200.941 257.91 200.896 260.468 200.896C260.709 201.755 260.89 202.393 261.071 203.031C260.955 203.303 260.895 203.564 260.774 203.745C259.106 206.188 257.452 208.65 255.739 211.032C255.331 211.605 254.759 212.103 254.211 212.264C252.909 212.651 251.607 213.032 250.306 213.409C247.652 214.183 244.994 214.942 242.32 215.706C241.843 215.842 241.365 215.978 240.883 216.118C240.099 216.339 239.305 216.566 238.516 216.792C238.264 216.088 238.053 215.49 237.832 214.872C237.983 214.6 238.068 214.354 238.204 214.219ZM250.663 238.548C246.295 236.708 240.003 227.185 237.968 220.526C238.249 220.264 239.008 219.903 240.089 219.48C240.265 219.41 240.45 219.335 240.646 219.264C240.672 219.259 240.702 219.244 240.732 219.234C240.878 219.179 241.033 219.124 241.189 219.068C241.34 219.013 241.496 218.963 241.657 218.902C241.883 218.827 242.124 218.747 242.365 218.666C242.481 218.626 242.596 218.591 242.712 218.551C242.843 218.505 242.978 218.46 243.109 218.42C243.25 218.375 243.396 218.33 243.541 218.284C243.727 218.224 243.923 218.164 244.114 218.103C244.34 218.033 244.571 217.963 244.803 217.892C245.094 217.807 245.391 217.716 245.687 217.631C246.245 217.465 246.818 217.304 247.391 217.148C247.677 217.068 247.964 216.993 248.255 216.917C250.195 216.4 252.145 215.947 253.849 215.626C253.638 217.143 253.432 218.646 253.221 220.144C252.557 224.918 251.904 229.602 251.256 234.276C251.145 235.095 251.029 235.909 250.914 236.728C250.833 237.337 250.748 237.94 250.663 238.548ZM273.509 243.046C273.293 243.141 273.077 243.232 272.866 243.317C272.695 243.387 272.519 243.458 272.348 243.523C271.77 243.744 271.192 243.94 270.614 244.106C270.479 244.146 270.343 244.182 270.212 244.222C270.117 244.247 270.021 244.272 269.931 244.292C269.775 244.337 269.619 244.378 269.464 244.408C269.273 244.458 269.082 244.498 268.891 244.533C268.695 244.574 268.504 244.614 268.313 244.644C267.931 244.714 267.549 244.77 267.167 244.81C266.89 244.845 266.614 244.87 266.338 244.89C266.333 244.895 266.328 244.895 266.323 244.89C265.639 244.945 264.951 244.96 264.267 244.935C264.136 244.93 264.011 244.925 263.88 244.915C263.694 244.91 263.508 244.895 263.322 244.88C263.222 244.875 263.116 244.865 263.016 244.855C262.759 244.835 262.503 244.805 262.252 244.775C262.237 244.775 262.217 244.77 262.191 244.764C261.935 244.734 261.679 244.694 261.423 244.649C261.201 244.614 260.975 244.568 260.749 244.523C260.613 244.498 260.478 244.468 260.337 244.433C260.166 244.398 259.99 244.357 259.814 244.312C259.392 244.207 258.96 244.091 258.533 243.955C258.347 243.9 258.156 243.84 257.97 243.774C257.889 243.749 257.804 243.719 257.719 243.689C257.548 243.629 257.372 243.568 257.196 243.503C256.673 243.312 256.141 243.096 255.613 242.865C255.769 242.508 255.924 242.151 256.08 241.794C256.347 241.196 256.608 240.598 256.874 240C258.533 236.286 260.216 232.653 261.92 228.959C262.498 227.692 263.081 226.416 263.669 225.129C264.061 224.27 264.448 223.41 264.84 222.536C268.016 229.486 270.996 236 274.092 242.784C273.896 242.875 273.705 242.965 273.509 243.046ZM276.404 238.307C275.927 238.548 275.545 238.744 275.092 238.98C274.735 238.276 274.404 237.658 274.102 237.005C271.569 231.487 269.057 225.948 266.509 220.445C265.981 219.304 265.689 218.164 265.714 216.746C265.74 215.209 265.75 213.666 265.75 212.123C265.75 211.133 265.745 210.143 265.74 209.153C265.74 208.56 265.74 207.962 265.735 207.364V206.087C266.242 205.735 266.669 205.439 267.086 205.147C267.287 205.288 267.483 205.348 267.604 205.524C267.971 206.057 268.333 206.585 268.7 207.117C269.464 208.228 270.222 209.344 270.981 210.464C271.569 211.329 272.152 212.198 272.73 213.068C273.052 213.555 273.374 214.193 273.459 214.827C274.464 222.204 275.429 229.587 276.399 236.975C276.439 237.311 276.404 237.668 276.404 238.307ZM278.821 239.035C277.761 231.341 276.736 223.717 275.731 215.646C281.173 217.259 286.335 218.792 291.501 220.325C290.541 225.953 284.189 235.361 278.821 239.035ZM292.692 211.771C288.657 207.811 284.626 203.851 280.364 199.659C284.857 195.041 289.345 190.889 293.908 186.286C295.883 195.282 295.828 203.911 293.939 212.902C293.34 212.364 293.009 212.083 292.692 211.771Z" fill="white"/>
<path d="M274.092 242.785C267.875 245.694 261.88 245.614 255.613 242.865C258.608 235.99 261.709 229.512 264.84 222.536C268.016 229.487 270.996 236 274.092 242.785Z" fill="#3D3D3D"/>
<path d="M249.401 199.584C244.717 204.162 240.32 208.464 235.726 212.962C233.877 203.971 233.852 195.312 235.741 186.251C240.305 190.704 244.742 195.036 249.401 199.584Z" fill="#3D3D3D"/>
<path d="M273.876 157.278C270.901 163.766 267.936 170.224 264.85 176.954C261.764 170.239 258.799 163.776 255.814 157.283C260.161 154.253 269.509 154.218 273.876 157.278Z" fill="#3D3D3D"/>
<path d="M253.849 215.626C252.763 223.451 251.713 230.989 250.662 238.548C246.295 236.709 240.003 227.185 237.968 220.526C239.083 219.491 247.949 216.732 253.849 215.626Z" fill="#3D3D3D"/>
<path d="M291.777 178.757C291.24 179.074 290.812 179.441 290.36 179.572C285.726 180.913 281.083 182.215 276.444 183.517C276.339 183.547 276.208 183.421 275.866 183.27C276.922 175.712 277.982 168.123 279.098 160.152C284.711 164.66 288.832 170.646 291.777 178.757Z" fill="#3D3D3D"/>
<path d="M291.501 220.325C290.541 225.954 284.189 235.362 278.821 239.035C277.761 231.341 276.736 223.717 275.731 215.646C281.173 217.259 286.335 218.792 291.501 220.325Z" fill="#3D3D3D"/>
<path d="M293.939 212.902C293.341 212.364 293.009 212.083 292.692 211.771C288.657 207.811 284.626 203.851 280.364 199.659C284.857 195.041 289.345 190.89 293.908 186.286C295.883 195.282 295.828 203.911 293.939 212.902Z" fill="#3D3D3D"/>
<path d="M264.091 214.726C264.086 215.364 263.976 216.098 263.734 216.621C261.287 222.053 258.799 227.446 256.316 232.849C256.261 232.964 256.156 233.035 255.97 233.251C255.623 233.07 255.201 232.859 254.683 232.592C254.743 231.753 254.753 231.009 254.854 230.291C255.638 224.591 256.432 218.892 257.251 213.203C257.357 212.495 257.538 211.696 257.869 211.193C259.402 208.846 261 206.59 262.649 204.197C263.192 204.529 263.568 204.755 263.95 204.986C264.006 205.223 264.096 205.434 264.096 205.645C264.106 208.67 264.126 211.701 264.091 214.726Z" fill="#3D3D3D"/>
<path d="M253.965 183.512C248.562 181.909 243.401 180.381 238.239 178.853C238.923 173.461 246.135 162.786 250.869 160.173C251.889 167.867 252.904 175.511 253.965 183.512Z" fill="#3D3D3D"/>
<path d="M261.644 196.433C261.478 197.106 261.322 197.724 261.191 198.247C261.005 198.368 260.915 198.483 260.825 198.488C258.704 198.508 256.578 198.553 254.457 198.513C254.015 198.503 253.512 198.337 253.15 197.986C249.482 194.437 245.833 190.839 242.179 187.251C242.054 187.125 241.938 186.979 241.712 186.723C241.953 185.974 242.124 185.436 242.34 184.763C242.802 184.833 243.265 184.848 243.707 184.974C247.607 186.125 251.507 187.276 255.402 188.477C255.929 188.643 256.523 188.954 256.899 189.482C258.508 191.724 260.046 194.071 261.644 196.433Z" fill="#3D3D3D"/>
<path d="M287.868 212.641C287.697 213.209 287.521 213.807 287.31 214.535C286.797 214.415 286.345 214.334 285.903 214.204C282.043 213.073 278.188 211.932 274.334 210.796C273.665 210.605 273.037 210.364 272.534 209.59C271.077 207.334 269.589 205.122 268.047 202.801C268.202 202.167 268.348 201.554 268.489 200.966C268.7 200.871 268.846 200.745 268.991 200.745C271.067 200.73 273.143 200.685 275.213 200.75C275.701 200.765 276.253 200.996 276.655 201.383C280.289 204.896 283.897 208.464 287.506 212.028C287.626 212.143 287.707 212.359 287.868 212.641Z" fill="#3D3D3D"/>
<path d="M275.067 166.686C274.816 168.656 274.595 170.501 274.343 172.335C273.74 176.702 273.117 181.069 272.519 185.442C272.343 186.738 271.991 187.814 271.308 188.749C269.835 190.754 268.433 192.875 266.971 194.996C266.493 194.684 266.081 194.423 265.594 194.111C265.594 190.739 265.574 187.412 265.614 184.09C265.619 183.527 265.785 182.899 266.001 182.421C268.488 176.933 270.996 171.47 273.564 165.867C274.047 166.128 274.504 166.38 275.067 166.686Z" fill="#3D3D3D"/>
<path d="M291.777 184.341C291.632 184.658 291.566 184.939 291.436 185.07C287.219 189.241 283.003 193.423 278.756 197.524C278.238 198.026 277.53 198.328 276.906 198.348C274.419 198.443 271.931 198.388 269.237 198.388C269.001 197.524 268.805 196.81 268.579 195.996C270.509 193.187 272.383 190.417 274.298 187.714C274.625 187.251 275.122 186.93 275.575 186.799C280.736 185.331 285.907 183.919 291.154 182.467C291.375 183.135 291.581 183.748 291.777 184.341Z" fill="url(#paint32_radial_1432_3252)"/>
<path d="M263.996 193.186C263.428 193.528 262.935 193.82 262.418 194.126C260.498 191.337 258.573 188.658 256.754 185.824C256.306 185.12 256.121 183.949 255.985 182.939C255.01 175.758 254.075 168.566 253.1 161.163C253.537 160.826 253.99 160.485 254.482 160.108C254.779 160.64 255.03 161.017 255.226 161.444C257.925 167.314 260.629 173.184 263.302 179.079C263.624 179.788 263.95 180.658 263.961 181.462C264.031 185.341 263.996 189.226 263.996 193.186Z" fill="url(#paint33_radial_1432_3252)"/>
<path d="M261.071 203.032C260.955 203.303 260.895 203.564 260.774 203.745C259.106 206.188 257.452 208.65 255.739 211.032C255.332 211.605 254.759 212.103 254.211 212.264C249.009 213.812 243.798 215.279 238.516 216.792C238.264 216.088 238.053 215.49 237.832 214.872C237.983 214.601 238.068 214.354 238.204 214.219C242.37 210.118 246.547 206.037 250.703 201.916C251.437 201.192 252.18 200.85 253.075 200.876C255.492 200.941 257.91 200.896 260.468 200.896C260.709 201.755 260.89 202.393 261.071 203.032Z" fill="url(#paint34_radial_1432_3252)"/>
<path d="M276.404 238.306C275.927 238.548 275.545 238.744 275.092 238.98C274.736 238.276 274.404 237.658 274.102 237.005C271.569 231.487 269.057 225.948 266.509 220.445C265.981 219.304 265.689 218.164 265.715 216.746C265.775 213.213 265.735 209.675 265.735 206.087C266.242 205.735 266.669 205.439 267.087 205.147C267.288 205.288 267.484 205.348 267.604 205.524C269.323 208.022 271.042 210.525 272.73 213.068C273.052 213.555 273.374 214.193 273.459 214.827C274.464 222.204 275.429 229.587 276.399 236.975C276.439 237.311 276.404 237.668 276.404 238.306Z" fill="url(#paint35_radial_1432_3252)"/>
<path d="M267.544 199.529C267.569 201.75 266.408 203.585 264.935 203.65C263.433 203.715 262.015 201.7 262.051 199.549C262.086 197.524 263.422 195.579 264.825 195.523C266.197 195.468 267.518 197.423 267.544 199.529Z" fill="url(#paint36_radial_1432_3252)"/>
<path d="M460.077 168.36C460.222 167.189 460.443 166.043 460.579 164.912C460.423 164.922 460.66 164.897 460.579 164.912C460.7 163.927 460.444 162.887 460.438 161.806C460.237 161.811 460.645 161.806 460.438 161.806C460.433 161.495 460.433 161.259 460.433 161.022C460.413 158.706 460.403 156.404 460.363 154.122C460.353 153.62 460.303 153.102 460.142 152.63C459.092 149.594 456.036 147.775 452.302 147.986C442.607 148.524 433.481 149.076 424.872 149.579C423.842 149.639 422.826 149.825 421.821 150.082C420.007 150.544 418.339 151.303 416.796 152.328C415.595 153.127 414.544 154.067 413.629 155.142C412.569 156.394 411.705 157.741 411.167 159.248C410.589 160.851 410.006 162.46 409.433 164.068C409.137 164.902 408.885 165.741 408.845 166.631C408.805 167.546 408.961 168.41 409.338 169.204C410.358 171.325 412.142 172.501 414.61 172.571C420.319 172.737 426.269 172.823 432.471 172.958C433.33 172.978 434.003 172.742 434.406 171.873C434.39 171.652 434.426 171.33 434.34 171.044C434.164 170.451 433.576 170.119 432.797 170.109C426.611 170.038 420.675 169.973 414.976 169.908C414.76 169.908 414.539 169.923 414.328 169.888C412.172 169.546 410.921 167.531 411.619 165.535C412.242 163.761 412.861 161.992 413.479 160.223C414.067 158.54 415.052 157.077 416.373 155.791C417.841 154.363 419.575 153.338 421.57 152.735C422.324 152.504 423.108 152.283 423.882 152.232C426.812 152.042 429.802 151.921 432.858 151.77C439.039 151.464 445.482 151.137 452.201 150.815C452.729 150.79 453.292 150.795 453.784 150.921C455.569 151.373 456.87 152.715 456.84 154.338C456.8 156.514 456.86 158.706 456.845 160.912C456.835 162.827 456.961 164.751 456.704 166.686C456.619 167.335 456.559 168.003 456.126 168.556C455.177 169.757 453.84 170.36 452.141 170.325C450.839 170.3 449.543 170.285 448.261 170.285C447.141 170.285 446.241 171.305 446.769 172.335C447.06 172.903 447.618 173.265 448.337 173.27C449.97 173.285 451.618 173.441 453.287 173.28C454.443 173.169 455.528 172.898 456.518 172.375C457.081 172.079 457.599 171.717 458.122 171.395C457.77 171.39 458.478 171.4 458.122 171.395C458.83 170.476 459.805 169.35 460.077 168.36C460.077 168.36 460.041 168.355 460.077 168.36Z" fill="url(#paint37_linear_1432_3252)"/>
<path d="M420.007 156.68C420.509 156.766 420.876 156.972 421.017 157.464C421.062 157.625 421.092 157.796 421.087 157.967C420.987 160.198 420.886 162.45 420.776 164.717C420.751 165.269 420.539 165.727 420.032 165.983C419.268 166.37 418.454 165.847 418.459 164.968C418.464 164.455 418.504 163.938 418.534 163.425C418.625 161.661 418.71 159.912 418.801 158.168C418.846 157.289 419.102 156.952 419.911 156.701C419.941 156.696 419.972 156.691 420.007 156.68Z" fill="url(#paint38_linear_1432_3252)"/>
<path d="M435.385 155.876C435.798 155.921 436.149 156.027 436.406 156.333C436.607 156.575 436.727 156.826 436.717 157.153C436.657 159.726 436.607 162.324 436.541 164.947C436.526 165.621 436.039 166.159 435.385 166.259C434.757 166.355 434.119 165.978 433.938 165.37C433.868 165.133 433.848 164.872 433.853 164.626C433.908 162.289 433.993 159.967 434.023 157.665C434.039 156.796 434.405 156.102 435.385 155.876Z" fill="url(#paint39_linear_1432_3252)"/>
<path d="M426.058 161.244C426.103 160.037 426.143 158.831 426.199 157.635C426.229 156.977 426.671 156.474 427.294 156.334C427.948 156.183 428.641 156.605 428.696 157.404C428.706 157.515 428.691 157.625 428.686 157.741C428.606 160.058 428.531 162.389 428.44 164.741C428.43 164.983 428.385 165.239 428.294 165.46C428.028 166.113 427.485 166.32 426.897 166.239C426.319 166.159 425.897 165.606 425.917 164.968C425.952 163.711 426.008 162.475 426.058 161.244Z" fill="url(#paint40_linear_1432_3252)"/>
<path d="M442.376 160.872C442.396 159.53 442.462 158.193 442.411 156.866C442.376 155.962 443.256 155.188 444.296 155.419C444.834 155.54 445.236 155.987 445.281 156.53C445.286 156.61 445.286 156.695 445.281 156.776C445.256 159.49 445.231 162.224 445.216 164.983C445.216 165.415 445.075 165.762 444.753 166.058C444.311 166.465 443.723 166.606 443.205 166.365C442.673 166.119 442.311 165.737 442.316 165.113C442.341 163.691 442.361 162.279 442.376 160.872Z" fill="url(#paint41_linear_1432_3252)"/>
<path d="M450.543 160.867C450.563 159.469 450.633 158.072 450.578 156.695C450.543 155.75 451.458 154.946 452.543 155.183C453.106 155.308 453.518 155.771 453.568 156.343C453.573 156.429 453.573 156.514 453.568 156.6C453.543 159.429 453.513 162.279 453.498 165.153C453.498 165.606 453.352 165.968 453.015 166.274C452.553 166.701 451.945 166.847 451.402 166.596C450.849 166.339 450.467 165.942 450.478 165.289C450.508 163.812 450.528 162.334 450.543 160.867Z" fill="url(#paint42_linear_1432_3252)"/>
<path d="M438.602 171.777C438.617 170.953 439.29 170.32 440.165 170.325C441.069 170.33 441.813 170.948 441.788 171.757C441.763 172.727 441.039 173.24 440.145 173.245C439.265 173.25 438.592 172.591 438.602 171.777Z" fill="url(#paint43_linear_1432_3252)"/>
<path d="M482.29 171.124C482.235 170.576 482.139 170.048 482.034 169.516C481.807 168.38 481.571 167.259 481.355 166.138C481.199 165.349 481.038 164.57 480.837 163.822C480.45 162.394 480.003 161.108 479.455 159.962C478.948 158.901 478.41 158.022 477.832 157.343C477.37 156.806 476.902 156.424 476.435 156.178C475.922 155.906 475.405 155.645 474.872 155.373C472.58 154.197 470.098 152.916 467.399 151.534C467.198 151.428 466.987 151.378 466.791 151.358C465.977 151.283 465.343 151.84 464.896 152.991C464.655 153.609 464.504 154.338 464.509 155.228C464.514 155.735 464.499 156.243 464.499 156.761C464.499 158.334 464.479 159.927 464.464 161.565C464.464 161.711 464.449 161.857 464.444 162.022C464.378 161.997 464.509 162.042 464.444 162.022C464.584 164.957 464.735 168.124 465.394 171.154C465.303 171.134 465.484 171.174 465.394 171.154C465.409 171.179 465.439 171.219 465.459 171.27C466.117 172.732 466.916 173.441 467.781 173.591C472.832 174.476 477.144 175.215 480.868 175.863C481.048 175.893 481.214 175.843 481.375 175.763C482.134 175.396 482.521 173.39 482.29 171.124ZM481.461 172.481C481.325 173.23 481.074 173.596 480.707 173.526C480.013 173.395 479.3 173.225 478.571 173.064C477.4 172.807 476.179 172.541 474.902 172.265C472.681 171.782 470.273 171.26 467.67 170.687C467.193 170.581 466.761 170.184 466.409 169.375C466.348 169.239 466.298 169.053 466.278 168.882C466.168 167.993 466.057 167.108 465.977 166.229C465.901 165.415 465.881 164.606 465.831 163.806C465.786 163.022 465.791 162.269 465.786 161.52C465.776 159.66 465.755 157.846 465.776 156.092C465.791 154.615 466.253 153.805 466.916 153.665C467.062 153.635 467.223 153.675 467.379 153.75C470.731 155.353 473.756 156.806 476.49 158.112C476.887 158.303 477.274 158.575 477.666 159.002C478.073 159.444 478.455 160.012 478.822 160.701C479.415 161.816 479.898 163.138 480.275 164.656C480.35 164.957 480.415 165.264 480.481 165.576C480.732 166.822 480.978 168.083 481.229 169.36C481.26 169.511 481.295 169.666 481.325 169.817C481.526 170.787 481.601 171.692 481.461 172.481Z" fill="url(#paint44_linear_1432_3252)"/>
<path d="M472.445 159.384C472.595 159.545 472.726 159.61 472.832 159.867C472.962 160.173 473.038 160.48 473.058 160.842C473.163 162.962 473.274 165.149 473.395 167.4C473.44 168.209 473.224 168.596 472.962 168.566C472.691 168.536 472.405 168.134 472.304 167.224C472.294 167.134 472.294 167.043 472.289 166.953C472.193 164.742 472.098 162.591 472.007 160.5C471.992 160.118 472.023 159.791 472.148 159.61C472.229 159.48 472.354 159.444 472.445 159.384Z" fill="url(#paint45_linear_1432_3252)"/>
<path d="M469.193 158.012C469.429 158.203 469.62 158.434 469.736 158.902C469.791 159.123 469.826 159.334 469.831 159.56C469.892 161.746 469.962 164.003 470.027 166.32C470.043 166.888 469.972 167.355 469.711 167.551C469.339 167.832 468.872 167.184 468.806 166.269C468.801 166.174 468.801 166.079 468.796 165.983C468.746 163.621 468.701 161.329 468.645 159.103C468.635 158.636 468.711 158.294 468.892 158.118C468.982 158.037 469.103 158.042 469.193 158.012Z" fill="url(#paint46_linear_1432_3252)"/>
<path d="M477.742 162.394C477.792 161.987 477.882 161.811 478.048 161.826C478.279 161.847 478.536 162.334 478.591 162.922C478.636 163.384 478.671 163.852 478.717 164.319C478.857 165.912 478.998 167.536 479.139 169.194C479.194 169.852 479.038 170.254 478.772 170.154C478.551 170.074 478.33 169.556 478.279 168.988C478.234 168.465 478.194 167.948 478.154 167.43C478.028 165.872 477.902 164.344 477.782 162.847C477.762 162.686 477.752 162.52 477.742 162.394Z" fill="url(#paint47_linear_1432_3252)"/>
<path d="M475.495 168.566C475.48 168.395 475.465 168.254 475.46 168.119C475.314 165.872 475.174 163.691 475.043 161.57C475.008 161.002 475.088 160.761 475.319 160.696C475.349 160.686 475.38 160.676 475.42 160.666C475.44 160.691 475.47 160.721 475.495 160.746C475.792 161.023 475.927 161.389 475.973 162.043C476.113 164.058 476.259 166.129 476.41 168.254C476.43 168.546 476.44 168.822 476.38 169.049C476.219 169.652 475.837 169.481 475.641 168.943C475.596 168.817 475.55 168.702 475.495 168.566Z" fill="url(#paint48_linear_1432_3252)"/>
<defs>
<linearGradient id="paint0_linear_1432_3252" x1="293.13" y1="286.598" x2="293.13" y2="262.475" gradientUnits="userSpaceOnUse">
<stop offset="0.3039" stop-color="#ED1C24"/>
<stop offset="1" stop-color="#EC1C24"/>
</linearGradient>
<linearGradient id="paint1_linear_1432_3252" x1="457.566" y1="286.598" x2="457.566" y2="262.475" gradientUnits="userSpaceOnUse">
<stop offset="0.3039" stop-color="#ED1C24"/>
<stop offset="1" stop-color="#EC1C24"/>
</linearGradient>
<linearGradient id="paint2_linear_1432_3252" x1="459.995" y1="286.598" x2="459.995" y2="262.475" gradientUnits="userSpaceOnUse">
<stop offset="0.3039" stop-color="#ED1C24"/>
<stop offset="1" stop-color="#EC1C24"/>
</linearGradient>
<linearGradient id="paint3_linear_1432_3252" x1="379.685" y1="286.598" x2="379.685" y2="262.475" gradientUnits="userSpaceOnUse">
<stop offset="0.3039" stop-color="#ED1C24"/>
<stop offset="1" stop-color="#EC1C24"/>
</linearGradient>
<linearGradient id="paint4_linear_1432_3252" x1="357.359" y1="286.598" x2="357.359" y2="262.475" gradientUnits="userSpaceOnUse">
<stop offset="0.3039" stop-color="#ED1C24"/>
<stop offset="1" stop-color="#EC1C24"/>
</linearGradient>
<linearGradient id="paint5_linear_1432_3252" x1="443.677" y1="202.148" x2="445.559" y2="181.96" gradientUnits="userSpaceOnUse">
<stop offset="0.7559" stop-color="#3D3D3D"/>
<stop offset="0.7857" stop-color="#424242"/>
<stop offset="0.821" stop-color="#505050"/>
<stop offset="0.8591" stop-color="#686868"/>
<stop offset="0.8991" stop-color="#8A8A8A"/>
<stop offset="0.9408" stop-color="#B5B5B5"/>
<stop offset="0.9831" stop-color="#E8E8E8"/>
<stop offset="1" stop-color="white"/>
</linearGradient>
<linearGradient id="paint6_linear_1432_3252" x1="444.063" y1="202.184" x2="445.945" y2="181.995" gradientUnits="userSpaceOnUse">
<stop offset="0.7559" stop-color="#3D3D3D"/>
<stop offset="0.7857" stop-color="#424242"/>
<stop offset="0.821" stop-color="#505050"/>
<stop offset="0.8591" stop-color="#686868"/>
<stop offset="0.8991" stop-color="#8A8A8A"/>
<stop offset="0.9408" stop-color="#B5B5B5"/>
<stop offset="0.9831" stop-color="#E8E8E8"/>
<stop offset="1" stop-color="white"/>
</linearGradient>
<linearGradient id="paint7_linear_1432_3252" x1="444.523" y1="202.227" x2="446.405" y2="182.039" gradientUnits="userSpaceOnUse">
<stop offset="0.7559" stop-color="#3D3D3D"/>
<stop offset="0.7857" stop-color="#424242"/>
<stop offset="0.821" stop-color="#505050"/>
<stop offset="0.8591" stop-color="#686868"/>
<stop offset="0.8991" stop-color="#8A8A8A"/>
<stop offset="0.9408" stop-color="#B5B5B5"/>
<stop offset="0.9831" stop-color="#E8E8E8"/>
<stop offset="1" stop-color="white"/>
</linearGradient>
<linearGradient id="paint8_linear_1432_3252" x1="444.953" y1="202.266" x2="446.835" y2="182.078" gradientUnits="userSpaceOnUse">
<stop offset="0.7559" stop-color="#3D3D3D"/>
<stop offset="0.7857" stop-color="#424242"/>
<stop offset="0.821" stop-color="#505050"/>
<stop offset="0.8591" stop-color="#686868"/>
<stop offset="0.8991" stop-color="#8A8A8A"/>
<stop offset="0.9408" stop-color="#B5B5B5"/>
<stop offset="0.9831" stop-color="#E8E8E8"/>
<stop offset="1" stop-color="white"/>
</linearGradient>
<linearGradient id="paint9_linear_1432_3252" x1="423.983" y1="200.312" x2="425.865" y2="180.124" gradientUnits="userSpaceOnUse">
<stop offset="0.7559" stop-color="#3D3D3D"/>
<stop offset="0.7857" stop-color="#424242"/>
<stop offset="0.821" stop-color="#505050"/>
<stop offset="0.8591" stop-color="#686868"/>
<stop offset="0.8991" stop-color="#8A8A8A"/>
<stop offset="0.9408" stop-color="#B5B5B5"/>
<stop offset="0.9831" stop-color="#E8E8E8"/>
<stop offset="1" stop-color="white"/>
</linearGradient>
<linearGradient id="paint10_linear_1432_3252" x1="432.328" y1="201.09" x2="434.21" y2="180.902" gradientUnits="userSpaceOnUse">
<stop offset="0.7559" stop-color="#3D3D3D"/>
<stop offset="0.7857" stop-color="#424242"/>
<stop offset="0.821" stop-color="#505050"/>
<stop offset="0.8591" stop-color="#686868"/>
<stop offset="0.8991" stop-color="#8A8A8A"/>
<stop offset="0.9408" stop-color="#B5B5B5"/>
<stop offset="0.9831" stop-color="#E8E8E8"/>
<stop offset="1" stop-color="white"/>
</linearGradient>
<linearGradient id="paint11_linear_1432_3252" x1="440.25" y1="201.829" x2="442.132" y2="181.641" gradientUnits="userSpaceOnUse">
<stop offset="0.7559" stop-color="#3D3D3D"/>
<stop offset="0.7857" stop-color="#424242"/>
<stop offset="0.821" stop-color="#505050"/>
<stop offset="0.8591" stop-color="#686868"/>
<stop offset="0.8991" stop-color="#8A8A8A"/>
<stop offset="0.9408" stop-color="#B5B5B5"/>
<stop offset="0.9831" stop-color="#E8E8E8"/>
<stop offset="1" stop-color="white"/>
</linearGradient>
<linearGradient id="paint12_linear_1432_3252" x1="447.782" y1="202.531" x2="449.664" y2="182.343" gradientUnits="userSpaceOnUse">
<stop offset="0.7559" stop-color="#3D3D3D"/>
<stop offset="0.7857" stop-color="#424242"/>
<stop offset="0.821" stop-color="#505050"/>
<stop offset="0.8591" stop-color="#686868"/>
<stop offset="0.8991" stop-color="#8A8A8A"/>
<stop offset="0.9408" stop-color="#B5B5B5"/>
<stop offset="0.9831" stop-color="#E8E8E8"/>
<stop offset="1" stop-color="white"/>
</linearGradient>
<linearGradient id="paint13_linear_1432_3252" x1="454.953" y1="203.199" x2="456.835" y2="183.011" gradientUnits="userSpaceOnUse">
<stop offset="0.7559" stop-color="#3D3D3D"/>
<stop offset="0.7857" stop-color="#424242"/>
<stop offset="0.821" stop-color="#505050"/>
<stop offset="0.8591" stop-color="#686868"/>
<stop offset="0.8991" stop-color="#8A8A8A"/>
<stop offset="0.9408" stop-color="#B5B5B5"/>
<stop offset="0.9831" stop-color="#E8E8E8"/>
<stop offset="1" stop-color="white"/>
</linearGradient>
<linearGradient id="paint14_linear_1432_3252" x1="461.818" y1="203.839" x2="463.7" y2="183.651" gradientUnits="userSpaceOnUse">
<stop offset="0.7559" stop-color="#3D3D3D"/>
<stop offset="0.7857" stop-color="#424242"/>
<stop offset="0.821" stop-color="#505050"/>
<stop offset="0.8591" stop-color="#686868"/>
<stop offset="0.8991" stop-color="#8A8A8A"/>
<stop offset="0.9408" stop-color="#B5B5B5"/>
<stop offset="0.9831" stop-color="#E8E8E8"/>
<stop offset="1" stop-color="white"/>
</linearGradient>
<linearGradient id="paint15_linear_1432_3252" x1="468.336" y1="204.447" x2="470.218" y2="184.259" gradientUnits="userSpaceOnUse">
<stop offset="0.7559" stop-color="#3D3D3D"/>
<stop offset="0.7857" stop-color="#424242"/>
<stop offset="0.821" stop-color="#505050"/>
<stop offset="0.8591" stop-color="#686868"/>
<stop offset="0.8991" stop-color="#8A8A8A"/>
<stop offset="0.9408" stop-color="#B5B5B5"/>
<stop offset="0.9831" stop-color="#E8E8E8"/>
<stop offset="1" stop-color="white"/>
</linearGradient>
<linearGradient id="paint16_linear_1432_3252" x1="434.961" y1="201.336" x2="436.843" y2="181.147" gradientUnits="userSpaceOnUse">
<stop offset="0.7559" stop-color="#3D3D3D"/>
<stop offset="0.7857" stop-color="#424242"/>
<stop offset="0.821" stop-color="#505050"/>
<stop offset="0.8591" stop-color="#686868"/>
<stop offset="0.8991" stop-color="#8A8A8A"/>
<stop offset="0.9408" stop-color="#B5B5B5"/>
<stop offset="0.9831" stop-color="#E8E8E8"/>
<stop offset="1" stop-color="white"/>
</linearGradient>
<linearGradient id="paint17_linear_1432_3252" x1="438.207" y1="201.638" x2="440.089" y2="181.45" gradientUnits="userSpaceOnUse">
<stop offset="0.7559" stop-color="#3D3D3D"/>
<stop offset="0.7857" stop-color="#424242"/>
<stop offset="0.821" stop-color="#505050"/>
<stop offset="0.8591" stop-color="#686868"/>
<stop offset="0.8991" stop-color="#8A8A8A"/>
<stop offset="0.9408" stop-color="#B5B5B5"/>
<stop offset="0.9831" stop-color="#E8E8E8"/>
<stop offset="1" stop-color="white"/>
</linearGradient>
<linearGradient id="paint18_linear_1432_3252" x1="436.755" y1="201.503" x2="438.637" y2="181.315" gradientUnits="userSpaceOnUse">
<stop offset="0.7559" stop-color="#3D3D3D"/>
<stop offset="0.7857" stop-color="#424242"/>
<stop offset="0.821" stop-color="#505050"/>
<stop offset="0.8591" stop-color="#686868"/>
<stop offset="0.8991" stop-color="#8A8A8A"/>
<stop offset="0.9408" stop-color="#B5B5B5"/>
<stop offset="0.9831" stop-color="#E8E8E8"/>
<stop offset="1" stop-color="white"/>
</linearGradient>
<linearGradient id="paint19_linear_1432_3252" x1="435.235" y1="201.361" x2="437.117" y2="181.173" gradientUnits="userSpaceOnUse">
<stop offset="0.7559" stop-color="#3D3D3D"/>
<stop offset="0.7857" stop-color="#424242"/>
<stop offset="0.821" stop-color="#505050"/>
<stop offset="0.8591" stop-color="#686868"/>
<stop offset="0.8991" stop-color="#8A8A8A"/>
<stop offset="0.9408" stop-color="#B5B5B5"/>
<stop offset="0.9831" stop-color="#E8E8E8"/>
<stop offset="1" stop-color="white"/>
</linearGradient>
<linearGradient id="paint20_linear_1432_3252" x1="409.566" y1="198.968" x2="411.448" y2="178.78" gradientUnits="userSpaceOnUse">
<stop offset="0.7559" stop-color="#3D3D3D"/>
<stop offset="0.7857" stop-color="#424242"/>
<stop offset="0.821" stop-color="#505050"/>
<stop offset="0.8591" stop-color="#686868"/>
<stop offset="0.8991" stop-color="#8A8A8A"/>
<stop offset="0.9408" stop-color="#B5B5B5"/>
<stop offset="0.9831" stop-color="#E8E8E8"/>
<stop offset="1" stop-color="white"/>
</linearGradient>
<linearGradient id="paint21_linear_1432_3252" x1="421.379" y1="200.07" x2="423.261" y2="179.881" gradientUnits="userSpaceOnUse">
<stop offset="0.7559" stop-color="#3D3D3D"/>
<stop offset="0.7857" stop-color="#424242"/>
<stop offset="0.821" stop-color="#505050"/>
<stop offset="0.8591" stop-color="#686868"/>
<stop offset="0.8991" stop-color="#8A8A8A"/>
<stop offset="0.9408" stop-color="#B5B5B5"/>
<stop offset="0.9831" stop-color="#E8E8E8"/>
<stop offset="1" stop-color="white"/>
</linearGradient>
<linearGradient id="paint22_linear_1432_3252" x1="432.276" y1="201.086" x2="434.158" y2="180.897" gradientUnits="userSpaceOnUse">
<stop offset="0.7559" stop-color="#3D3D3D"/>
<stop offset="0.7857" stop-color="#424242"/>
<stop offset="0.821" stop-color="#505050"/>
<stop offset="0.8591" stop-color="#686868"/>
<stop offset="0.8991" stop-color="#8A8A8A"/>
<stop offset="0.9408" stop-color="#B5B5B5"/>
<stop offset="0.9831" stop-color="#E8E8E8"/>
<stop offset="1" stop-color="white"/>
</linearGradient>
<linearGradient id="paint23_linear_1432_3252" x1="442.361" y1="202.025" x2="444.243" y2="181.837" gradientUnits="userSpaceOnUse">
<stop offset="0.7559" stop-color="#3D3D3D"/>
<stop offset="0.7857" stop-color="#424242"/>
<stop offset="0.821" stop-color="#505050"/>
<stop offset="0.8591" stop-color="#686868"/>
<stop offset="0.8991" stop-color="#8A8A8A"/>
<stop offset="0.9408" stop-color="#B5B5B5"/>
<stop offset="0.9831" stop-color="#E8E8E8"/>
<stop offset="1" stop-color="white"/>
</linearGradient>
<linearGradient id="paint24_linear_1432_3252" x1="451.72" y1="202.898" x2="453.602" y2="182.71" gradientUnits="userSpaceOnUse">
<stop offset="0.7559" stop-color="#3D3D3D"/>
<stop offset="0.7857" stop-color="#424242"/>
<stop offset="0.821" stop-color="#505050"/>
<stop offset="0.8591" stop-color="#686868"/>
<stop offset="0.8991" stop-color="#8A8A8A"/>
<stop offset="0.9408" stop-color="#B5B5B5"/>
<stop offset="0.9831" stop-color="#E8E8E8"/>
<stop offset="1" stop-color="white"/>
</linearGradient>
<linearGradient id="paint25_linear_1432_3252" x1="460.429" y1="203.71" x2="462.311" y2="183.521" gradientUnits="userSpaceOnUse">
<stop offset="0.7559" stop-color="#3D3D3D"/>
<stop offset="0.7857" stop-color="#424242"/>
<stop offset="0.821" stop-color="#505050"/>
<stop offset="0.8591" stop-color="#686868"/>
<stop offset="0.8991" stop-color="#8A8A8A"/>
<stop offset="0.9408" stop-color="#B5B5B5"/>
<stop offset="0.9831" stop-color="#E8E8E8"/>
<stop offset="1" stop-color="white"/>
</linearGradient>
<linearGradient id="paint26_linear_1432_3252" x1="468.555" y1="204.467" x2="470.437" y2="184.279" gradientUnits="userSpaceOnUse">
<stop offset="0.7559" stop-color="#3D3D3D"/>
<stop offset="0.7857" stop-color="#424242"/>
<stop offset="0.821" stop-color="#505050"/>
<stop offset="0.8591" stop-color="#686868"/>
<stop offset="0.8991" stop-color="#8A8A8A"/>
<stop offset="0.9408" stop-color="#B5B5B5"/>
<stop offset="0.9831" stop-color="#E8E8E8"/>
<stop offset="1" stop-color="white"/>
</linearGradient>
<linearGradient id="paint27_linear_1432_3252" x1="498.797" y1="187.573" x2="61.9966" y2="187.573" gradientUnits="userSpaceOnUse">
<stop offset="0.7559" stop-color="#3D3D3D"/>
<stop offset="1" stop-color="#3D3D3D" stop-opacity="0.1"/>
</linearGradient>
<linearGradient id="paint28_linear_1432_3252" x1="498.798" y1="146.534" x2="61.9948" y2="146.534" gradientUnits="userSpaceOnUse">
<stop offset="0.7559" stop-color="#3D3D3D"/>
<stop offset="1" stop-color="#3D3D3D" stop-opacity="0.1"/>
</linearGradient>
<linearGradient id="paint29_linear_1432_3252" x1="502.399" y1="132.053" x2="49.9275" y2="132.053" gradientUnits="userSpaceOnUse">
<stop offset="0.7559" stop-color="#3D3D3D"/>
<stop offset="1" stop-color="#3D3D3D" stop-opacity="0.1"/>
</linearGradient>
<linearGradient id="paint30_linear_1432_3252" x1="188.277" y1="169.76" x2="3.49741" y2="169.76" gradientUnits="userSpaceOnUse">
<stop offset="0.5899" stop-color="#ED1C24"/>
<stop offset="0.7464" stop-color="#ED1E26"/>
<stop offset="0.8027" stop-color="#EE252C"/>
<stop offset="0.8429" stop-color="#EF3038"/>
<stop offset="0.8754" stop-color="#F04148"/>
<stop offset="0.9032" stop-color="#F2575D"/>
<stop offset="0.9278" stop-color="#F47378"/>
<stop offset="0.9501" stop-color="#F69397"/>
<stop offset="0.9706" stop-color="#F9B9BB"/>
<stop offset="0.9889" stop-color="#FDE2E3"/>
<stop offset="1" stop-color="white"/>
</linearGradient>
<linearGradient id="paint31_linear_1432_3252" x1="188.274" y1="81.4253" x2="3.4997" y2="81.4253" gradientUnits="userSpaceOnUse">
<stop offset="0.5899" stop-color="#ED1C24"/>
<stop offset="0.7464" stop-color="#ED1E26"/>
<stop offset="0.8027" stop-color="#EE252C"/>
<stop offset="0.8429" stop-color="#EF3038"/>
<stop offset="0.8754" stop-color="#F04148"/>
<stop offset="0.9032" stop-color="#F2575D"/>
<stop offset="0.9278" stop-color="#F47378"/>
<stop offset="0.9501" stop-color="#F69397"/>
<stop offset="0.9706" stop-color="#F9B9BB"/>
<stop offset="0.9889" stop-color="#FDE2E3"/>
<stop offset="1" stop-color="white"/>
</linearGradient>
<radialGradient id="paint32_radial_1432_3252" cx="0" cy="0" r="1" gradientUnits="userSpaceOnUse" gradientTransform="translate(266.934 199.152) scale(33.3208 33.3209)">
<stop stop-color="#ED1C24"/>
<stop offset="0.3279" stop-color="#ED1E26"/>
<stop offset="0.4688" stop-color="#EE252D"/>
<stop offset="0.5738" stop-color="#EF3239"/>
<stop offset="0.6611" stop-color="#F0444A"/>
<stop offset="0.7374" stop-color="#F25B60"/>
<stop offset="0.8059" stop-color="#F4777C"/>
<stop offset="0.8686" stop-color="#F7999D"/>
<stop offset="0.9269" stop-color="#FAC1C3"/>
<stop offset="0.9795" stop-color="#FDECED"/>
<stop offset="1" stop-color="white"/>
</radialGradient>
<radialGradient id="paint33_radial_1432_3252" cx="0" cy="0" r="1" gradientUnits="userSpaceOnUse" gradientTransform="translate(264.624 199.793) scale(33.3209 33.3209)">
<stop stop-color="#ED1C24"/>
<stop offset="0.3279" stop-color="#ED1E26"/>
<stop offset="0.4688" stop-color="#EE252D"/>
<stop offset="0.5738" stop-color="#EF3239"/>
<stop offset="0.6611" stop-color="#F0444A"/>
<stop offset="0.7374" stop-color="#F25B60"/>
<stop offset="0.8059" stop-color="#F4777C"/>
<stop offset="0.8686" stop-color="#F7999D"/>
<stop offset="0.9269" stop-color="#FAC1C3"/>
<stop offset="0.9795" stop-color="#FDECED"/>
<stop offset="1" stop-color="white"/>
</radialGradient>
<radialGradient id="paint34_radial_1432_3252" cx="0" cy="0" r="1" gradientUnits="userSpaceOnUse" gradientTransform="translate(264.624 199.793) scale(33.3209 33.3208)">
<stop stop-color="#ED1C24"/>
<stop offset="0.3279" stop-color="#ED1E26"/>
<stop offset="0.4688" stop-color="#EE252D"/>
<stop offset="0.5738" stop-color="#EF3239"/>
<stop offset="0.6611" stop-color="#F0444A"/>
<stop offset="0.7374" stop-color="#F25B60"/>
<stop offset="0.8059" stop-color="#F4777C"/>
<stop offset="0.8686" stop-color="#F7999D"/>
<stop offset="0.9269" stop-color="#FAC1C3"/>
<stop offset="0.9795" stop-color="#FDECED"/>
<stop offset="1" stop-color="white"/>
</radialGradient>
<radialGradient id="paint35_radial_1432_3252" cx="0" cy="0" r="1" gradientUnits="userSpaceOnUse" gradientTransform="translate(264.624 199.793) scale(33.3209 33.3209)">
<stop stop-color="#ED1C24"/>
<stop offset="0.3279" stop-color="#ED1E26"/>
<stop offset="0.4688" stop-color="#EE252D"/>
<stop offset="0.5738" stop-color="#EF3239"/>
<stop offset="0.6611" stop-color="#F0444A"/>
<stop offset="0.7374" stop-color="#F25B60"/>
<stop offset="0.8059" stop-color="#F4777C"/>
<stop offset="0.8686" stop-color="#F7999D"/>
<stop offset="0.9269" stop-color="#FAC1C3"/>
<stop offset="0.9795" stop-color="#FDECED"/>
<stop offset="1" stop-color="white"/>
</radialGradient>
<radialGradient id="paint36_radial_1432_3252" cx="0" cy="0" r="1" gradientUnits="userSpaceOnUse" gradientTransform="translate(264.624 199.794) scale(33.3208 33.3209)">
<stop stop-color="#ED1C24"/>
<stop offset="0.3279" stop-color="#ED1E26"/>
<stop offset="0.4688" stop-color="#EE252D"/>
<stop offset="0.5738" stop-color="#EF3239"/>
<stop offset="0.6611" stop-color="#F0444A"/>
<stop offset="0.7374" stop-color="#F25B60"/>
<stop offset="0.8059" stop-color="#F4777C"/>
<stop offset="0.8686" stop-color="#F7999D"/>
<stop offset="0.9269" stop-color="#FAC1C3"/>
<stop offset="0.9795" stop-color="#FDECED"/>
<stop offset="1" stop-color="white"/>
</radialGradient>
<linearGradient id="paint37_linear_1432_3252" x1="462.875" y1="264.901" x2="417.645" y2="97.9922" gradientUnits="userSpaceOnUse">
<stop offset="0.7559" stop-color="#3D3D3D"/>
<stop offset="0.7857" stop-color="#424242"/>
<stop offset="0.821" stop-color="#505050"/>
<stop offset="0.8591" stop-color="#686868"/>
<stop offset="0.8991" stop-color="#8A8A8A"/>
<stop offset="0.9408" stop-color="#B5B5B5"/>
<stop offset="0.9831" stop-color="#E8E8E8"/>
<stop offset="1" stop-color="white"/>
</linearGradient>
<linearGradient id="paint38_linear_1432_3252" x1="446.167" y1="258.84" x2="405.002" y2="106.931" gradientUnits="userSpaceOnUse">
<stop offset="0.7559" stop-color="#3D3D3D"/>
<stop offset="0.7857" stop-color="#424242"/>
<stop offset="0.821" stop-color="#505050"/>
<stop offset="0.8591" stop-color="#686868"/>
<stop offset="0.8991" stop-color="#8A8A8A"/>
<stop offset="0.9408" stop-color="#B5B5B5"/>
<stop offset="0.9831" stop-color="#E8E8E8"/>
<stop offset="1" stop-color="white"/>
</linearGradient>
<linearGradient id="paint39_linear_1432_3252" x1="461.763" y1="258.709" x2="418.957" y2="100.743" gradientUnits="userSpaceOnUse">
<stop offset="0.7559" stop-color="#3D3D3D"/>
<stop offset="0.7857" stop-color="#424242"/>
<stop offset="0.821" stop-color="#505050"/>
<stop offset="0.8591" stop-color="#686868"/>
<stop offset="0.8991" stop-color="#8A8A8A"/>
<stop offset="0.9408" stop-color="#B5B5B5"/>
<stop offset="0.9831" stop-color="#E8E8E8"/>
<stop offset="1" stop-color="white"/>
</linearGradient>
<linearGradient id="paint40_linear_1432_3252" x1="454.047" y1="259.926" x2="411.607" y2="103.312" gradientUnits="userSpaceOnUse">
<stop offset="0.7559" stop-color="#3D3D3D"/>
<stop offset="0.7857" stop-color="#424242"/>
<stop offset="0.821" stop-color="#505050"/>
<stop offset="0.8591" stop-color="#686868"/>
<stop offset="0.8991" stop-color="#8A8A8A"/>
<stop offset="0.9408" stop-color="#B5B5B5"/>
<stop offset="0.9831" stop-color="#E8E8E8"/>
<stop offset="1" stop-color="white"/>
</linearGradient>
<linearGradient id="paint41_linear_1432_3252" x1="470.701" y1="260.153" x2="426.266" y2="96.1763" gradientUnits="userSpaceOnUse">
<stop offset="0.7559" stop-color="#3D3D3D"/>
<stop offset="0.7857" stop-color="#424242"/>
<stop offset="0.821" stop-color="#505050"/>
<stop offset="0.8591" stop-color="#686868"/>
<stop offset="0.8991" stop-color="#8A8A8A"/>
<stop offset="0.9408" stop-color="#B5B5B5"/>
<stop offset="0.9831" stop-color="#E8E8E8"/>
<stop offset="1" stop-color="white"/>
</linearGradient>
<linearGradient id="paint42_linear_1432_3252" x1="480.072" y1="264.368" x2="433.749" y2="93.4252" gradientUnits="userSpaceOnUse">
<stop offset="0.7559" stop-color="#3D3D3D"/>
<stop offset="0.7857" stop-color="#424242"/>
<stop offset="0.821" stop-color="#505050"/>
<stop offset="0.8591" stop-color="#686868"/>
<stop offset="0.8991" stop-color="#8A8A8A"/>
<stop offset="0.9408" stop-color="#B5B5B5"/>
<stop offset="0.9831" stop-color="#E8E8E8"/>
<stop offset="1" stop-color="white"/>
</linearGradient>
<linearGradient id="paint43_linear_1432_3252" x1="464.925" y1="263.019" x2="420.232" y2="98.0882" gradientUnits="userSpaceOnUse">
<stop offset="0.7559" stop-color="#3D3D3D"/>
<stop offset="0.7857" stop-color="#424242"/>
<stop offset="0.821" stop-color="#505050"/>
<stop offset="0.8591" stop-color="#686868"/>
<stop offset="0.8991" stop-color="#8A8A8A"/>
<stop offset="0.9408" stop-color="#B5B5B5"/>
<stop offset="0.9831" stop-color="#E8E8E8"/>
<stop offset="1" stop-color="white"/>
</linearGradient>
<linearGradient id="paint44_linear_1432_3252" x1="495.792" y1="251.249" x2="452.892" y2="92.9392" gradientUnits="userSpaceOnUse">
<stop offset="0.7559" stop-color="#3D3D3D"/>
<stop offset="0.7857" stop-color="#424242"/>
<stop offset="0.821" stop-color="#505050"/>
<stop offset="0.8591" stop-color="#686868"/>
<stop offset="0.8991" stop-color="#8A8A8A"/>
<stop offset="0.9408" stop-color="#B5B5B5"/>
<stop offset="0.9831" stop-color="#E8E8E8"/>
<stop offset="1" stop-color="white"/>
</linearGradient>
<linearGradient id="paint45_linear_1432_3252" x1="496.419" y1="251.609" x2="453.282" y2="92.4232" gradientUnits="userSpaceOnUse">
<stop offset="0.7559" stop-color="#3D3D3D"/>
<stop offset="0.7857" stop-color="#424242"/>
<stop offset="0.821" stop-color="#505050"/>
<stop offset="0.8591" stop-color="#686868"/>
<stop offset="0.8991" stop-color="#8A8A8A"/>
<stop offset="0.9408" stop-color="#B5B5B5"/>
<stop offset="0.9831" stop-color="#E8E8E8"/>
<stop offset="1" stop-color="white"/>
</linearGradient>
<linearGradient id="paint46_linear_1432_3252" x1="493.585" y1="252.425" x2="450.445" y2="93.2265" gradientUnits="userSpaceOnUse">
<stop offset="0.7559" stop-color="#3D3D3D"/>
<stop offset="0.7857" stop-color="#424242"/>
<stop offset="0.821" stop-color="#505050"/>
<stop offset="0.8591" stop-color="#686868"/>
<stop offset="0.8991" stop-color="#8A8A8A"/>
<stop offset="0.9408" stop-color="#B5B5B5"/>
<stop offset="0.9831" stop-color="#E8E8E8"/>
<stop offset="1" stop-color="white"/>
</linearGradient>
<linearGradient id="paint47_linear_1432_3252" x1="501.255" y1="250.187" x2="458.139" y2="91.0816" gradientUnits="userSpaceOnUse">
<stop offset="0.7559" stop-color="#3D3D3D"/>
<stop offset="0.7857" stop-color="#424242"/>
<stop offset="0.821" stop-color="#505050"/>
<stop offset="0.8591" stop-color="#686868"/>
<stop offset="0.8991" stop-color="#8A8A8A"/>
<stop offset="0.9408" stop-color="#B5B5B5"/>
<stop offset="0.9831" stop-color="#E8E8E8"/>
<stop offset="1" stop-color="white"/>
</linearGradient>
<linearGradient id="paint48_linear_1432_3252" x1="498.958" y1="250.871" x2="455.828" y2="91.7117" gradientUnits="userSpaceOnUse">
<stop offset="0.7559" stop-color="#3D3D3D"/>
<stop offset="0.7857" stop-color="#424242"/>
<stop offset="0.821" stop-color="#505050"/>
<stop offset="0.8591" stop-color="#686868"/>
<stop offset="0.8991" stop-color="#8A8A8A"/>
<stop offset="0.9408" stop-color="#B5B5B5"/>
<stop offset="0.9831" stop-color="#E8E8E8"/>
<stop offset="1" stop-color="white"/>
</linearGradient>
</defs>
</svg>
