<svg width="41" height="39" viewBox="0 0 41 39" fill="none" xmlns="http://www.w3.org/2000/svg">
<path d="M0.566673 14.4981C0.63237 14.3022 0.750988 14.1283 0.909367 13.9957C1.06774 13.8632 1.25968 13.7772 1.4639 13.7472L13.9601 11.9677L19.6033 0.632244C19.6933 0.443018 19.8349 0.283192 20.0119 0.171292C20.1888 0.0593922 20.3938 0 20.603 0C20.8123 0 21.0173 0.0593922 21.1942 0.171292C21.3711 0.283192 21.5128 0.443018 21.6027 0.632244L27.141 12.0027L39.6372 13.8649C39.8414 13.8948 40.0334 13.9808 40.1917 14.1134C40.3501 14.2459 40.4687 14.4198 40.5344 14.6157C40.5982 14.813 40.6051 15.0243 40.5542 15.2254C40.5034 15.4264 40.3969 15.6089 40.247 15.752L31.1723 24.5596L33.2692 37.0339C33.2955 37.1935 33.287 37.3569 33.2443 37.5128C33.2015 37.6688 33.1255 37.8136 33.0214 37.9374C32.9174 38.0611 32.7878 38.1607 32.6416 38.2294C32.4954 38.2981 32.336 38.3343 32.1745 38.3354C31.9935 38.3362 31.8154 38.2905 31.6571 38.2027L20.4931 32.2784L9.2965 38.1351C9.14146 38.2138 8.97045 38.2558 8.79665 38.2578C8.50296 38.2558 8.22185 38.1381 8.01418 37.9301C7.8065 37.7221 7.68896 37.4406 7.68699 37.1465C7.68556 37.0619 7.69651 36.9776 7.71948 36.8962L9.88382 24.497L0.859085 15.6444C0.705189 15.5019 0.595711 15.3179 0.543831 15.1145C0.491951 14.9111 0.499886 14.6971 0.566673 14.4981Z" fill="#B8B8B8"/>
</svg>
