<svg width="23" height="25" viewBox="0 0 23 25" fill="none" xmlns="http://www.w3.org/2000/svg">
<path d="M16.4171 10.3315V8.33154C16.4171 5.57012 14.3747 3.33154 11.8552 3.33154C9.33573 3.33154 7.2933 5.57012 7.2933 8.33154V10.3315M11.8552 14.8315V16.8315M8.93558 21.3315H14.7748C16.3078 21.3315 17.0742 21.3315 17.6597 21.0046C18.1748 20.7169 18.5935 20.258 18.8559 19.6935C19.1542 19.0518 19.1542 18.2117 19.1542 16.5315V15.1315C19.1542 13.4514 19.1542 12.6113 18.8559 11.9696C18.5935 11.4051 18.1748 10.9461 17.6597 10.6585C17.0742 10.3315 16.3078 10.3315 14.7748 10.3315H8.93558C7.40264 10.3315 6.63617 10.3315 6.05066 10.6585C5.53563 10.9461 5.1169 11.4051 4.85448 11.9696C4.55615 12.6113 4.55615 13.4514 4.55615 15.1315V16.5315C4.55615 18.2117 4.55615 19.0518 4.85448 19.6935C5.1169 20.258 5.53563 20.7169 6.05066 21.0046C6.63617 21.3315 7.40264 21.3315 8.93558 21.3315Z" stroke="#667085" stroke-width="2" stroke-linecap="round" stroke-linejoin="round"/>
</svg>
