<svg width="196" height="147" viewBox="0 0 196 147" fill="none" xmlns="http://www.w3.org/2000/svg">
<rect width="196" height="147" fill="white"/>
<path d="M53.5939 107.495V81.5617C53.5939 74.8187 56.2726 68.3519 61.0406 63.5839C65.8086 58.8159 72.2754 56.1372 79.0184 56.1372H63.5095C56.7665 56.1372 50.2996 58.8159 45.5316 63.5839C40.7636 68.3519 38.085 74.8187 38.085 81.5617V107.495C38.085 114.238 40.7636 120.705 45.5316 125.473C50.2996 130.241 56.7665 132.919 63.5095 132.919H79.0184C72.2754 132.919 65.8086 130.241 61.0406 125.473C56.2726 120.705 53.5939 114.238 53.5939 107.495Z" fill="#E4E7EC"/>
<path d="M119.47 52.158C117.548 51.6268 115.578 51.2857 113.59 51.1397V33.8765C112.276 -0.638581 62.7983 -0.612391 61.4971 33.8765V51.1199C53.7741 51.6394 46.5364 55.0714 41.2466 60.7222C35.9568 66.373 33.0093 73.8213 33 81.5616V107.495C33.0092 115.583 36.2265 123.338 41.9461 129.058C47.6657 134.778 55.4206 137.995 63.5094 138.004H89.6979C96.4375 137.754 96.4324 128.082 89.6979 127.834H63.5094C58.1169 127.828 52.947 125.683 49.1339 121.87C45.3208 118.057 43.1759 112.887 43.1698 107.495V81.5616C43.1759 76.1691 45.3208 70.9992 49.1339 67.1861C52.947 63.3731 58.1169 61.2282 63.5094 61.222H111.307C113.148 61.2208 114.98 61.4689 116.754 61.9594C118.054 62.3193 119.443 62.1482 120.617 61.4837C121.791 60.8192 122.652 59.7157 123.012 58.4159C123.372 57.1162 123.201 55.7267 122.537 54.5531C121.872 53.3795 120.768 52.5179 119.469 52.158H119.47ZM87.5434 18.0004C91.7527 18.0051 95.7881 19.6793 98.7645 22.6557C101.741 25.632 103.415 29.6675 103.42 33.8767V51.0522H71.6669V33.8767C71.6716 29.6675 73.3459 25.632 76.3223 22.6556C79.2987 19.6793 83.3342 18.0051 87.5434 18.0004ZM79.7874 88.172C81.4732 88.172 83.0899 88.8417 84.2819 90.0337C85.4739 91.2257 86.1436 92.8424 86.1436 94.5281C85.8319 102.95 73.7418 102.948 73.4313 94.5281C73.4313 92.8424 74.101 91.2257 75.293 90.0337C76.485 88.8417 78.1017 88.172 79.7874 88.172ZM59.4478 88.172C61.1336 88.172 62.7503 88.8417 63.9423 90.0337C65.1343 91.2257 65.804 92.8424 65.804 94.5281C65.4923 102.95 53.4022 102.948 53.0917 94.5281C53.0917 92.8424 53.7614 91.2257 54.9534 90.0337C56.1454 88.8417 57.7621 88.172 59.4478 88.172Z" fill="#006838"/>
<path d="M128.857 69.3547C109.932 69.3547 94.5342 84.7521 94.5342 103.678C96.2597 149.15 161.462 149.137 163.18 103.678C163.18 84.7526 147.783 69.3547 128.857 69.3547ZM128.857 127.831C122.454 127.824 116.314 125.277 111.786 120.749C107.258 116.221 104.711 110.081 104.704 103.678C105.918 71.6793 151.801 71.6879 153.011 103.678C153.003 110.081 150.456 116.221 145.928 120.749C141.4 125.277 135.261 127.824 128.857 127.831ZM144.62 103.678C144.62 105.026 144.085 106.32 143.131 107.273C142.178 108.227 140.884 108.763 139.536 108.763H133.942V114.356C133.692 121.096 124.02 121.091 123.772 114.356V108.763H118.179C111.439 108.513 111.445 98.8406 118.179 98.5929H123.772V92.9995C124.022 86.26 133.695 86.2651 133.942 92.9995V98.5929H139.536C140.884 98.5929 142.178 99.1286 143.131 100.082C144.085 101.036 144.62 102.329 144.62 103.678Z" fill="#F2C94C"/>
</svg>
