<svg width="24" height="25" viewBox="0 0 24 25" fill="none" xmlns="http://www.w3.org/2000/svg">
<path d="M12 17.8315H12.01M8.2 22.3315H15.8C16.9201 22.3315 17.4802 22.3315 17.908 22.1136C18.2843 21.9218 18.5903 21.6158 18.782 21.2395C19 20.8117 19 20.2516 19 19.1315V5.53154C19 4.41144 19 3.85139 18.782 3.42356C18.5903 3.04724 18.2843 2.74128 17.908 2.54953C17.4802 2.33154 16.9201 2.33154 15.8 2.33154H8.2C7.0799 2.33154 6.51984 2.33154 6.09202 2.54953C5.71569 2.74128 5.40973 3.04724 5.21799 3.42356C5 3.85139 5 4.41144 5 5.53154V19.1315C5 20.2516 5 20.8117 5.21799 21.2395C5.40973 21.6158 5.71569 21.9218 6.09202 22.1136C6.51984 22.3315 7.07989 22.3315 8.2 22.3315ZM12.5 17.8315C12.5 18.1077 12.2761 18.3315 12 18.3315C11.7239 18.3315 11.5 18.1077 11.5 17.8315C11.5 17.5554 11.7239 17.3315 12 17.3315C12.2761 17.3315 12.5 17.5554 12.5 17.8315Z" stroke="#667085" stroke-width="2" stroke-linecap="round" stroke-linejoin="round"/>
</svg>
