<svg width="127" height="147" viewBox="0 0 127 147" fill="none" xmlns="http://www.w3.org/2000/svg">
<path d="M34.1697 71.5799V60.6299C34.1697 54.8217 36.491 49.2514 40.6229 45.1443C44.7549 41.0373 50.359 38.73 56.2025 38.73H39.6779C33.8344 38.73 28.2303 41.0373 24.0983 45.1443C19.9663 49.2514 17.645 54.8217 17.645 60.6299V71.5799C17.645 77.3882 19.9663 82.9585 24.0983 87.0655C28.2303 91.1726 33.8344 93.4799 39.6779 93.4799H56.2025C50.359 93.4799 44.7549 91.1726 40.6229 87.0655C36.491 82.9585 34.1697 77.3882 34.1697 71.5799Z" fill="#E4E7EC"/>
<path d="M39.678 38.7299C33.8345 38.7299 28.2304 41.0373 24.0984 45.1443C19.9665 49.2513 17.6451 54.8217 17.6451 60.6299V71.5799C17.6451 77.3881 19.9665 82.9585 24.0984 87.0655C28.2304 91.1725 33.8345 93.4799 39.678 93.4799H83.7437C89.5872 93.4799 95.1913 91.1725 99.3233 87.0655C103.455 82.9585 105.777 77.3881 105.777 71.5799V60.6299C105.777 54.8217 103.455 49.2513 99.3233 45.1443C95.1913 41.0373 89.5872 38.7299 83.7437 38.7299M39.678 38.7299H83.7437M39.678 38.7299V27.78C39.678 21.9717 41.9993 16.4014 46.1313 12.2944C50.2632 8.18732 55.8674 5.88 61.7109 5.88C67.5543 5.88 73.1585 8.18732 77.2904 12.2944C81.4224 16.4014 83.7437 21.9717 83.7437 27.78V38.7299M61.7109 126.231L51.2337 122.847M61.7109 126.231L55.2357 135.09M61.7109 126.231L68.186 135.09M61.7109 126.231L72.188 122.847M61.7109 126.231V115.281M17.6451 126.231L7.16797 122.847M17.6451 126.231L11.17 135.09M17.6451 126.231L24.1203 135.09M17.6451 126.231L28.1223 122.847M17.6451 126.231V115.281M105.777 126.231L95.2994 122.847M105.777 126.231L99.3014 135.09M105.777 126.231L112.252 135.09M105.777 126.231L116.254 122.847M105.777 126.231V115.281" stroke="#006838" stroke-width="10" stroke-miterlimit="10" stroke-linecap="round" stroke-linejoin="round"/>
<path d="M61.7107 60.6299V71.5799" stroke="#F2C94C" stroke-width="10" stroke-miterlimit="10" stroke-linecap="round" stroke-linejoin="round"/>
</svg>
