<svg width="48" height="42" viewBox="0 0 48 42" fill="none" xmlns="http://www.w3.org/2000/svg">
<g filter="url(#filter0_d_1072_2295)">
<path d="M19.8169 25.147L19.0249 25.1026V25.8958V25.8969V25.8981V25.8992V25.9004V25.9015V25.9027V25.9038V25.9049V25.9061V25.9072V25.9084V25.9095V25.9106V25.9118V25.9129V25.9141V25.9152V25.9164V25.9175V25.9186V25.9198V25.9209V25.9221V25.9232V25.9243V25.9255V25.9266V25.9278V25.9289V25.9301V25.9312V25.9323V25.9335V25.9346V25.9358V25.9369V25.938V25.9392V25.9403V25.9415V25.9426V25.9438V25.9449V25.946V25.9472V25.9483V25.9495V25.9506V25.9517V25.9529V25.954V25.9552V25.9563V25.9575V25.9586V25.9597V25.9609V25.962V25.9632V25.9643V25.9655V25.9666V25.9677V25.9689V25.97V25.9712V25.9723V25.9734V25.9746V25.9757V25.9769V25.978V25.9792V25.9803V25.9814V25.9826V25.9837V25.9849V25.986V25.9871V25.9883V25.9894V25.9906V25.9917V25.9929V25.994V25.9951V25.9963V25.9974V25.9986V25.9997V26.0008V26.002V26.0031V26.0043V26.0054V26.0066V26.0077V26.0088V26.01V26.0111V26.0123V26.0134V26.0145V26.0157V26.0168V26.018V26.0191V26.0203V26.0214V26.0225V26.0237V26.0248V26.026V26.0271V26.0282V26.0294V26.0305V26.0317V26.0328V26.034V26.0351V26.0362V26.0374V26.0385V26.0397V26.0408V26.0419V26.0431V26.0442V26.0454V26.0465V26.0477V26.0488V26.0499V26.0511V26.0522V26.0534V26.0545V26.0556V26.0568V26.0579V26.0591V26.0602V26.0614V26.0625V26.0636V26.0648V26.0659V26.0671V26.0682V26.0694V26.0705V26.0716V26.0728V26.0739V26.0751V26.0762V26.0773V26.0785V26.0796V26.0808V26.0819V26.0831V26.0842V26.0853V26.0865V26.0876V26.0888V26.0899V26.091V26.0922V26.0933V26.0945V26.0956V26.0968V26.0979V26.099V26.1002V26.1013V26.1025V26.1036V26.1047V26.1059V26.107V26.1082V26.1093V26.1105V26.1116V26.1127V26.1139V26.115V26.1162V26.1173V26.1184V26.1196V26.1207V26.1219V26.123V26.1242V26.1253V26.1264V26.1276V26.1287V26.1299V26.131V26.1321V26.1333V26.1344V26.1356V26.1367V26.1379V26.139V26.1401V26.1413V26.1424V26.1436V26.1447V26.1458V26.147V26.1481V26.1493V26.1504V26.1516V26.1527V26.1538V26.155V26.1561V26.1573V26.1584V26.1595V26.1607V26.1618V26.163V26.1641V26.1653V26.1664V26.1675V26.1687V26.1698V26.171V26.1721V26.1732V26.1744V26.1755V26.1767V26.1778V26.179V26.1801V26.1812V26.1824V26.1835V26.1847V26.1858V26.1869V26.1881V26.1892V26.1904V26.1915V26.1927V26.1938V26.1949V26.1961V26.1972V26.1984V26.1995V26.2007V26.2018V26.2029V26.2041V26.2052V26.2064V26.2075V26.2086V26.2098V26.2109V26.2121V26.2132V26.2144V26.2155V26.2166V26.2178V26.2189V26.2201V26.2212V26.2223V26.2235V26.2246V26.2258V26.2269V26.2281V26.2292V26.2303V26.2315V26.2326V26.2338V26.2349V26.236V26.2372V26.2383V26.2395V26.2406V26.2418V26.2429V26.244V26.2452V26.2463V26.2475V26.2486V26.2497V26.25H17.0492C17.0493 25.3204 17.0498 24.3932 17.0559 23.4671C17.2883 23.7274 17.5863 23.9387 17.9623 24.0566L18.0118 24.0722L18.063 24.0807C19.1066 24.2552 20.1256 24.4077 21.1625 24.5594L21.9145 24.6694L22.0146 23.9161C22.0431 23.7013 22.0528 23.4328 22.0047 23.2067L21.9775 23.0786L21.9085 22.9674C21.6971 22.6265 21.3982 22.2976 20.992 22.0891L20.9005 22.0422L20.7999 22.0216C20.1808 21.895 19.5113 21.7908 18.8605 21.6895C18.4104 21.6194 17.9693 21.5507 17.5601 21.477L17.11 21.396C17.1722 20.9294 17.2993 20.631 17.4106 20.4431C17.5262 20.2481 17.6072 20.1742 17.7047 20.0853C17.7513 20.0429 17.8016 19.9971 17.8612 19.933L18.4846 19.2629H18.9923H31.0077H31.4009L32.1511 19.9685C32.1866 20.0018 32.2206 20.0313 32.254 20.0602C32.3646 20.1559 32.4676 20.245 32.5886 20.4467C32.7005 20.6332 32.828 20.9306 32.8902 21.3976L32.4426 21.4766C32.0326 21.5489 31.6009 21.6155 31.1633 21.6831C30.4961 21.786 29.8153 21.8911 29.1771 22.0216L29.0764 22.0422L28.985 22.0891C28.5573 22.3086 28.2844 22.6563 28.0915 22.9674L28.0612 23.0162L28.0387 23.0691C27.9649 23.2426 27.9465 23.416 27.942 23.5382C27.9372 23.6698 27.947 23.8001 27.9624 23.9161L28.0625 24.6694L28.8145 24.5594L28.8192 24.5587C29.8518 24.4076 30.8951 24.255 31.9167 24.0803L31.9665 24.0718L32.0147 24.0566C32.3976 23.9366 32.6995 23.7197 32.9337 23.4528C32.9354 23.706 32.9374 23.9589 32.9393 24.2114L32.9393 24.2127C32.9445 24.8938 32.9496 25.5722 32.9506 26.25H30.9751V26.2497V26.2486V26.2475V26.2463V26.2452V26.244V26.2429V26.2418V26.2406V26.2395V26.2383V26.2372V26.236V26.2349V26.2338V26.2326V26.2315V26.2303V26.2292V26.2281V26.2269V26.2258V26.2246V26.2235V26.2223V26.2212V26.2201V26.2189V26.2178V26.2166V26.2155V26.2144V26.2132V26.2121V26.2109V26.2098V26.2086V26.2075V26.2064V26.2052V26.2041V26.2029V26.2018V26.2007V26.1995V26.1984V26.1972V26.1961V26.1949V26.1938V26.1927V26.1915V26.1904V26.1892V26.1881V26.1869V26.1858V26.1847V26.1835V26.1824V26.1812V26.1801V26.179V26.1778V26.1767V26.1755V26.1744V26.1732V26.1721V26.171V26.1698V26.1687V26.1675V26.1664V26.1653V26.1641V26.163V26.1618V26.1607V26.1595V26.1584V26.1573V26.1561V26.155V26.1538V26.1527V26.1516V26.1504V26.1493V26.1481V26.147V26.1458V26.1447V26.1436V26.1424V26.1413V26.1401V26.139V26.1379V26.1367V26.1356V26.1344V26.1333V26.1321V26.131V26.1299V26.1287V26.1276V26.1264V26.1253V26.1242V26.123V26.1219V26.1207V26.1196V26.1184V26.1173V26.1162V26.115V26.1139V26.1127V26.1116V26.1105V26.1093V26.1082V26.107V26.1059V26.1047V26.1036V26.1025V26.1013V26.1002V26.099V26.0979V26.0968V26.0956V26.0945V26.0933V26.0922V26.091V26.0899V26.0888V26.0876V26.0865V26.0853V26.0842V26.0831V26.0819V26.0808V26.0796V26.0785V26.0773V26.0762V26.0751V26.0739V26.0728V26.0716V26.0705V26.0694V26.0682V26.0671V26.0659V26.0648V26.0636V26.0625V26.0614V26.0602V26.0591V26.0579V26.0568V26.0556V26.0545V26.0534V26.0522V26.0511V26.0499V26.0488V26.0477V26.0465V26.0454V26.0442V26.0431V26.0419V26.0408V26.0397V26.0385V26.0374V26.0362V26.0351V26.034V26.0328V26.0317V26.0305V26.0294V26.0282V26.0271V26.026V26.0248V26.0237V26.0225V26.0214V26.0203V26.0191V26.018V26.0168V26.0157V26.0145V26.0134V26.0123V26.0111V26.01V26.0088V26.0077V26.0066V26.0054V26.0043V26.0031V26.002V26.0008V25.9997V25.9986V25.9974V25.9963V25.9951V25.994V25.9929V25.9917V25.9906V25.9894V25.9883V25.9871V25.986V25.9849V25.9837V25.9826V25.9814V25.9803V25.9792V25.978V25.9769V25.9757V25.9746V25.9734V25.9723V25.9712V25.97V25.9689V25.9677V25.9666V25.9655V25.9643V25.9632V25.962V25.9609V25.9597V25.9586V25.9575V25.9563V25.9552V25.954V25.9529V25.9517V25.9506V25.9495V25.9483V25.9472V25.946V25.9449V25.9438V25.9426V25.9415V25.9403V25.9392V25.938V25.9369V25.9358V25.9346V25.9335V25.9323V25.9312V25.9301V25.9289V25.9278V25.9266V25.9255V25.9243V25.9232V25.9221V25.9209V25.9198V25.9186V25.9175V25.9164V25.9152V25.9141V25.9129V25.9118V25.9106V25.9095V25.9084V25.9072V25.9061V25.9049V25.9038V25.9027V25.9015V25.9004V25.8992V25.8981V25.8969V25.8958V25.1029L30.1834 25.147C26.7123 25.3403 23.2646 25.3403 19.8169 25.147Z" stroke="#F2C94C" stroke-width="1.5" shape-rendering="crispEdges"/>
</g>
<defs>
<filter id="filter0_d_1072_2295" x="0" y="0" width="48" height="42" filterUnits="userSpaceOnUse" color-interpolation-filters="sRGB">
<feFlood flood-opacity="0" result="BackgroundImageFix"/>
<feColorMatrix in="SourceAlpha" type="matrix" values="0 0 0 0 0 0 0 0 0 0 0 0 0 0 0 0 0 0 127 0" result="hardAlpha"/>
<feOffset dx="-1"/>
<feGaussianBlur stdDeviation="7.5"/>
<feComposite in2="hardAlpha" operator="out"/>
<feColorMatrix type="matrix" values="0 0 0 0 1 0 0 0 0 1 0 0 0 0 1 0 0 0 0.53 0"/>
<feBlend mode="normal" in2="BackgroundImageFix" result="effect1_dropShadow_1072_2295"/>
<feBlend mode="normal" in="SourceGraphic" in2="effect1_dropShadow_1072_2295" result="shape"/>
</filter>
</defs>
</svg>
