<svg width="20" height="20" viewBox="0 0 20 20" fill="none" xmlns="http://www.w3.org/2000/svg">
<path d="M14.1667 6.66683H15.8333C16.7538 6.66683 17.5 7.41302 17.5 8.3335V13.3335C17.5 14.254 16.7538 15.0002 15.8333 15.0002H14.1667V18.3335L10.8333 15.0002H7.5C7.03976 15.0002 6.6231 14.8136 6.32149 14.512M6.32149 14.512L9.16667 11.6668H12.5C13.4205 11.6668 14.1667 10.9206 14.1667 10.0002V5.00016C14.1667 4.07969 13.4205 3.3335 12.5 3.3335H4.16667C3.24619 3.3335 2.5 4.07969 2.5 5.00016V10.0002C2.5 10.9206 3.24619 11.6668 4.16667 11.6668H5.83333V15.0002L6.32149 14.512Z" stroke="#F2C94C" stroke-width="1.5" stroke-linecap="round" stroke-linejoin="round"/>
</svg>
