<svg width="20" height="20" viewBox="0 0 20 20" fill="none" xmlns="http://www.w3.org/2000/svg">
<path d="M6.66634 5.83333V12.5C6.66634 13.4205 7.41253 14.1667 8.33301 14.1667H13.333M6.66634 5.83333V4.16667C6.66634 3.24619 7.41253 2.5 8.33301 2.5H12.1545C12.3755 2.5 12.5875 2.5878 12.7438 2.74408L16.4223 6.42259C16.5785 6.57887 16.6663 6.79083 16.6663 7.01184V12.5C16.6663 13.4205 15.9201 14.1667 14.9997 14.1667H13.333M6.66634 5.83333H5.33301C4.22844 5.83333 3.33301 6.72876 3.33301 7.83333V15.8333C3.33301 16.7538 4.0792 17.5 4.99967 17.5H11.333C12.4376 17.5 13.333 16.6046 13.333 15.5V14.1667" stroke="#F2C94C" stroke-width="1.5" stroke-linecap="round" stroke-linejoin="round"/>
</svg>
