<svg width="88" height="61" viewBox="0 0 88 61" fill="none" xmlns="http://www.w3.org/2000/svg">
<path d="M50.9455 47.1152L48.3834 53.9908H49.4322C50.2747 53.9908 51.0243 53.458 51.3022 52.6633L52.1845 50.1348C52.3058 49.787 52.7987 49.787 52.92 50.1348L54.9829 56.0493C55.0183 56.152 54.9422 56.2591 54.8343 56.2591H47.54L45.7736 61.0001C47.3418 61.0001 48.7392 60.0106 49.2605 58.5318L49.4366 58.0317H58.0008C58.1106 58.0317 58.1867 57.922 58.1486 57.8193L54.1785 47.1161C54.1218 46.963 53.9758 46.8621 53.813 46.8621H51.3093C51.1473 46.8612 51.0022 46.9621 50.9455 47.1152Z" fill="url(#paint0_linear_1466_13369)"/>
<path d="M79.3392 48.8444C79.7047 48.532 80.1844 48.3745 80.7649 48.3745C81.4305 48.3745 81.9668 48.5621 82.3606 48.9329C82.6491 49.2046 82.8571 49.5356 82.981 49.9188C83.0217 50.0463 83.1376 50.1339 83.2713 50.1339H85.659C85.5015 49.1073 85.028 48.2674 84.2492 47.6355C83.3987 46.9452 82.2332 46.5956 80.7853 46.5956C79.3905 46.5956 78.2586 46.9355 77.4214 47.6063C76.6355 48.2364 76.2302 49.0648 76.1877 50.1348H78.7737C78.7923 49.5825 78.9825 49.1489 79.3392 48.8444Z" fill="url(#paint1_linear_1466_13369)"/>
<path d="M82.1828 60.7124C82.85 60.6434 83.4386 60.4788 83.9342 60.2221C84.6059 59.8734 85.1192 59.4061 85.459 58.8335C85.7998 58.2592 85.9724 57.622 85.9724 56.9405C85.9724 56.0776 85.783 55.3749 85.4086 54.851C85.0289 54.3191 84.5643 53.9147 84.0289 53.6501C83.4651 53.3722 82.7217 53.0695 81.8199 52.7509C81.488 52.6429 81.1818 52.5358 80.9075 52.4323C80.7508 52.373 80.5853 52.3429 80.4172 52.3429H76.7285C77.1037 52.8686 77.5657 53.2739 78.0993 53.5474C78.6542 53.8315 79.3782 54.1226 80.2517 54.4138C80.9429 54.6439 81.4942 54.851 81.8916 55.0289C82.3111 55.2165 82.6642 55.4714 82.9412 55.7847C83.235 56.1175 83.3837 56.5405 83.3837 57.0414C83.3837 57.6025 83.2005 58.0689 82.8403 58.43L82.835 58.4353C82.4173 58.8512 82.1819 59.4168 82.1819 60.0071V60.7124H82.1828Z" fill="url(#paint2_linear_1466_13369)"/>
<path d="M68.97 54.905C70.0709 54.6678 70.9205 54.1925 71.4958 53.4934C72.0728 52.796 72.3657 51.9136 72.3657 50.8711C72.3657 49.5923 71.9418 48.5497 71.1046 47.7727C70.2639 46.9912 69.0116 46.5956 67.3832 46.5956H62.0519V46.6098C62.0519 47.7037 62.9387 48.5904 64.0325 48.5904H67.1362C68.0513 48.5904 68.7434 48.8108 69.1903 49.2462C69.6426 49.6825 69.8718 50.2923 69.8718 51.0587C69.8718 52.3677 69.2284 53.1872 68.0106 53.4288C67.7938 53.4713 67.5531 53.496 67.2964 53.5031C67.2451 53.5058 67.1902 53.5058 67.1354 53.5058H66.7504V56.0466L69.562 60.7345H72.2374L68.6443 54.9767L68.97 54.905Z" fill="url(#paint3_linear_1466_13369)"/>
<path d="M62.0506 60.7318H64.5021V55.4819C64.5021 54.3881 63.6153 53.5013 62.5214 53.5013H62.0506V60.7318Z" fill="url(#paint4_linear_1466_13369)"/>
<path d="M83.3899 39.3811L73.7734 39.4324C73.3654 39.4342 72.9681 39.3705 72.8928 39.2881L72.2335 38.5686C72.1415 38.4677 72.4539 38.389 72.9256 38.3952L83.7819 38.5288C84.0917 38.5324 84.3068 38.6014 84.2652 38.6802L83.9607 39.2572C83.9262 39.3244 83.6713 39.3793 83.3899 39.3811ZM72.9663 38.4439C72.6202 38.4403 72.391 38.4978 72.4565 38.5713L73.0946 39.2881C73.1486 39.3492 73.4406 39.3961 73.7433 39.3952L83.4049 39.3501C83.6138 39.3492 83.8023 39.3085 83.828 39.2581L84.1236 38.6793C84.1537 38.6209 83.9935 38.5704 83.7651 38.5678L72.9663 38.4439Z" fill="url(#paint5_linear_1466_13369)"/>
<path d="M84.1253 38.8138L72.4981 38.7386L72.4574 38.6934L84.1439 38.7775L84.1253 38.8138Z" fill="url(#paint6_linear_1466_13369)"/>
<path d="M84.0227 39.0112L72.7202 38.9855L72.6822 38.9421L84.0404 38.9767L84.0227 39.0112Z" fill="url(#paint7_linear_1466_13369)"/>
<path d="M83.9253 39.1988L72.93 39.2173L72.8937 39.1766L83.9421 39.166L83.9253 39.1988Z" fill="url(#paint8_linear_1466_13369)"/>
<path d="M75.0239 39.4076L74.8389 39.4085L74.3813 38.7288L74.5849 38.7306L75.0239 39.4076Z" fill="url(#paint9_linear_1466_13369)"/>
<path d="M76.4329 39.4006L76.2568 39.4015L75.9364 38.7395L76.1293 38.7413L76.4329 39.4006Z" fill="url(#paint10_linear_1466_13369)"/>
<path d="M77.7736 39.3935L77.6064 39.3944L77.4099 38.7501L77.5922 38.751L77.7736 39.3935Z" fill="url(#paint11_linear_1466_13369)"/>
<path d="M79.0516 39.3873L78.8923 39.3882L78.8073 38.759L78.9808 38.7607L79.0516 39.3873Z" fill="url(#paint12_linear_1466_13369)"/>
<path d="M80.2711 39.3811L80.118 39.382L80.1357 38.7678L80.3004 38.7696L80.2711 39.3811Z" fill="url(#paint13_linear_1466_13369)"/>
<path d="M81.4349 39.3749L81.2889 39.3758L81.3986 38.7767L81.5562 38.7776L81.4349 39.3749Z" fill="url(#paint14_linear_1466_13369)"/>
<path d="M82.5483 39.3696L82.4084 39.3705L82.6023 38.7846L82.7518 38.7864L82.5483 39.3696Z" fill="url(#paint15_linear_1466_13369)"/>
<path d="M83.7128 38.3854L69.751 38.1845C69.0819 38.1748 68.696 37.9889 68.9013 37.773L70.4023 36.1994C70.5776 36.0153 71.2006 35.8967 71.782 35.9304L84.2403 36.6517C84.5722 36.6711 84.8067 36.7986 84.7686 36.9384L84.4456 38.1093C84.4005 38.2659 84.0748 38.3907 83.7128 38.3854ZM71.705 36.0145C71.274 35.9906 70.8165 36.0791 70.6891 36.2145L69.2182 37.78C69.0695 37.9376 69.3527 38.0747 69.8421 38.0827L83.7358 38.3093C84.0031 38.3137 84.2447 38.2217 84.2775 38.1057L84.6102 36.9304C84.6394 36.8269 84.4651 36.7322 84.219 36.718L71.705 36.0145Z" fill="url(#paint16_linear_1466_13369)"/>
<path d="M84.6199 37.1809L70.2377 36.5322L70.3235 36.4428L84.6394 37.1128L84.6199 37.1809Z" fill="url(#paint17_linear_1466_13369)"/>
<path d="M84.5111 37.5712L69.7466 37.0526L69.8351 36.9579L84.5306 37.5004L84.5111 37.5712Z" fill="url(#paint18_linear_1466_13369)"/>
<path d="M84.3979 37.9756L69.2307 37.5968L69.3245 37.4986L84.4183 37.9022L84.3979 37.9756Z" fill="url(#paint19_linear_1466_13369)"/>
<path d="M71.8139 38.165L71.5228 38.1605L72.8087 36.6038L73.0742 36.6153L71.8139 38.165Z" fill="url(#paint20_linear_1466_13369)"/>
<path d="M73.9884 38.1978L73.7202 38.1942L74.8167 36.6959L75.0619 36.7074L73.9884 38.1978Z" fill="url(#paint21_linear_1466_13369)"/>
<path d="M75.9894 38.2288L75.7425 38.2252L76.6726 36.7809L76.9001 36.7915L75.9894 38.2288Z" fill="url(#paint22_linear_1466_13369)"/>
<path d="M77.8372 38.2571L77.6089 38.2535L78.3957 36.8605L78.6063 36.8703L77.8372 38.2571Z" fill="url(#paint23_linear_1466_13369)"/>
<path d="M79.548 38.2836L79.3365 38.2801L79.9976 36.934L80.1941 36.9428L79.548 38.2836Z" fill="url(#paint24_linear_1466_13369)"/>
<path d="M81.1384 38.3075L80.9419 38.3048L81.4915 37.003L81.6747 37.011L81.1384 38.3075Z" fill="url(#paint25_linear_1466_13369)"/>
<path d="M82.6189 38.3305L82.4357 38.3278L82.888 37.0667L83.0597 37.0747L82.6189 38.3305Z" fill="url(#paint26_linear_1466_13369)"/>
<path d="M70.5094 23.7687H70.5191C70.5218 23.7669 70.5236 23.7651 70.5253 23.7634C70.5262 23.7625 70.5271 23.7616 70.5289 23.7598L70.5094 23.7687ZM70.5094 23.7687H70.5191C70.5218 23.7669 70.5236 23.7651 70.5253 23.7634C70.5262 23.7625 70.5271 23.7616 70.5289 23.7598L70.5094 23.7687ZM70.5094 23.7687H70.5191C70.5218 23.7669 70.5236 23.7651 70.5253 23.7634C70.5262 23.7625 70.5271 23.7616 70.5289 23.7598L70.5094 23.7687ZM70.5094 23.7687H70.5191C70.5218 23.7669 70.5236 23.7651 70.5253 23.7634C70.5262 23.7625 70.5271 23.7616 70.5289 23.7598L70.5094 23.7687ZM70.5094 23.7687H70.5191C70.5218 23.7669 70.5236 23.7651 70.5253 23.7634C70.5262 23.7625 70.5271 23.7616 70.5289 23.7598L70.5094 23.7687ZM70.5094 23.7687H70.5191C70.5218 23.7669 70.5236 23.7651 70.5253 23.7634C70.5262 23.7625 70.5271 23.7616 70.5289 23.7598L70.5094 23.7687ZM70.5094 23.7687H70.5191C70.5218 23.7669 70.5236 23.7651 70.5253 23.7634C70.5262 23.7625 70.5271 23.7616 70.5289 23.7598L70.5094 23.7687ZM70.5094 23.7687H70.5191C70.5218 23.7669 70.5236 23.7651 70.5253 23.7634C70.5262 23.7625 70.5271 23.7616 70.5289 23.7598L70.5094 23.7687ZM86.9334 41.3228L66.6092 41.0387L66.4676 41.2431L66.3472 41.4166H66.3446L66.1074 41.7644H53.8279L53.3314 43.3211C53.3314 43.3211 53.3385 43.3211 53.3518 43.3211H66.6375C67.0163 43.3211 67.2977 42.483 67.2977 42.483C67.2977 42.483 83.6668 42.483 84.2173 42.483C84.7651 42.483 84.8324 43.2663 84.8324 43.2663H87.452V41.3299L86.9334 41.3228ZM70.5094 23.7687H70.5191C70.5218 23.7669 70.5236 23.7651 70.5253 23.7634C70.5262 23.7625 70.5271 23.7616 70.5289 23.7598L70.5094 23.7687Z" fill="url(#paint27_linear_1466_13369)"/>
<path d="M85.9502 40.2776V33.9321H86.7777C86.7202 33.9277 86.6591 33.7241 86.5981 33.3843C86.4989 32.8356 86.4016 31.9329 86.3131 30.9549C86.1476 29.1292 86.0166 27.0388 85.983 26.498C85.9777 26.4113 85.975 26.3644 85.975 26.3644C84.7404 24.9395 82.8368 23.0297 80.2437 21.465C78.2693 20.2791 75.4779 19.0383 67.1739 18.5064C59.0301 17.9851 53.0625 18.6232 53.0625 18.9047C53.0625 19.033 54.2617 18.9171 55.9458 19.5091C56.3167 19.6383 56.7114 19.8038 57.122 20.0136C58.2946 20.6127 59.2115 21.3482 59.877 21.981C58.5416 21.1075 57.3866 20.6127 56.5521 20.3145C55.8644 20.0693 55.1086 19.8578 54.4404 19.6914C53.3908 19.4295 52.5607 19.2773 52.5607 19.2773L47.41 19.4295L36.0199 19.7631L31.0887 13.7911L30.2886 12.8229C32.4489 12.4937 35.3774 12.2937 38.782 12.7981H38.7829C39.0891 12.8441 39.398 12.8946 39.7113 12.9512C40.1918 13.0397 40.6812 13.1415 41.1777 13.2592C41.8822 13.4256 42.6044 13.6247 43.338 13.8601C46.3984 14.8398 48.9516 16.2107 50.9553 17.5223C50.9562 17.5223 50.9562 17.5241 50.9579 17.5241C51.0916 17.6126 51.2226 17.6993 51.3509 17.786C50.3429 16.6275 48.7658 15.0443 46.6055 13.746C45.0691 12.822 43.6 12.2618 42.2052 11.914C42.1353 11.8963 42.0663 11.8786 41.9972 11.8627C41.9203 11.845 41.8424 11.8273 41.7654 11.8105C41.6893 11.7928 41.6123 11.7759 41.5362 11.7609C41.4645 11.7458 41.3928 11.7308 41.3211 11.7166C41.3167 11.7158 41.3114 11.7158 41.3078 11.714C41.2229 11.6972 41.1379 11.6821 41.0538 11.6671C41.0264 11.6618 40.9981 11.6573 40.9706 11.652C40.9069 11.6405 40.8441 11.6299 40.7804 11.6193C40.6945 11.6051 40.6104 11.591 40.5264 11.5786C40.3927 11.5582 40.26 11.5405 40.129 11.5219C40.0007 11.5042 39.8741 11.4892 39.7484 11.4742C39.5776 11.4547 39.4077 11.437 39.2396 11.4202C39.1325 11.4104 39.0263 11.4007 38.9201 11.391C38.7652 11.3786 38.6121 11.3662 38.4599 11.3556C37.3315 11.275 36.1385 11.2396 34.911 11.2396H34.9101C34.7234 11.2396 34.5375 11.2405 34.3499 11.2423H34.3287C34.2835 11.2423 34.2393 11.244 34.1941 11.244C34.1039 11.2449 34.0136 11.2467 33.9233 11.2476C33.4808 11.2538 33.0339 11.2644 32.5852 11.2786C32.5595 11.2794 32.533 11.2794 32.5064 11.2812C32.2684 11.2892 32.0285 11.2971 31.7869 11.3087C31.7595 11.3087 31.7303 11.3095 31.7028 11.3113H31.6958C31.6639 11.3131 31.6338 11.314 31.602 11.3157C31.4019 11.3255 31.2019 11.3343 31.0019 11.3441C30.9232 11.3485 30.8435 11.3511 30.7647 11.3564C30.6125 11.3653 30.4612 11.3733 30.3081 11.3812C30.0762 11.3954 29.8461 11.4095 29.6142 11.4246C29.5797 11.4255 29.5434 11.4281 29.5098 11.4317C29.3178 11.4441 29.1257 11.4565 28.9354 11.4697C28.931 11.4715 28.9275 11.4715 28.923 11.4715C27.8265 11.5485 26.7397 11.6423 25.683 11.7441C20.1057 12.2866 15.3789 13.0919 14.4355 13.2566L15.3594 13.2592L17.9251 13.2663C18.9127 13.2548 20.1429 13.2539 21.5686 13.2751C21.6509 13.2769 21.7341 13.2787 21.8164 13.2796C22.5085 13.2911 23.2466 13.3088 24.0236 13.3336C29.3505 13.5044 34.0596 19.8755 34.0596 19.8755L34.0269 19.8746L19.9969 19.5357H16.3267C16.0674 19.8746 15.8187 20.2207 15.5833 20.5764C15.255 21.0632 14.9497 21.5668 14.6682 22.0845C14.616 22.1827 14.5612 22.2801 14.5098 22.381C14.4903 22.4155 14.4726 22.4509 14.4558 22.4854C13.3044 24.7174 12.569 27.1963 12.3584 29.8177C12.3318 30.1451 12.3123 30.4708 12.3026 30.7956L12.3044 30.8434C12.3053 30.9124 12.307 30.9815 12.3097 31.0478L12.315 31.208L12.3247 31.3957C12.3274 31.4558 12.33 31.5098 12.3327 31.5638C12.3362 31.6107 12.3389 31.6461 12.3416 31.6824L12.3566 31.9045C12.3619 31.9718 12.3672 32.0391 12.3734 32.1072L12.3938 32.3169C12.4008 32.3886 12.4062 32.4515 12.415 32.5152L12.4159 32.5302C12.423 32.594 12.4309 32.6577 12.438 32.7223C12.4575 32.8683 12.4752 33.0064 12.4947 33.1453C12.5044 33.2117 12.5124 33.2772 12.5239 33.3418C12.5787 33.6949 12.6425 34.0409 12.7124 34.3764C12.7398 34.5047 12.7672 34.6339 12.7991 34.7622L12.8478 34.964C12.8796 35.0994 12.9142 35.2304 12.9487 35.3614C12.9841 35.4932 13.023 35.6242 13.0602 35.7552C13.0752 35.811 13.0894 35.8579 13.1044 35.9048L13.1788 36.1473C13.2752 36.4588 13.3867 36.78 13.508 37.1022C13.7992 37.8792 14.1425 38.6359 14.5328 39.3678L40.3352 40.0528C40.1184 38.9625 40.0042 37.8058 40.0042 36.6057C40.0042 30.1965 43.2964 24.9988 47.3577 24.9988C48.4817 24.9988 49.5464 25.398 50.4986 26.1095C51.1765 26.6157 51.7978 27.2821 52.3412 28.0751C53.7979 30.1956 54.7095 33.2329 54.7095 36.6057C54.7095 38.1987 54.5068 39.7156 54.136 41.0953H65.8703L66.3748 40.367L73.469 40.4661L82.7775 40.5962L86.5326 40.6484C86.3228 40.3369 85.9502 40.2776 85.9502 40.2776ZM19.2384 31.6143L21.7527 31.6735L26.784 31.816L31.8126 31.9913L33.0711 32.0391L33.6985 32.0647C33.9109 32.0736 34.1233 32.1072 34.326 32.1674C34.5304 32.2258 34.726 32.3169 34.9101 32.4143L35.4712 32.7002L36.5899 33.2736L35.4544 32.7329L34.888 32.4612C34.6986 32.3665 34.5101 32.2851 34.3083 32.2329C33.9101 32.1152 33.4879 32.1426 33.0684 32.1267L31.8099 32.0957L26.7796 31.9541L21.7501 31.7797L19.2358 31.6824L16.7223 31.5691L19.2384 31.6143ZM35.4686 33.7241L34.9013 33.4524C34.7128 33.3586 34.5234 33.2754 34.3225 33.2232C33.9233 33.1055 33.5012 33.1347 33.0817 33.117L31.8241 33.086L26.7937 32.9444L21.7642 32.771L19.249 32.6727L16.7365 32.5594L19.2526 32.6055L21.7669 32.6648L26.7973 32.8064L31.8267 32.9816L33.0843 33.0303L33.7127 33.055C33.9251 33.0648 34.1375 33.0984 34.3402 33.1586C34.5446 33.2179 34.7402 33.3073 34.9234 33.4055L35.4854 33.6905L36.604 34.2648L35.4686 33.7241ZM54.2493 28.4388C53.9935 27.9114 53.7085 27.4043 53.3864 26.9388C53.0297 26.414 52.6297 25.9369 52.1908 25.5272C52.1438 25.4803 52.0969 25.4351 52.0492 25.3909C51.3836 24.7661 50.6278 24.3103 49.8393 23.9961C49.6995 23.9395 49.5587 23.889 49.4171 23.8421C48.9136 23.6749 48.3976 23.5669 47.8799 23.52C47.3613 23.4633 46.8356 23.4678 46.3143 23.5341C47.3462 23.2695 48.4233 23.3102 49.4596 23.5908C49.5437 23.6138 49.6278 23.6386 49.7119 23.6669C50.6597 23.9704 51.5615 24.5138 52.3483 25.2599C52.7589 25.6652 53.1466 26.1104 53.4838 26.6175C53.4917 26.6299 53.4997 26.6423 53.5085 26.6547C53.8528 27.1671 54.1705 27.714 54.4227 28.3052C54.4334 28.33 54.4458 28.3565 54.4573 28.3831C54.7086 28.9415 54.9068 29.5363 55.0927 30.1301C55.1856 30.4452 55.2555 30.7664 55.3396 31.0832C55.4104 31.408 55.4724 31.7302 55.5343 32.055C55.2086 30.7894 54.7953 29.5584 54.2493 28.4388ZM70.4812 23.6722L70.4936 23.6607H70.5095C71.3343 23.5934 72.16 23.5616 72.9849 23.5191C73.8115 23.4846 74.6381 23.4633 75.4629 23.4501C76.2877 23.4377 77.1161 23.4262 77.9427 23.4448C78.7693 23.4501 79.5968 23.4678 80.4216 23.5147C79.5968 23.5934 78.7719 23.6448 77.9453 23.6846C77.1196 23.7342 76.2939 23.7572 75.4682 23.7784C74.6434 23.7979 73.8141 23.8085 72.9875 23.8085C72.1662 23.8014 71.3441 23.8014 70.5192 23.7687C70.2936 23.9589 70.0661 24.1536 69.8387 24.3413C70.0511 24.1138 70.2661 23.8917 70.4812 23.6722ZM56.9521 26.6202C56.6025 26.5609 56.4945 25.9812 56.7892 25.7272L59.1566 23.6917C59.2965 23.5695 59.4673 23.5191 59.6337 23.5421L69.1749 24.828L68.6041 25.621L67.7341 26.8334L62.7639 26.406L62.7117 27.3618C62.7029 27.4919 62.6108 27.5857 62.5091 27.5707L57.5362 26.7193L56.9521 26.6202ZM62.6082 34.1595L62.6586 34.3268L63.9498 38.5421C64.1215 38.5368 64.2773 38.5377 64.4189 38.5447C65.6083 38.6093 65.7845 39.1103 65.7845 39.1103H61.6232L60.1443 33.2489L68.8315 33.7613L62.6082 34.1595ZM84.9086 37.3102L84.8794 37.4013L84.4174 38.8802C84.2758 39.3271 83.9333 39.6218 83.5554 39.6218H72.9539C72.8654 39.6218 72.7751 39.5767 72.7105 39.5023L71.8291 38.4757C71.7715 38.4067 71.6945 38.3669 71.6158 38.3669L69.5218 38.3049L68.1448 38.2651C68.0722 38.2607 68.0377 38.1429 68.0926 38.081L70.1768 35.7295C70.2608 35.6357 70.3688 35.5862 70.4785 35.5924L84.4758 36.449C84.8148 36.4729 85.036 36.9101 84.9086 37.3102ZM80.4561 31.6983H72.2096C71.9246 31.6983 71.76 31.6983 71.76 31.6983L70.9219 29.1168L73.5752 25.8086H81.6641L85.167 27.3025L85.2643 27.991L85.8954 32.4231C85.8954 32.4231 82.6385 31.6983 80.4561 31.6983ZM14.7629 39.7882C14.9258 40.0749 15.0957 40.3572 15.2727 40.636L21.8748 40.7033L40.3405 41.3874L40.6565 41.3838C40.5706 41.0856 40.4918 40.7794 40.4228 40.4687L14.7629 39.7882Z" fill="url(#paint28_linear_1466_13369)"/>
<path d="M70.5085 23.7681H70.5195C70.525 23.7645 70.5278 23.7608 70.5333 23.7581L70.5085 23.7681Z" fill="url(#paint29_linear_1466_13369)"/>
<path d="M14.3956 13.2557H14.4399H14.3956ZM42.9309 52.3898L41.9069 48.9993C41.7901 48.6143 41.4432 48.3763 41.0741 48.3692H41.0573C40.9095 48.3692 40.7591 48.4064 40.6201 48.486C40.4122 48.6064 40.2024 48.7205 39.9909 48.8294C39.9201 48.8666 39.8484 48.9029 39.7785 48.94C39.744 48.9577 39.7095 48.9745 39.6741 48.9922C39.6024 49.0294 39.5289 49.0657 39.4572 49.1002C39.359 49.1489 39.2599 49.1958 39.1616 49.2409C39.0386 49.2985 38.913 49.3551 38.7882 49.4109C38.6846 49.456 38.5828 49.5002 38.4793 49.5445C38.4722 49.5471 38.4669 49.5498 38.4598 49.5516C37.0828 50.1295 35.6676 50.5392 34.2401 50.7861C34.2056 50.7915 34.1729 50.7968 34.1392 50.803C28.2699 51.788 22.2058 50.0454 17.756 46.0673C17.825 46.1292 17.8914 46.1912 17.9604 46.2523C16.6364 45.0964 15.4665 43.7663 14.4912 42.2989C14.4292 42.2069 14.3682 42.1131 14.308 42.0193C14.2487 41.9272 14.1894 41.8334 14.131 41.7378C13.908 41.3768 13.6956 41.0068 13.4964 40.6298C13.1451 39.9687 12.83 39.2873 12.5575 38.5854C12.5477 38.5651 12.5398 38.543 12.5309 38.5208C12.5044 38.4562 12.4796 38.3899 12.4548 38.3235C12.3318 37.9996 12.2185 37.6712 12.1141 37.3376L12.0406 37.0977C12.0229 37.0455 12.0079 36.9915 11.9919 36.9367C11.953 36.8039 11.9149 36.6694 11.8787 36.5322C11.8415 36.3968 11.807 36.2605 11.7742 36.1251L11.7247 35.918C11.6928 35.7853 11.6636 35.6516 11.6353 35.518C11.5618 35.1693 11.4972 34.8162 11.4423 34.4613C11.4317 34.3914 11.4202 34.3206 11.4105 34.2507C11.3981 34.1595 11.3857 34.0701 11.3742 33.9808C11.3671 33.9294 11.36 33.8772 11.3538 33.8259C11.3459 33.7542 11.337 33.6834 11.3308 33.6117C11.3211 33.54 11.314 33.4683 11.3078 33.3966C11.3007 33.3267 11.2937 33.2542 11.2875 33.1825C11.2804 33.1037 11.2751 33.0241 11.268 32.9462C11.2636 32.8816 11.26 32.8152 11.2538 32.7506C11.2512 32.7108 11.2485 32.6692 11.2468 32.6276C11.2423 32.5665 11.2397 32.5072 11.2361 32.4479C11.2335 32.3833 11.2308 32.3196 11.2282 32.255C11.2264 32.2028 11.2237 32.1506 11.2229 32.0975C11.2202 32.0258 11.2176 31.9523 11.2158 31.8797C11.2158 31.8178 11.214 31.7567 11.2131 31.6948C11.2131 31.6116 11.2114 31.5293 11.2114 31.4452C11.2114 31.2284 11.2158 31.0124 11.222 30.7956L11.2202 30.662C11.2184 30.5806 11.2176 30.5009 11.2176 30.4195C11.2176 29.8938 11.2397 29.3619 11.2822 28.8362C11.3291 28.2379 11.4078 27.6459 11.5123 27.0582C11.6291 26.3847 11.7857 25.7219 11.9769 25.0679C11.9769 25.0652 11.9787 25.0634 11.9795 25.0608C12.3158 23.9094 12.7654 22.7863 13.3256 21.7004C13.3398 21.6712 13.3557 21.6429 13.3743 21.6066C13.4071 21.542 13.4416 21.4783 13.4761 21.4145L13.5256 21.3234C13.6646 21.0685 13.8097 20.8154 13.9602 20.5685C14.1744 20.2154 14.3992 19.8702 14.6346 19.5357C14.6983 19.4436 14.7629 19.3507 14.8293 19.2596C14.8965 19.1675 14.9656 19.0746 15.0346 18.9834C16.2426 17.378 17.6896 15.9815 19.3092 14.8381C19.3322 14.8204 19.357 14.8018 19.3809 14.7858C19.5021 14.6991 19.6402 14.6009 19.788 14.5C19.6419 14.4982 19.4968 14.4982 19.3516 14.4982C18.8729 14.4982 18.3967 14.5009 17.9409 14.5062H17.9259C17.9241 14.5062 17.9241 14.5062 17.9232 14.5062L15.3576 14.4991L14.4337 14.4964C13.7894 14.4947 13.254 14.0008 13.2009 13.3601C13.146 12.7185 13.5911 12.1423 14.2239 12.0317C15.5134 11.8087 20.1428 11.0343 25.5653 10.5077C26.7211 10.3962 27.7831 10.3059 28.8141 10.2334C28.8248 10.2334 28.8363 10.2316 28.8469 10.2307C29.0372 10.2166 29.2292 10.2042 29.4221 10.1918C29.4637 10.1891 29.5062 10.1865 29.5478 10.1838C29.7779 10.1688 30.0071 10.1564 30.2434 10.1413L30.6806 10.1183H30.6904C30.7479 10.1139 30.8072 10.1112 30.8665 10.1086L30.9435 10.1042L31.5488 10.075L31.5913 10.0732L31.6426 10.0705C31.6506 10.0705 31.6594 10.0688 31.6674 10.0688C31.6948 10.067 31.724 10.067 31.7533 10.0661C31.9878 10.0564 32.2196 10.0484 32.4497 10.0395H32.4568C32.4763 10.0378 32.4958 10.0378 32.5152 10.0369H32.5223C32.5321 10.0369 32.54 10.0369 32.5498 10.0351C33.0604 10.0201 33.5056 10.0103 33.9074 10.005L34.033 10.0033L34.1782 10.0006H34.2454C34.2746 9.99884 34.3021 9.99884 34.3313 9.99884H34.349C34.5384 9.99707 34.726 9.99618 34.9136 9.99618H34.9154C36.2146 9.99618 37.4385 10.036 38.5545 10.1148C38.697 10.1254 38.8404 10.1369 38.9846 10.1493L39.0236 10.1519C39.028 10.1519 39.0315 10.1519 39.036 10.1537L39.0607 10.1555L39.3546 10.1829H39.3652C39.5387 10.2006 39.7139 10.2192 39.8909 10.2396C39.8953 10.2396 39.898 10.2396 39.9015 10.2413L39.9263 10.244C40.0502 10.259 40.1776 10.2741 40.3015 10.2909L40.329 10.2953C40.4573 10.313 40.5856 10.3316 40.7166 10.3502C40.7936 10.3608 40.8697 10.3732 40.9485 10.3874L40.9812 10.3927C40.9856 10.3927 40.991 10.3944 40.9963 10.3944L41.1865 10.4272C41.1963 10.4298 41.2042 10.4316 41.214 10.4325L41.2281 10.4351C41.2361 10.4369 41.2432 10.4378 41.2511 10.4396L41.6308 8.8324L41.8733 7.80491L41.6432 7.58543C40.96 6.94026 40.5794 6.05702 40.5697 5.09944L40.5467 2.94357C40.5414 2.32141 40.1387 1.77536 39.5466 1.58508C38.1111 1.12311 36.6332 0.767333 35.1543 0.527496C35.0782 0.515991 34.9995 0.508911 34.9207 0.508911C34.3817 0.508911 33.8914 0.807158 33.6419 1.28595L32.6418 3.20641C32.0294 4.3817 30.8709 5.08351 29.5452 5.08351C29.254 5.08351 28.9655 5.04723 28.684 4.97908C28.4938 4.93218 28.307 4.86845 28.1291 4.7888L28.0999 4.77641C28.0805 4.76845 28.061 4.7596 28.03 4.74455C28.007 4.73482 27.9831 4.72243 27.9504 4.70561C27.353 4.41356 26.8521 3.94716 26.5016 3.35509L25.4007 1.501C25.2405 1.23108 24.9936 1.01691 24.7139 0.903624C24.6874 0.893004 24.6643 0.884154 24.6378 0.877074C24.4971 0.831939 24.3511 0.808043 24.2024 0.808043C24.0988 0.808043 23.9953 0.818664 23.8944 0.842559C23.1554 1.00363 22.4182 1.19391 21.7049 1.40542C20.9845 1.62048 20.265 1.86297 19.5623 2.12847C18.9791 2.35061 18.6047 2.9179 18.6321 3.54094L18.7259 5.69151C18.818 7.83057 17.1374 9.22269 15.4523 9.33331C15.4081 9.33597 15.3656 9.33862 15.3142 9.34039H15.262C15.2594 9.34039 15.185 9.34039 15.185 9.34039C14.5965 9.34039 14.0266 9.18906 13.4929 8.88904L11.6167 7.83411C11.4016 7.71287 11.1574 7.64915 10.9105 7.64915C10.6441 7.64915 10.3821 7.72349 10.1449 7.86951C10.1175 7.88721 10.0901 7.9058 10.0591 7.92704C10.0272 7.95182 9.99536 7.97925 9.96261 8.00846C8.85104 9.01914 7.80496 10.1272 6.85447 11.2998C6.46241 11.7812 6.42524 12.4574 6.75889 12.9813L7.91648 14.8009C8.9714 16.4576 8.38995 18.3241 7.26511 19.3144C7.24299 19.3348 7.21998 19.3542 7.20316 19.3684L7.12439 19.4321C7.08988 19.4596 7.05713 19.4861 7.01642 19.5153C6.43674 19.9445 5.73759 20.1746 4.99418 20.1826L2.8268 20.2092C2.49138 20.2136 2.16747 20.3348 1.9064 20.557C1.71612 20.7251 1.57363 20.9446 1.49221 21.1915C1.11697 22.3553 0.810757 23.5545 0.58154 24.7519C0.55853 24.8723 0.537289 24.9917 0.515164 25.1121L0.509854 25.1387C0.483304 25.2962 0.457639 25.4528 0.432859 25.6121C0.428434 25.6289 0.427549 25.6449 0.424894 25.6617C0.423124 25.6785 0.422239 25.6944 0.420469 25.7068L0.418698 25.729C0.382413 26.2962 0.685971 26.8326 1.19131 27.0963L1.66744 27.345L3.11 28.0963C3.37374 28.2326 3.61446 28.3999 3.82863 28.5902C4.51008 29.1955 4.92781 30.0469 4.98356 30.9903C4.98533 31.0266 4.98799 31.0602 4.98799 31.0965C4.99064 31.1664 4.99064 31.2372 4.98799 31.3071C4.9579 32.5293 4.33574 33.5887 3.27993 34.2153L1.42495 35.3162C0.962978 35.5906 0.692166 36.0942 0.720486 36.6393C0.723141 36.6623 0.724911 36.688 0.727566 36.7092C0.729336 36.7243 0.730221 36.7393 0.732876 36.7535V36.7774L0.749691 36.842C0.908107 37.5686 1.0975 38.3058 1.31256 39.0324C1.52761 39.7528 1.7701 40.4741 2.03649 41.175C2.21703 41.6511 2.63918 41.9945 3.13036 42.083C3.21444 42.098 3.29851 42.1069 3.38524 42.1069C3.4056 42.1069 3.42684 42.1069 3.44896 42.1051L5.59776 42.0113C5.65174 42.0087 5.70573 42.0069 5.75794 42.0069C6.47923 42.0069 7.16599 42.2219 7.74744 42.629L7.77399 42.6485C7.81116 42.6751 7.84745 42.7025 7.88461 42.7299L7.95542 42.7866C7.97577 42.8043 7.9979 42.8229 8.01737 42.8406L8.07224 42.8892L8.15366 42.9609C9.33868 44.0725 9.6148 45.8009 8.81299 47.2249L7.75894 49.1011C7.4545 49.6445 7.53238 50.3189 7.95188 50.78C8.45633 51.3313 8.99087 51.8756 9.53781 52.3924C10.0785 52.904 10.6511 53.4067 11.237 53.8837C11.3822 54.0005 11.5459 54.089 11.7202 54.143C11.8123 54.1722 11.9061 54.1917 12.0034 54.2005L12.0229 54.2023C12.053 54.2049 12.084 54.2049 12.1149 54.2049C12.3893 54.2049 12.6575 54.1279 12.8884 53.9801L14.7089 52.8199C15.2567 52.4712 15.8541 52.2862 16.486 52.2694C16.5232 52.2677 16.5595 52.2677 16.5949 52.2677H16.6621C17.4843 52.28 18.3242 52.6004 18.9667 53.1757C19.6357 53.7704 20.0951 54.6395 20.1074 55.7236L20.1322 57.8874C20.1402 58.5096 20.5429 59.0557 21.1367 59.245C21.2004 59.2654 21.2633 59.2849 21.327 59.3026C22.7049 59.73 24.1201 60.0601 25.5423 60.2849C25.6157 60.2955 25.6901 60.3017 25.7644 60.3017C25.9538 60.3017 26.1379 60.2655 26.3131 60.1938L26.3397 60.1814C26.6211 60.0486 26.8556 59.823 27.0008 59.5442L28.0008 57.6255C28.3345 56.9839 28.8398 56.4741 29.4655 56.1457C29.4956 56.1289 29.5248 56.1139 29.562 56.0962C29.6761 56.0387 29.7938 55.9873 29.9124 55.9449C30.3045 55.7997 30.7178 55.7271 31.1399 55.7271C32.0143 55.7271 32.8285 56.0431 33.4542 56.606C33.7188 56.8405 33.9498 57.1201 34.1383 57.4379L35.2393 59.292C35.3676 59.5097 35.5526 59.6867 35.7659 59.8079C35.9066 59.8876 36.0597 59.9442 36.2199 59.9752C36.3057 59.9902 36.3907 59.9991 36.4792 59.9991C36.5827 59.9991 36.6845 59.9885 36.7854 59.9663C38.2572 59.6477 39.7139 59.2158 41.1166 58.6804C41.5733 58.507 41.8999 58.1229 42.0087 57.6653C42.0388 57.537 42.0512 57.4033 42.0459 57.2671L41.9645 55.4811L41.9476 55.1076C41.9087 54.2377 42.1716 53.4279 42.7079 52.765C42.8034 52.6447 42.8769 52.5208 42.9309 52.3898ZM14.5239 14.846C14.5257 14.8478 14.5266 14.8487 14.5284 14.8487C14.516 14.8487 14.5036 14.8487 14.4921 14.8469C14.5018 14.8478 14.5124 14.8478 14.5239 14.846Z" fill="url(#paint30_linear_1466_13369)"/>
<path d="M14.5275 14.8486C14.5151 14.8486 14.5027 14.8486 14.4912 14.8469C14.5009 14.8469 14.5116 14.8469 14.5231 14.8451C14.5248 14.8477 14.5266 14.8486 14.5275 14.8486Z" fill="url(#paint31_linear_1466_13369)"/>
<path d="M48.256 27.0086C48.187 27.0086 48.1179 27.0095 48.0498 27.0139L47.7471 27.0387L46.8718 27.1113C43.654 27.1909 41.1361 30.9672 41.1343 35.6631C41.1335 40.3049 43.6363 44.2379 47.0276 44.2105C47.0887 44.2096 47.1488 44.2078 47.209 44.2043L47.4834 44.1822L47.4993 44.1804L48.3808 44.1078L48.8392 44.0707L48.8445 44.0698C51.981 43.6317 54.1271 39.7111 54.0882 35.5852C54.1484 31.2496 51.7597 27.0201 48.256 27.0086ZM47.9206 43.7494C48.025 43.7582 48.1303 43.7636 48.2365 43.7636C48.5135 43.7644 48.7852 43.7361 49.0507 43.6795C48.7038 43.868 48.3392 44.0096 47.9577 44.0999H47.9569C47.5639 44.0724 47.1851 43.9919 46.8214 43.8609C46.8214 43.8609 46.8205 43.8609 46.8196 43.8609C43.6902 43.7299 41.3618 39.8828 41.3742 35.6401C41.3857 31.5106 43.5212 28.0759 46.1886 27.5414C46.4541 27.4874 46.7258 27.4635 47.001 27.4697C47.0984 27.4679 47.1957 27.4706 47.2922 27.4777C50.1596 27.6626 52.6076 31.1973 52.5978 35.6834C52.589 39.7315 50.5667 43.098 47.9206 43.7494Z" fill="#3D3D3D"/>
<path d="M48.2365 43.7636C48.1303 43.7636 48.025 43.7583 47.9205 43.7494C47.6117 43.8264 47.2948 43.8654 46.9709 43.8645C46.9214 43.8645 46.8709 43.8636 46.8214 43.8609C47.1851 43.9919 47.5639 44.0724 47.9568 44.0999H47.9577C48.3391 44.0096 48.7038 43.868 49.0507 43.6795C48.7852 43.7361 48.5135 43.7645 48.2365 43.7636ZM47.4833 44.1822L47.209 44.2043C47.301 44.2008 47.3931 44.1928 47.4833 44.1822Z" fill="#3D3D3D"/>
<path d="M47.2922 27.4777C47.1958 27.4706 47.0984 27.4679 47.0011 27.4697C46.7258 27.4635 46.4541 27.4874 46.1886 27.5414C43.5212 28.0759 41.3857 31.5106 41.3742 35.6401C41.3618 39.8828 43.6903 43.7299 46.8196 43.8609C46.8205 43.8609 46.8214 43.8609 46.8214 43.8609C46.871 43.8636 46.9214 43.8645 46.971 43.8645C47.2949 43.8653 47.6117 43.8264 47.9206 43.7494C50.5668 43.098 52.589 39.7315 52.5979 35.6835C52.6076 31.1974 50.1597 27.6626 47.2922 27.4777ZM49.495 28.7114C50.4836 29.5052 51.2093 30.5593 51.7279 31.9877C51.6332 32.0434 51.558 32.108 51.4783 32.131C50.6623 32.3673 49.8446 32.5965 49.0277 32.8258C49.0091 32.8311 48.9861 32.809 48.926 32.7824C49.1118 31.4514 49.2985 30.115 49.495 28.7114ZM51.6181 32.6408C51.6571 32.7585 51.6934 32.8665 51.7279 32.9709C51.7022 33.0267 51.6907 33.0762 51.6677 33.0992C50.9252 33.8338 50.1827 34.5701 49.4348 35.2923C49.3437 35.3808 49.2189 35.4339 49.1092 35.4374C48.6711 35.4542 48.233 35.4445 47.7586 35.4445C47.717 35.2923 47.6825 35.1666 47.6427 35.0232C47.9825 34.5285 48.3127 34.0409 48.6498 33.5647C48.7074 33.4833 48.795 33.4267 48.8746 33.4037C49.7835 33.1453 50.6942 32.8966 51.6181 32.6408ZM50.9756 37.8464C50.9969 37.8668 51.011 37.9048 51.0394 37.9544C51.0093 38.0544 50.9783 38.1597 50.9411 38.288C50.8508 38.2668 50.7712 38.2526 50.6933 38.2296C50.0136 38.0305 49.3348 37.8296 48.656 37.6296C48.5383 37.596 48.4277 37.5535 48.3392 37.4172C48.2383 37.2614 48.1374 37.1065 48.0339 36.9517C47.994 36.8915 47.9542 36.8313 47.9144 36.7711C47.7949 36.5906 47.6728 36.4083 47.5489 36.2215C47.5763 36.11 47.602 36.0021 47.6268 35.8985C47.6639 35.8817 47.6896 35.8596 47.7153 35.8596C48.0808 35.8569 48.4463 35.849 48.8109 35.8605C48.8968 35.8631 48.9941 35.9038 49.0649 35.972C49.7048 36.5906 50.3402 37.2189 50.9756 37.8464ZM48.7587 30.0752C48.7525 30.1203 48.7472 30.1654 48.7419 30.2106C48.7383 30.2354 48.7348 30.2592 48.7321 30.284C48.7233 30.3539 48.7144 30.423 48.7056 30.4911C48.695 30.5734 48.6843 30.6548 48.6737 30.7354C48.6684 30.7761 48.6631 30.8159 48.6578 30.8566C48.5516 31.6257 48.4419 32.3948 48.3365 33.1647C48.3056 33.3931 48.2436 33.5824 48.1233 33.7471C47.864 34.1002 47.617 34.4736 47.3595 34.8471C47.2754 34.7923 47.2029 34.7462 47.117 34.6914C47.117 34.0975 47.1135 33.5116 47.1205 32.9267C47.1214 32.8275 47.1506 32.7169 47.1887 32.6328C47.5365 31.8655 47.887 31.1 48.2427 30.3239C48.3348 30.123 48.4277 29.9203 48.5206 29.7176C48.6056 29.7636 48.6861 29.8079 48.7852 29.8619C48.7764 29.9336 48.7675 30.0052 48.7587 30.0752ZM45.4222 41.5838C45.3611 41.5519 45.2868 41.5148 45.1957 41.4679C45.2063 41.3201 45.208 41.1891 45.2257 41.0625C45.3638 40.0589 45.5036 39.0553 45.6479 38.0535C45.6665 37.9287 45.6983 37.788 45.7568 37.6995C46.0267 37.2862 46.3081 36.8888 46.5984 36.4676C46.694 36.526 46.7603 36.5658 46.8276 36.6065C46.8373 36.6481 46.8533 36.6853 46.8533 36.7225C46.855 37.2552 46.8586 37.7889 46.8524 38.3217C46.8515 38.4341 46.832 38.5633 46.7896 38.6553C46.3586 39.612 45.9205 40.5616 45.4833 41.513C45.4735 41.5333 45.455 41.5457 45.4222 41.5838ZM43.0221 33.0452C43.1035 33.0576 43.1849 33.0603 43.2628 33.0824C43.9496 33.2851 44.6363 33.4878 45.3222 33.6993C45.4151 33.7285 45.5196 33.7833 45.5859 33.8763C45.8691 34.271 46.14 34.6843 46.4214 35.1002C46.3922 35.2188 46.3647 35.3277 46.3417 35.4197C46.309 35.441 46.2931 35.4613 46.2771 35.4622C45.9037 35.4657 45.5293 35.4737 45.1558 35.4666C45.0779 35.4649 44.9894 35.4357 44.9257 35.3737C44.2797 34.7489 43.6372 34.1152 42.9938 33.4833C42.9716 33.4612 42.9513 33.4355 42.9115 33.3904C42.9539 33.2585 42.984 33.1638 43.0221 33.0452ZM44.9169 28.8893C44.9939 28.83 45.0735 28.7698 45.1603 28.7034C45.1629 28.7078 45.1647 28.7123 45.1673 28.7158C45.1921 28.76 45.2151 28.7981 45.2355 28.8335C45.2408 28.8423 45.2461 28.8512 45.2505 28.8601C45.2576 28.8733 45.2647 28.8866 45.2718 28.8999C45.2788 28.9123 45.285 28.9255 45.2912 28.9388C45.7665 29.9725 46.2426 31.0062 46.7134 32.0443C46.7701 32.1691 46.8276 32.3222 46.8294 32.4638C46.8418 33.147 46.8356 33.8311 46.8356 34.5285C46.7356 34.5887 46.6488 34.64 46.5577 34.694C46.2196 34.2028 45.8806 33.7311 45.5603 33.232C45.4815 33.1081 45.4488 32.9019 45.4249 32.724C45.3594 32.2399 45.2948 31.7549 45.2302 31.2682C45.1912 30.9761 45.1523 30.6823 45.1142 30.3876C45.0523 29.9167 44.9894 29.4424 44.9266 28.9636C44.9231 28.9388 44.9204 28.914 44.9169 28.8893ZM46.4931 35.6489C46.4993 35.2923 46.7347 34.9498 46.9816 34.94C47.2232 34.9303 47.456 35.2746 47.4604 35.6454C47.4648 36.0366 47.2604 36.3596 47.0011 36.3711C46.7365 36.3826 46.4869 36.0277 46.4931 35.6489ZM46.2134 27.8812C46.2453 27.8742 46.2771 27.868 46.3099 27.8618C46.3488 27.8547 46.3886 27.8485 46.4285 27.8432C46.4648 27.8379 46.5019 27.8326 46.5391 27.829C46.7426 27.8051 46.9533 27.798 47.1604 27.8078C47.1913 27.8087 47.2223 27.8095 47.2533 27.8122C47.2648 27.8131 47.2754 27.8131 47.286 27.8149C47.3321 27.8184 47.379 27.8219 47.425 27.8272C47.4701 27.8326 47.5161 27.8379 47.5613 27.8449C47.5958 27.8494 47.6303 27.8556 47.6648 27.8618C47.694 27.8662 47.7232 27.8724 47.7524 27.8786C47.7808 27.8839 47.8082 27.8901 47.8356 27.8972C47.856 27.9016 47.8763 27.9069 47.8967 27.9122C47.9197 27.9175 47.9427 27.9237 47.9657 27.9308C47.9994 27.9396 48.0321 27.9494 48.064 27.96C48.1286 27.9812 48.1905 28.0042 48.2507 28.029C48.31 28.0538 48.3675 28.0812 48.4224 28.1105C48.4764 28.1405 48.5277 28.1715 48.5755 28.2051C48.2445 28.9273 47.9135 29.6477 47.5781 30.3796C47.3825 30.8053 47.186 31.2345 46.986 31.6699C46.9179 31.5222 46.8506 31.3752 46.7834 31.2283C46.6488 30.9354 46.5152 30.6442 46.3825 30.3557C46.0842 29.7061 45.7895 29.0636 45.4939 28.4211C45.4612 28.3494 45.4275 28.2777 45.3948 28.206C45.4426 28.1724 45.4939 28.1414 45.5488 28.1122C45.5762 28.0972 45.6045 28.083 45.6328 28.0697C45.6612 28.0556 45.6904 28.0423 45.7205 28.0308C45.7665 28.0113 45.8134 27.9936 45.8621 27.9768C45.8877 27.968 45.9134 27.9591 45.9391 27.952C45.9541 27.9467 45.9683 27.9423 45.9833 27.9388C46.0161 27.9281 46.0497 27.9193 46.0833 27.9113C46.1258 27.8998 46.1692 27.8901 46.2134 27.8812ZM44.5239 28.7149C44.5328 28.7795 44.5407 28.8432 44.5496 28.9078C44.5682 29.0512 44.5877 29.1946 44.6062 29.3388C44.7585 30.4849 44.9107 31.6319 45.0691 32.8249C44.9505 32.7895 44.8319 32.7541 44.7142 32.7196C44.4788 32.6505 44.246 32.5806 44.0142 32.5125C43.7159 32.424 43.4194 32.3355 43.1247 32.2487C43.0398 32.2231 42.9548 32.1983 42.8699 32.1726C42.6796 32.1169 42.4902 32.0602 42.2999 32.0045C42.4203 31.0549 43.6903 29.1751 44.5239 28.7149ZM41.8601 33.3072C42.076 33.5187 42.2911 33.7276 42.5052 33.9365C42.5229 33.9542 42.5397 33.971 42.5574 33.9878C42.6132 34.0427 42.6698 34.0966 42.7256 34.1515C43.2336 34.648 43.7416 35.1436 44.2655 35.6551C44.1354 35.7817 44.0071 35.9074 43.8796 36.0321C43.7522 36.1569 43.6257 36.2808 43.5 36.4038C43.2478 36.6499 42.9982 36.895 42.7477 37.1402C42.6743 37.2119 42.6008 37.2835 42.5274 37.3552C42.5043 37.3774 42.4822 37.3995 42.4592 37.4225C42.2601 37.6172 42.0592 37.8128 41.8574 38.011C41.5317 36.4277 41.5273 34.9029 41.8601 33.3072ZM42.2937 38.2323C42.4026 38.1252 42.5114 38.0181 42.6203 37.911C42.6929 37.8402 42.7654 37.7685 42.838 37.6977C43.3911 37.1543 43.9434 36.6118 44.4947 36.0658C44.6239 35.9383 44.7549 35.8782 44.9125 35.8826C45.3381 35.8941 45.7638 35.8861 46.2143 35.8861C46.2568 36.0375 46.2886 36.1499 46.3205 36.2622C46.3001 36.31 46.2895 36.3561 46.2683 36.3879C45.9745 36.818 45.6833 37.2517 45.3815 37.6712C45.3098 37.7721 45.2089 37.8597 45.1125 37.888C44.8832 37.9562 44.654 38.0234 44.4248 38.0898C43.9575 38.2261 43.4894 38.3597 43.0185 38.4942C42.9345 38.5181 42.8504 38.542 42.7654 38.5668C42.6274 38.6057 42.4875 38.6456 42.3486 38.6854C42.3043 38.5615 42.2672 38.4562 42.2282 38.3473C42.2548 38.2995 42.2698 38.2562 42.2937 38.2323ZM44.4876 42.5166C43.7186 42.1927 42.6106 40.5156 42.2521 39.343C42.3017 39.2969 42.4353 39.2332 42.6256 39.1589C42.6566 39.1465 42.6893 39.1332 42.7238 39.1208C42.7283 39.1199 42.7336 39.1173 42.7389 39.1155C42.7645 39.1058 42.792 39.096 42.8194 39.0863C42.846 39.0766 42.8734 39.0677 42.9017 39.0571C42.9415 39.0438 42.984 39.0297 43.0265 39.0155C43.0469 39.0084 43.0672 39.0022 43.0876 38.9951C43.1106 38.9872 43.1345 38.9792 43.1575 38.9721C43.1823 38.9642 43.2079 38.9562 43.2336 38.9482C43.2663 38.9376 43.3009 38.927 43.3345 38.9164C43.3743 38.904 43.415 38.8916 43.4557 38.8792C43.5071 38.8642 43.5593 38.8482 43.6115 38.8332C43.7097 38.804 43.8106 38.7757 43.9115 38.7482C43.962 38.7341 44.0124 38.7208 44.0637 38.7075C44.4053 38.6164 44.7487 38.5367 45.0487 38.4801C45.0116 38.7473 44.9753 39.012 44.9381 39.2757C44.8213 40.1165 44.7062 40.9413 44.5921 41.7643C44.5726 41.9086 44.5523 42.052 44.5319 42.1962C44.5177 42.3033 44.5027 42.4095 44.4876 42.5166ZM48.5109 43.3087C48.4728 43.3255 48.4348 43.3414 48.3976 43.3565C48.3675 43.3689 48.3365 43.3812 48.3065 43.3927C48.2047 43.4317 48.1029 43.4662 48.0011 43.4954C47.9772 43.5025 47.9533 43.5087 47.9303 43.5158C47.9135 43.5202 47.8967 43.5246 47.8808 43.5282C47.8533 43.5361 47.8259 43.5432 47.7985 43.5485C47.7648 43.5574 47.7312 43.5644 47.6976 43.5706C47.6631 43.5777 47.6294 43.5848 47.5958 43.5901C47.5285 43.6025 47.4613 43.6122 47.394 43.6193C47.3453 43.6255 47.2967 43.6299 47.248 43.6335C47.2471 43.6344 47.2462 43.6344 47.2453 43.6335C47.125 43.6432 47.0037 43.6459 46.8834 43.6414C46.8604 43.6406 46.8382 43.6397 46.8152 43.6379C46.7825 43.637 46.7497 43.6344 46.717 43.6317C46.6993 43.6308 46.6807 43.629 46.663 43.6273C46.6179 43.6237 46.5727 43.6184 46.5285 43.6131C46.5258 43.6131 46.5223 43.6122 46.5179 43.6113C46.4727 43.606 46.4276 43.599 46.3825 43.591C46.3435 43.5848 46.3037 43.5768 46.2639 43.5689C46.24 43.5644 46.2161 43.5591 46.1913 43.5529C46.1612 43.5467 46.1302 43.5397 46.0992 43.5317C46.0249 43.5131 45.9488 43.4928 45.8736 43.4689C45.8408 43.4591 45.8072 43.4485 45.7744 43.437C45.7603 43.4326 45.7452 43.4273 45.7302 43.422C45.7001 43.4113 45.6691 43.4007 45.6382 43.3892C45.5461 43.3556 45.4523 43.3175 45.3594 43.2768C45.3868 43.214 45.4143 43.1511 45.4417 43.0883C45.4886 42.983 45.5346 42.8777 45.5815 42.7724C45.8736 42.1183 46.17 41.4785 46.4701 40.828C46.5718 40.605 46.6745 40.3802 46.778 40.1536C46.8471 40.0023 46.9152 39.8509 46.9843 39.697C47.5436 40.9209 48.0684 42.0679 48.6135 43.2627C48.579 43.2786 48.5454 43.2945 48.5109 43.3087ZM49.0207 42.4741C48.9366 42.5166 48.8693 42.5511 48.7897 42.5927C48.7268 42.4688 48.6684 42.3599 48.6153 42.2449C48.1693 41.2732 47.7268 40.2979 47.2781 39.3288C47.1852 39.1279 47.1338 38.927 47.1382 38.6774C47.1427 38.4066 47.1444 38.1349 47.1444 37.8632C47.1444 37.6889 47.1436 37.5145 47.1427 37.3402C47.1427 37.2358 47.1427 37.1304 47.1418 37.0251V36.8003C47.2312 36.7384 47.3064 36.6862 47.3798 36.6348C47.4153 36.6596 47.4498 36.6702 47.471 36.7012C47.5356 36.795 47.5993 36.8879 47.6639 36.9818C47.7985 37.1773 47.9321 37.3738 48.0657 37.5712C48.1693 37.7234 48.2719 37.8765 48.3737 38.0296C48.4304 38.1155 48.487 38.2278 48.502 38.3394C48.679 39.6385 48.849 40.9386 49.0198 42.2396C49.0269 42.2989 49.0207 42.3617 49.0207 42.4741ZM49.4463 42.6024C49.2596 41.2475 49.0791 39.9049 48.9021 38.4836C49.8605 38.7677 50.7694 39.0376 51.6792 39.3076C51.5102 40.2988 50.3915 41.9555 49.4463 42.6024ZM51.889 37.8013C51.1783 37.1039 50.4685 36.4065 49.718 35.6684C50.5092 34.8551 51.2995 34.1241 52.1031 33.3134C52.4509 34.8976 52.4412 36.4171 52.1084 38.0004C52.0031 37.9057 51.9447 37.8561 51.889 37.8013Z" fill="white"/>
<path d="M48.6135 43.2627C47.5188 43.7751 46.463 43.7609 45.3594 43.2768C45.8868 42.0661 46.4329 40.9253 46.9842 39.697C47.5436 40.9209 48.0684 42.0679 48.6135 43.2627Z" fill="#3D3D3D"/>
<path d="M44.2655 35.6552C43.4407 36.4614 42.6663 37.219 41.8574 38.0111C41.5317 36.4278 41.5273 34.9029 41.8601 33.3073C42.6636 34.0914 43.4451 34.8542 44.2655 35.6552Z" fill="#3D3D3D"/>
<path d="M48.5754 28.2052C48.0515 29.3477 47.5293 30.485 46.986 31.67C46.4426 30.4876 45.9204 29.3495 45.3947 28.2061C46.1602 27.6724 47.8064 27.6662 48.5754 28.2052Z" fill="#3D3D3D"/>
<path d="M45.0488 38.4802C44.8576 39.8581 44.6726 41.1856 44.4877 42.5167C43.7186 42.1928 42.6106 40.5157 42.2521 39.343C42.4486 39.1607 44.0098 38.6749 45.0488 38.4802Z" fill="#3D3D3D"/>
<path d="M51.7279 31.9877C51.6332 32.0434 51.558 32.108 51.4783 32.131C50.6623 32.3673 49.8446 32.5965 49.0277 32.8258C49.0092 32.8311 48.9861 32.8089 48.926 32.7824C49.1118 31.4513 49.2986 30.115 49.495 28.7114C50.4836 29.5052 51.2093 30.5593 51.7279 31.9877Z" fill="#3D3D3D"/>
<path d="M51.6793 39.3076C51.5102 40.2988 50.3916 41.9555 49.4464 42.6025C49.2596 41.2475 49.0791 39.905 48.9021 38.4836C49.8606 38.7677 50.7695 39.0377 51.6793 39.3076Z" fill="#3D3D3D"/>
<path d="M52.1084 38.0004C52.0031 37.9057 51.9447 37.8562 51.8889 37.8013C51.1783 37.1039 50.4685 36.4065 49.718 35.6684C50.5092 34.8551 51.2995 34.1241 52.1031 33.3134C52.4509 34.8976 52.4412 36.4171 52.1084 38.0004Z" fill="#3D3D3D"/>
<path d="M46.8524 38.3217C46.8515 38.4341 46.832 38.5633 46.7895 38.6553C46.3585 39.612 45.9204 40.5616 45.4832 41.513C45.4735 41.5334 45.4549 41.5458 45.4222 41.5838C45.3611 41.552 45.2868 41.5148 45.1956 41.4679C45.2062 41.3201 45.208 41.1891 45.2257 41.0625C45.3638 40.0589 45.5036 39.0554 45.6479 38.0535C45.6664 37.9287 45.6983 37.788 45.7567 37.6995C46.0266 37.2862 46.3081 36.8889 46.5984 36.4676C46.6939 36.526 46.7603 36.5658 46.8276 36.6065C46.8373 36.6481 46.8532 36.6853 46.8532 36.7225C46.855 37.2552 46.8585 37.7889 46.8524 38.3217Z" fill="#3D3D3D"/>
<path d="M45.0691 32.8249C44.1177 32.5426 43.2088 32.2736 42.2999 32.0045C42.4203 31.0549 43.6903 29.1752 44.5239 28.715C44.7036 30.0699 44.8824 31.416 45.0691 32.8249Z" fill="#3D3D3D"/>
<path d="M46.4214 35.1002C46.3922 35.2188 46.3647 35.3277 46.3417 35.4197C46.309 35.4409 46.2931 35.4613 46.2771 35.4622C45.9036 35.4657 45.5293 35.4737 45.1558 35.4666C45.0779 35.4648 44.9894 35.4356 44.9257 35.3737C44.2797 34.7489 43.6371 34.1152 42.9937 33.4833C42.9716 33.4612 42.9513 33.4355 42.9114 33.3904C42.9539 33.2585 42.984 33.1638 43.0221 33.0452C43.1035 33.0576 43.1849 33.0603 43.2628 33.0824C43.9496 33.2851 44.6363 33.4877 45.3222 33.6992C45.4151 33.7285 45.5196 33.7833 45.5859 33.8762C45.8691 34.271 46.1399 34.6843 46.4214 35.1002Z" fill="#3D3D3D"/>
<path d="M51.0394 37.9544C51.0093 38.0544 50.9783 38.1597 50.9412 38.2881C50.8509 38.2668 50.7713 38.2527 50.6934 38.2296C50.0137 38.0305 49.3349 37.8296 48.6561 37.6296C48.5384 37.596 48.4278 37.5535 48.3393 37.4172C48.0826 37.0198 47.8206 36.6304 47.549 36.2216C47.5764 36.11 47.6021 36.0021 47.6268 35.8985C47.664 35.8817 47.6897 35.8596 47.7153 35.8596C48.0808 35.8569 48.4463 35.849 48.811 35.8605C48.8968 35.8631 48.9942 35.9038 49.065 35.972C49.7048 36.5906 50.3403 37.219 50.9757 37.8464C50.9969 37.8668 51.0111 37.9048 51.0394 37.9544Z" fill="#3D3D3D"/>
<path d="M48.7852 29.8619C48.741 30.2088 48.702 30.5336 48.6578 30.8567C48.5516 31.6257 48.4418 32.3948 48.3365 33.1648C48.3055 33.3931 48.2436 33.5825 48.1232 33.7471C47.8639 34.1002 47.617 34.4737 47.3595 34.8472C47.2754 34.7923 47.2028 34.7463 47.117 34.6914C47.117 34.0975 47.1134 33.5117 47.1205 32.9267C47.1214 32.8276 47.1506 32.7169 47.1887 32.6329C47.6267 31.6664 48.0684 30.7044 48.5206 29.7177C48.6056 29.7637 48.6861 29.8079 48.7852 29.8619Z" fill="#3D3D3D"/>
<path d="M51.7279 32.971C51.7022 33.0267 51.6907 33.0763 51.6677 33.0993C50.9252 33.8339 50.1827 34.5702 49.4348 35.2923C49.3437 35.3808 49.2189 35.434 49.1092 35.4375C48.6711 35.4543 48.233 35.4446 47.7586 35.4446C47.717 35.2923 47.6825 35.1667 47.6427 35.0233C47.9825 34.5286 48.3127 34.041 48.6498 33.5648C48.7074 33.4834 48.795 33.4268 48.8746 33.4037C49.7835 33.1453 50.6942 32.8966 51.6181 32.6409C51.6571 32.7586 51.6934 32.8665 51.7279 32.971Z" fill="url(#paint32_radial_1466_13369)"/>
<path d="M46.8356 34.5285C46.7356 34.5887 46.6488 34.6401 46.5577 34.694C46.2196 34.2029 45.8806 33.7312 45.5603 33.232C45.4815 33.1081 45.4488 32.9019 45.4249 32.724C45.2532 31.4593 45.0886 30.1929 44.9169 28.8893C44.9939 28.83 45.0735 28.7698 45.1602 28.7034C45.2125 28.7972 45.2567 28.8636 45.2912 28.9388C45.7665 29.9725 46.2426 31.0062 46.7134 32.0443C46.7701 32.1691 46.8276 32.3222 46.8294 32.4638C46.8418 33.1471 46.8356 33.8312 46.8356 34.5285Z" fill="url(#paint33_radial_1466_13369)"/>
<path d="M46.3205 36.2623C46.3002 36.3101 46.2896 36.3561 46.2683 36.388C45.9745 36.8181 45.6833 37.2517 45.3816 37.6712C45.3099 37.7721 45.209 37.8597 45.1125 37.888C44.1965 38.1606 43.2788 38.419 42.3486 38.6854C42.3044 38.5615 42.2672 38.4562 42.2283 38.3474C42.2548 38.2996 42.2699 38.2562 42.2938 38.2323C43.0274 37.5101 43.7629 36.7915 44.4948 36.0658C44.624 35.9384 44.755 35.8782 44.9125 35.8826C45.3382 35.8941 45.7639 35.8862 46.2143 35.8862C46.2568 36.0375 46.2887 36.1499 46.3205 36.2623Z" fill="url(#paint34_radial_1466_13369)"/>
<path d="M49.0207 42.4741C48.9366 42.5166 48.8693 42.5511 48.7897 42.5927C48.7268 42.4688 48.6684 42.3599 48.6153 42.2449C48.1693 41.2731 47.7268 40.2979 47.2781 39.3288C47.1852 39.1279 47.1338 38.927 47.1383 38.6774C47.1489 38.0553 47.1418 37.4322 47.1418 36.8003C47.2312 36.7384 47.3064 36.6862 47.3799 36.6348C47.4153 36.6596 47.4498 36.6702 47.471 36.7012C47.7737 37.1411 48.0764 37.5818 48.3737 38.0296C48.4304 38.1154 48.487 38.2278 48.5021 38.3393C48.6791 39.6385 48.849 40.9386 49.0198 42.2396C49.0269 42.2989 49.0207 42.3617 49.0207 42.4741Z" fill="url(#paint35_radial_1466_13369)"/>
<path d="M47.4603 35.6454C47.4648 36.0366 47.2603 36.3596 47.001 36.3711C46.7364 36.3826 46.4868 36.0278 46.493 35.649C46.4992 35.2923 46.7346 34.9498 46.9816 34.9401C47.2232 34.9303 47.4559 35.2746 47.4603 35.6454Z" fill="url(#paint36_radial_1466_13369)"/>
<path d="M81.3649 30.1567C81.3906 29.9504 81.4296 29.7487 81.4534 29.5495C81.426 29.5513 81.4676 29.5469 81.4534 29.5495C81.4747 29.3761 81.4296 29.1929 81.4287 29.0026C81.3933 29.0035 81.465 29.0026 81.4287 29.0026C81.4278 28.9477 81.4278 28.9061 81.4278 28.8645C81.4242 28.4566 81.4225 28.0512 81.4154 27.6494C81.4136 27.5609 81.4048 27.4698 81.3765 27.3866C81.1915 26.852 80.6534 26.5317 79.9958 26.5688C78.2887 26.6635 76.6815 26.7609 75.1655 26.8494C74.984 26.86 74.8053 26.8928 74.6283 26.9379C74.3088 27.0193 74.015 27.1529 73.7433 27.3335C73.5318 27.4742 73.3468 27.6397 73.1857 27.8291C72.999 28.0495 72.8468 28.2866 72.7521 28.5521C72.6503 28.8345 72.5476 29.1177 72.4467 29.4009C72.3945 29.5478 72.3503 29.6956 72.3432 29.8522C72.3361 30.0133 72.3635 30.1655 72.4299 30.3053C72.6096 30.6788 72.9238 30.8859 73.3583 30.8983C74.3637 30.9275 75.4115 30.9425 76.5036 30.9664C76.6549 30.97 76.7735 30.9284 76.8443 30.7753C76.8417 30.7363 76.8479 30.6797 76.8328 30.6292C76.8018 30.5248 76.6983 30.4664 76.5611 30.4646C75.4717 30.4522 74.4265 30.4407 73.4229 30.4292C73.3848 30.4292 73.3459 30.4319 73.3087 30.4257C72.9291 30.3655 72.7087 30.0106 72.8317 29.6593C72.9415 29.3469 73.0503 29.0354 73.1592 28.7238C73.2627 28.4274 73.4362 28.1698 73.6689 27.9433C73.9273 27.6919 74.2327 27.5114 74.584 27.4052C74.7168 27.3645 74.8548 27.3255 74.9911 27.3167C75.5071 27.283 76.0337 27.2618 76.5718 27.2352C77.6603 27.1813 78.7949 27.1237 79.9781 27.0671C80.0711 27.0627 80.1702 27.0636 80.2569 27.0857C80.5711 27.1653 80.8003 27.4016 80.795 27.6875C80.7879 28.0707 80.7985 28.4566 80.7959 28.8451C80.7941 29.1823 80.8162 29.5212 80.7711 29.8619C80.7561 29.9761 80.7454 30.0938 80.6693 30.1912C80.5021 30.4027 80.2667 30.5089 79.9675 30.5027C79.7383 30.4983 79.51 30.4956 79.2843 30.4956C79.0869 30.4956 78.9285 30.6753 79.0214 30.8567C79.0728 30.9567 79.171 31.0204 79.2976 31.0213C79.5852 31.024 79.8755 31.0514 80.1693 31.0231C80.3729 31.0036 80.564 30.9558 80.7384 30.8638C80.8375 30.8116 80.9286 30.7478 81.0207 30.6912C80.9587 30.6903 81.0835 30.6921 81.0207 30.6912C81.1455 30.5292 81.3172 30.331 81.3649 30.1567C81.3649 30.1567 81.3588 30.1558 81.3649 30.1567Z" fill="url(#paint37_linear_1466_13369)"/>
<path d="M74.3087 28.0999C74.3972 28.115 74.4618 28.1512 74.4866 28.238C74.4946 28.2663 74.4999 28.2964 74.499 28.3265C74.4813 28.7194 74.4636 29.1159 74.4441 29.515C74.4397 29.6124 74.4025 29.6929 74.3131 29.7381C74.1786 29.8062 74.0353 29.7142 74.0361 29.5593C74.037 29.469 74.0441 29.3779 74.0494 29.2876C74.0653 28.977 74.0804 28.669 74.0963 28.3619C74.1043 28.207 74.1494 28.1477 74.2919 28.1035C74.2972 28.1026 74.3025 28.1017 74.3087 28.0999Z" fill="url(#paint38_linear_1466_13369)"/>
<path d="M77.0169 27.9583C77.0895 27.9663 77.1514 27.9849 77.1965 28.0388C77.2319 28.0813 77.2532 28.1256 77.2514 28.1831C77.2408 28.6362 77.2319 29.0938 77.2204 29.5557C77.2178 29.6743 77.1319 29.769 77.0169 29.7867C76.9063 29.8036 76.7939 29.7372 76.762 29.6301C76.7496 29.5885 76.7461 29.5425 76.747 29.4991C76.7567 29.0876 76.7717 28.6787 76.777 28.2734C76.7797 28.1203 76.8443 27.9981 77.0169 27.9583Z" fill="url(#paint39_linear_1466_13369)"/>
<path d="M75.3743 28.9035C75.3823 28.6911 75.3894 28.4787 75.3991 28.2681C75.4044 28.1522 75.4823 28.0637 75.592 28.0389C75.7071 28.0123 75.8292 28.0867 75.839 28.2274C75.8407 28.2469 75.8381 28.2663 75.8372 28.2867C75.823 28.6947 75.8097 29.1053 75.7938 29.5195C75.792 29.562 75.7841 29.6071 75.7682 29.6461C75.7212 29.7611 75.6257 29.7974 75.5221 29.7832C75.4203 29.7691 75.346 29.6717 75.3495 29.5593C75.3557 29.3381 75.3655 29.1204 75.3743 28.9035Z" fill="url(#paint40_linear_1466_13369)"/>
<path d="M78.2479 28.838C78.2515 28.6017 78.263 28.3663 78.2541 28.1326C78.2479 27.9733 78.4028 27.837 78.586 27.8778C78.6807 27.899 78.7515 27.9778 78.7595 28.0733C78.7603 28.0875 78.7603 28.1026 78.7595 28.1167C78.755 28.5946 78.7506 29.0761 78.748 29.5619C78.748 29.638 78.7232 29.6991 78.6665 29.7513C78.5887 29.823 78.4851 29.8478 78.394 29.8053C78.3001 29.7619 78.2364 29.6947 78.2373 29.5849C78.2417 29.3345 78.2453 29.0858 78.2479 28.838Z" fill="url(#paint41_linear_1466_13369)"/>
<path d="M79.6861 28.8371C79.6896 28.591 79.702 28.345 79.6923 28.1025C79.6861 27.9361 79.8472 27.7945 80.0383 27.8361C80.1375 27.8583 80.21 27.9397 80.2189 28.0406C80.2198 28.0556 80.2198 28.0707 80.2189 28.0857C80.2144 28.584 80.2091 29.0858 80.2065 29.592C80.2065 29.6716 80.1808 29.7354 80.1215 29.7893C80.0401 29.8646 79.933 29.8902 79.8374 29.846C79.7401 29.8008 79.6728 29.7309 79.6746 29.6159C79.6799 29.3557 79.6834 29.0955 79.6861 28.8371Z" fill="url(#paint42_linear_1466_13369)"/>
<path d="M77.5833 30.7585C77.5859 30.6133 77.7045 30.5018 77.8585 30.5027C78.0178 30.5036 78.1488 30.6124 78.1444 30.7549C78.1399 30.9257 78.0125 31.016 77.855 31.0169C77.7001 31.0178 77.5815 30.9018 77.5833 30.7585Z" fill="url(#paint43_linear_1466_13369)"/>
<path d="M85.2767 30.6434C85.2669 30.5469 85.2501 30.454 85.2315 30.3602C85.1917 30.1601 85.1501 29.9628 85.112 29.7654C85.0846 29.6265 85.0563 29.4893 85.0209 29.3574C84.9527 29.1061 84.874 28.8795 84.7775 28.6778C84.6881 28.491 84.5934 28.3361 84.4917 28.2167C84.4102 28.122 84.3279 28.0547 84.2456 28.0113C84.1554 27.9636 84.0642 27.9175 83.9704 27.8697C83.5668 27.6627 83.1296 27.437 82.6544 27.1936C82.619 27.175 82.5818 27.1662 82.5473 27.1626C82.4039 27.1493 82.2924 27.2476 82.2137 27.4503C82.1712 27.5591 82.1446 27.6874 82.1455 27.8441C82.1464 27.9335 82.1437 28.0229 82.1437 28.114C82.1437 28.391 82.1402 28.6716 82.1375 28.9601C82.1375 28.9857 82.1349 29.0114 82.134 29.0406C82.1225 29.0362 82.1455 29.0441 82.134 29.0406C82.1588 29.5575 82.1853 30.115 82.3013 30.6487C82.2853 30.6451 82.3172 30.6522 82.3013 30.6487C82.3039 30.6531 82.3092 30.6602 82.3128 30.669C82.4287 30.9266 82.5694 31.0513 82.7216 31.0779C83.6111 31.2337 84.3704 31.3637 85.0262 31.4779C85.0581 31.4832 85.0873 31.4744 85.1156 31.4602C85.2492 31.3956 85.3174 31.0425 85.2767 30.6434ZM85.1306 30.8823C85.1067 31.0142 85.0625 31.0788 84.9979 31.0664C84.8757 31.0434 84.7501 31.0133 84.6218 30.985C84.4155 30.9398 84.2005 30.8929 83.9757 30.8443C83.5845 30.7593 83.1606 30.6673 82.7022 30.5664C82.6181 30.5478 82.542 30.4779 82.48 30.3354C82.4694 30.3115 82.4606 30.2787 82.457 30.2486C82.4376 30.092 82.4181 29.9362 82.4039 29.7814C82.3906 29.638 82.3871 29.4955 82.3783 29.3548C82.3703 29.2167 82.3712 29.084 82.3703 28.9521C82.3685 28.6247 82.365 28.3052 82.3685 27.9963C82.3712 27.7361 82.4526 27.5936 82.5694 27.5688C82.5951 27.5635 82.6234 27.5706 82.6508 27.5839C83.2411 27.8662 83.7739 28.122 84.2554 28.3521C84.3253 28.3857 84.3934 28.4335 84.4625 28.5087C84.5341 28.5866 84.6014 28.6866 84.666 28.8079C84.7704 29.0043 84.8554 29.2371 84.9218 29.5044C84.935 29.5575 84.9465 29.6114 84.9581 29.6663C85.0023 29.8858 85.0457 30.1079 85.0899 30.3327C85.0952 30.3593 85.1014 30.3867 85.1067 30.4133C85.1421 30.5841 85.1554 30.7434 85.1306 30.8823Z" fill="url(#paint44_linear_1466_13369)"/>
<path d="M83.543 28.576C83.5695 28.6044 83.5925 28.6159 83.6111 28.661C83.6341 28.715 83.6474 28.769 83.6509 28.8327C83.6695 29.2062 83.689 29.5912 83.7102 29.9876C83.7182 30.1301 83.6801 30.1983 83.6341 30.193C83.5863 30.1876 83.5359 30.1168 83.5182 29.9567C83.5164 29.9407 83.5164 29.9248 83.5155 29.9089C83.4987 29.5195 83.4819 29.1407 83.466 28.7725C83.4633 28.7053 83.4686 28.6477 83.4907 28.6159C83.5049 28.5929 83.527 28.5867 83.543 28.576Z" fill="url(#paint45_linear_1466_13369)"/>
<path d="M82.9703 28.3345C83.0119 28.3681 83.0456 28.4088 83.0659 28.4911C83.0757 28.5301 83.0819 28.5672 83.0827 28.6071C83.0934 28.992 83.1057 29.3894 83.1173 29.7974C83.1199 29.8974 83.1075 29.9797 83.0615 30.0142C82.996 30.0638 82.9137 29.9496 82.9022 29.7885C82.9013 29.7717 82.9013 29.7549 82.9004 29.7381C82.8916 29.3221 82.8836 28.9186 82.8739 28.5265C82.8721 28.4442 82.8854 28.384 82.9172 28.3531C82.9332 28.3389 82.9544 28.3398 82.9703 28.3345Z" fill="url(#paint46_linear_1466_13369)"/>
<path d="M84.4757 29.1061C84.4846 29.0344 84.5005 29.0034 84.5297 29.0061C84.5704 29.0096 84.6155 29.0955 84.6253 29.199C84.6332 29.2804 84.6394 29.3627 84.6474 29.445C84.6722 29.7256 84.697 30.0114 84.7217 30.3035C84.7315 30.4194 84.704 30.4902 84.6571 30.4725C84.6182 30.4584 84.5793 30.3672 84.5704 30.2672C84.5624 30.1752 84.5554 30.084 84.5483 29.9929C84.5262 29.7185 84.504 29.4495 84.4828 29.1857C84.4792 29.1574 84.4775 29.1282 84.4757 29.1061Z" fill="url(#paint47_linear_1466_13369)"/>
<path d="M84.0801 30.1929C84.0775 30.1628 84.0748 30.1381 84.0739 30.1142C84.0483 29.7186 84.0235 29.3345 84.0005 28.961C83.9943 28.861 84.0084 28.8185 84.0492 28.807C84.0545 28.8052 84.0598 28.8035 84.0669 28.8017C84.0704 28.8061 84.0757 28.8114 84.0801 28.8159C84.1323 28.8645 84.1562 28.9291 84.1642 29.0442C84.189 29.3991 84.2146 29.7637 84.2412 30.1381C84.2447 30.1894 84.2465 30.2381 84.2359 30.2779C84.2076 30.3841 84.1403 30.354 84.1058 30.2593C84.0978 30.2372 84.0899 30.2168 84.0801 30.1929Z" fill="url(#paint48_linear_1466_13369)"/>
<defs>
<linearGradient id="paint0_linear_1466_13369" x1="51.966" y1="50.9782" x2="51.966" y2="46.7302" gradientUnits="userSpaceOnUse">
<stop offset="0.3039" stop-color="#ED1C24"/>
<stop offset="1" stop-color="#EC1C24"/>
</linearGradient>
<linearGradient id="paint1_linear_1466_13369" x1="80.9229" y1="50.9782" x2="80.9229" y2="46.7302" gradientUnits="userSpaceOnUse">
<stop offset="0.3039" stop-color="#ED1C24"/>
<stop offset="1" stop-color="#EC1C24"/>
</linearGradient>
<linearGradient id="paint2_linear_1466_13369" x1="81.3505" y1="50.9782" x2="81.3505" y2="46.7302" gradientUnits="userSpaceOnUse">
<stop offset="0.3039" stop-color="#ED1C24"/>
<stop offset="1" stop-color="#EC1C24"/>
</linearGradient>
<linearGradient id="paint3_linear_1466_13369" x1="67.2082" y1="50.9782" x2="67.2082" y2="46.7302" gradientUnits="userSpaceOnUse">
<stop offset="0.3039" stop-color="#ED1C24"/>
<stop offset="1" stop-color="#EC1C24"/>
</linearGradient>
<linearGradient id="paint4_linear_1466_13369" x1="63.2767" y1="50.9781" x2="63.2767" y2="46.7301" gradientUnits="userSpaceOnUse">
<stop offset="0.3039" stop-color="#ED1C24"/>
<stop offset="1" stop-color="#EC1C24"/>
</linearGradient>
<linearGradient id="paint5_linear_1466_13369" x1="78.477" y1="36.1068" x2="78.8084" y2="32.5517" gradientUnits="userSpaceOnUse">
<stop offset="0.7559" stop-color="#3D3D3D"/>
<stop offset="0.7857" stop-color="#424242"/>
<stop offset="0.821" stop-color="#505050"/>
<stop offset="0.8591" stop-color="#686868"/>
<stop offset="0.8991" stop-color="#8A8A8A"/>
<stop offset="0.9408" stop-color="#B5B5B5"/>
<stop offset="0.9831" stop-color="#E8E8E8"/>
<stop offset="1" stop-color="white"/>
</linearGradient>
<linearGradient id="paint6_linear_1466_13369" x1="78.545" y1="36.1131" x2="78.8765" y2="32.5579" gradientUnits="userSpaceOnUse">
<stop offset="0.7559" stop-color="#3D3D3D"/>
<stop offset="0.7857" stop-color="#424242"/>
<stop offset="0.821" stop-color="#505050"/>
<stop offset="0.8591" stop-color="#686868"/>
<stop offset="0.8991" stop-color="#8A8A8A"/>
<stop offset="0.9408" stop-color="#B5B5B5"/>
<stop offset="0.9831" stop-color="#E8E8E8"/>
<stop offset="1" stop-color="white"/>
</linearGradient>
<linearGradient id="paint7_linear_1466_13369" x1="78.626" y1="36.1207" x2="78.9574" y2="32.5656" gradientUnits="userSpaceOnUse">
<stop offset="0.7559" stop-color="#3D3D3D"/>
<stop offset="0.7857" stop-color="#424242"/>
<stop offset="0.821" stop-color="#505050"/>
<stop offset="0.8591" stop-color="#686868"/>
<stop offset="0.8991" stop-color="#8A8A8A"/>
<stop offset="0.9408" stop-color="#B5B5B5"/>
<stop offset="0.9831" stop-color="#E8E8E8"/>
<stop offset="1" stop-color="white"/>
</linearGradient>
<linearGradient id="paint8_linear_1466_13369" x1="78.7017" y1="36.1276" x2="79.0331" y2="32.5724" gradientUnits="userSpaceOnUse">
<stop offset="0.7559" stop-color="#3D3D3D"/>
<stop offset="0.7857" stop-color="#424242"/>
<stop offset="0.821" stop-color="#505050"/>
<stop offset="0.8591" stop-color="#686868"/>
<stop offset="0.8991" stop-color="#8A8A8A"/>
<stop offset="0.9408" stop-color="#B5B5B5"/>
<stop offset="0.9831" stop-color="#E8E8E8"/>
<stop offset="1" stop-color="white"/>
</linearGradient>
<linearGradient id="paint9_linear_1466_13369" x1="75.009" y1="35.7835" x2="75.3404" y2="32.2284" gradientUnits="userSpaceOnUse">
<stop offset="0.7559" stop-color="#3D3D3D"/>
<stop offset="0.7857" stop-color="#424242"/>
<stop offset="0.821" stop-color="#505050"/>
<stop offset="0.8591" stop-color="#686868"/>
<stop offset="0.8991" stop-color="#8A8A8A"/>
<stop offset="0.9408" stop-color="#B5B5B5"/>
<stop offset="0.9831" stop-color="#E8E8E8"/>
<stop offset="1" stop-color="white"/>
</linearGradient>
<linearGradient id="paint10_linear_1466_13369" x1="76.4785" y1="35.9205" x2="76.8099" y2="32.3654" gradientUnits="userSpaceOnUse">
<stop offset="0.7559" stop-color="#3D3D3D"/>
<stop offset="0.7857" stop-color="#424242"/>
<stop offset="0.821" stop-color="#505050"/>
<stop offset="0.8591" stop-color="#686868"/>
<stop offset="0.8991" stop-color="#8A8A8A"/>
<stop offset="0.9408" stop-color="#B5B5B5"/>
<stop offset="0.9831" stop-color="#E8E8E8"/>
<stop offset="1" stop-color="white"/>
</linearGradient>
<linearGradient id="paint11_linear_1466_13369" x1="77.8736" y1="36.0506" x2="78.205" y2="32.4955" gradientUnits="userSpaceOnUse">
<stop offset="0.7559" stop-color="#3D3D3D"/>
<stop offset="0.7857" stop-color="#424242"/>
<stop offset="0.821" stop-color="#505050"/>
<stop offset="0.8591" stop-color="#686868"/>
<stop offset="0.8991" stop-color="#8A8A8A"/>
<stop offset="0.9408" stop-color="#B5B5B5"/>
<stop offset="0.9831" stop-color="#E8E8E8"/>
<stop offset="1" stop-color="white"/>
</linearGradient>
<linearGradient id="paint12_linear_1466_13369" x1="79.2" y1="36.1742" x2="79.5314" y2="32.6191" gradientUnits="userSpaceOnUse">
<stop offset="0.7559" stop-color="#3D3D3D"/>
<stop offset="0.7857" stop-color="#424242"/>
<stop offset="0.821" stop-color="#505050"/>
<stop offset="0.8591" stop-color="#686868"/>
<stop offset="0.8991" stop-color="#8A8A8A"/>
<stop offset="0.9408" stop-color="#B5B5B5"/>
<stop offset="0.9831" stop-color="#E8E8E8"/>
<stop offset="1" stop-color="white"/>
</linearGradient>
<linearGradient id="paint13_linear_1466_13369" x1="80.4627" y1="36.2919" x2="80.7941" y2="32.7368" gradientUnits="userSpaceOnUse">
<stop offset="0.7559" stop-color="#3D3D3D"/>
<stop offset="0.7857" stop-color="#424242"/>
<stop offset="0.821" stop-color="#505050"/>
<stop offset="0.8591" stop-color="#686868"/>
<stop offset="0.8991" stop-color="#8A8A8A"/>
<stop offset="0.9408" stop-color="#B5B5B5"/>
<stop offset="0.9831" stop-color="#E8E8E8"/>
<stop offset="1" stop-color="white"/>
</linearGradient>
<linearGradient id="paint14_linear_1466_13369" x1="81.6717" y1="36.4046" x2="82.0031" y2="32.8495" gradientUnits="userSpaceOnUse">
<stop offset="0.7559" stop-color="#3D3D3D"/>
<stop offset="0.7857" stop-color="#424242"/>
<stop offset="0.821" stop-color="#505050"/>
<stop offset="0.8591" stop-color="#686868"/>
<stop offset="0.8991" stop-color="#8A8A8A"/>
<stop offset="0.9408" stop-color="#B5B5B5"/>
<stop offset="0.9831" stop-color="#E8E8E8"/>
<stop offset="1" stop-color="white"/>
</linearGradient>
<linearGradient id="paint15_linear_1466_13369" x1="82.8195" y1="36.5116" x2="83.1509" y2="32.9565" gradientUnits="userSpaceOnUse">
<stop offset="0.7559" stop-color="#3D3D3D"/>
<stop offset="0.7857" stop-color="#424242"/>
<stop offset="0.821" stop-color="#505050"/>
<stop offset="0.8591" stop-color="#686868"/>
<stop offset="0.8991" stop-color="#8A8A8A"/>
<stop offset="0.9408" stop-color="#B5B5B5"/>
<stop offset="0.9831" stop-color="#E8E8E8"/>
<stop offset="1" stop-color="white"/>
</linearGradient>
<linearGradient id="paint16_linear_1466_13369" x1="76.9423" y1="35.9636" x2="77.2737" y2="32.4085" gradientUnits="userSpaceOnUse">
<stop offset="0.7559" stop-color="#3D3D3D"/>
<stop offset="0.7857" stop-color="#424242"/>
<stop offset="0.821" stop-color="#505050"/>
<stop offset="0.8591" stop-color="#686868"/>
<stop offset="0.8991" stop-color="#8A8A8A"/>
<stop offset="0.9408" stop-color="#B5B5B5"/>
<stop offset="0.9831" stop-color="#E8E8E8"/>
<stop offset="1" stop-color="white"/>
</linearGradient>
<linearGradient id="paint17_linear_1466_13369" x1="77.5138" y1="36.0169" x2="77.8452" y2="32.4618" gradientUnits="userSpaceOnUse">
<stop offset="0.7559" stop-color="#3D3D3D"/>
<stop offset="0.7857" stop-color="#424242"/>
<stop offset="0.821" stop-color="#505050"/>
<stop offset="0.8591" stop-color="#686868"/>
<stop offset="0.8991" stop-color="#8A8A8A"/>
<stop offset="0.9408" stop-color="#B5B5B5"/>
<stop offset="0.9831" stop-color="#E8E8E8"/>
<stop offset="1" stop-color="white"/>
</linearGradient>
<linearGradient id="paint18_linear_1466_13369" x1="77.2582" y1="35.9931" x2="77.5896" y2="32.438" gradientUnits="userSpaceOnUse">
<stop offset="0.7559" stop-color="#3D3D3D"/>
<stop offset="0.7857" stop-color="#424242"/>
<stop offset="0.821" stop-color="#505050"/>
<stop offset="0.8591" stop-color="#686868"/>
<stop offset="0.8991" stop-color="#8A8A8A"/>
<stop offset="0.9408" stop-color="#B5B5B5"/>
<stop offset="0.9831" stop-color="#E8E8E8"/>
<stop offset="1" stop-color="white"/>
</linearGradient>
<linearGradient id="paint19_linear_1466_13369" x1="76.9905" y1="35.9681" x2="77.3219" y2="32.413" gradientUnits="userSpaceOnUse">
<stop offset="0.7559" stop-color="#3D3D3D"/>
<stop offset="0.7857" stop-color="#424242"/>
<stop offset="0.821" stop-color="#505050"/>
<stop offset="0.8591" stop-color="#686868"/>
<stop offset="0.8991" stop-color="#8A8A8A"/>
<stop offset="0.9408" stop-color="#B5B5B5"/>
<stop offset="0.9831" stop-color="#E8E8E8"/>
<stop offset="1" stop-color="white"/>
</linearGradient>
<linearGradient id="paint20_linear_1466_13369" x1="72.4702" y1="35.5467" x2="72.8016" y2="31.9916" gradientUnits="userSpaceOnUse">
<stop offset="0.7559" stop-color="#3D3D3D"/>
<stop offset="0.7857" stop-color="#424242"/>
<stop offset="0.821" stop-color="#505050"/>
<stop offset="0.8591" stop-color="#686868"/>
<stop offset="0.8991" stop-color="#8A8A8A"/>
<stop offset="0.9408" stop-color="#B5B5B5"/>
<stop offset="0.9831" stop-color="#E8E8E8"/>
<stop offset="1" stop-color="white"/>
</linearGradient>
<linearGradient id="paint21_linear_1466_13369" x1="74.5504" y1="35.7407" x2="74.8818" y2="32.1856" gradientUnits="userSpaceOnUse">
<stop offset="0.7559" stop-color="#3D3D3D"/>
<stop offset="0.7857" stop-color="#424242"/>
<stop offset="0.821" stop-color="#505050"/>
<stop offset="0.8591" stop-color="#686868"/>
<stop offset="0.8991" stop-color="#8A8A8A"/>
<stop offset="0.9408" stop-color="#B5B5B5"/>
<stop offset="0.9831" stop-color="#E8E8E8"/>
<stop offset="1" stop-color="white"/>
</linearGradient>
<linearGradient id="paint22_linear_1466_13369" x1="76.4694" y1="35.9196" x2="76.8008" y2="32.3645" gradientUnits="userSpaceOnUse">
<stop offset="0.7559" stop-color="#3D3D3D"/>
<stop offset="0.7857" stop-color="#424242"/>
<stop offset="0.821" stop-color="#505050"/>
<stop offset="0.8591" stop-color="#686868"/>
<stop offset="0.8991" stop-color="#8A8A8A"/>
<stop offset="0.9408" stop-color="#B5B5B5"/>
<stop offset="0.9831" stop-color="#E8E8E8"/>
<stop offset="1" stop-color="white"/>
</linearGradient>
<linearGradient id="paint23_linear_1466_13369" x1="78.2452" y1="36.0851" x2="78.5766" y2="32.53" gradientUnits="userSpaceOnUse">
<stop offset="0.7559" stop-color="#3D3D3D"/>
<stop offset="0.7857" stop-color="#424242"/>
<stop offset="0.821" stop-color="#505050"/>
<stop offset="0.8591" stop-color="#686868"/>
<stop offset="0.8991" stop-color="#8A8A8A"/>
<stop offset="0.9408" stop-color="#B5B5B5"/>
<stop offset="0.9831" stop-color="#E8E8E8"/>
<stop offset="1" stop-color="white"/>
</linearGradient>
<linearGradient id="paint24_linear_1466_13369" x1="79.8934" y1="36.2387" x2="80.2248" y2="32.6836" gradientUnits="userSpaceOnUse">
<stop offset="0.7559" stop-color="#3D3D3D"/>
<stop offset="0.7857" stop-color="#424242"/>
<stop offset="0.821" stop-color="#505050"/>
<stop offset="0.8591" stop-color="#686868"/>
<stop offset="0.8991" stop-color="#8A8A8A"/>
<stop offset="0.9408" stop-color="#B5B5B5"/>
<stop offset="0.9831" stop-color="#E8E8E8"/>
<stop offset="1" stop-color="white"/>
</linearGradient>
<linearGradient id="paint25_linear_1466_13369" x1="81.4271" y1="36.3817" x2="81.7585" y2="32.8266" gradientUnits="userSpaceOnUse">
<stop offset="0.7559" stop-color="#3D3D3D"/>
<stop offset="0.7857" stop-color="#424242"/>
<stop offset="0.821" stop-color="#505050"/>
<stop offset="0.8591" stop-color="#686868"/>
<stop offset="0.8991" stop-color="#8A8A8A"/>
<stop offset="0.9408" stop-color="#B5B5B5"/>
<stop offset="0.9831" stop-color="#E8E8E8"/>
<stop offset="1" stop-color="white"/>
</linearGradient>
<linearGradient id="paint26_linear_1466_13369" x1="82.858" y1="36.5151" x2="83.1894" y2="32.96" gradientUnits="userSpaceOnUse">
<stop offset="0.7559" stop-color="#3D3D3D"/>
<stop offset="0.7857" stop-color="#424242"/>
<stop offset="0.821" stop-color="#505050"/>
<stop offset="0.8591" stop-color="#686868"/>
<stop offset="0.8991" stop-color="#8A8A8A"/>
<stop offset="0.9408" stop-color="#B5B5B5"/>
<stop offset="0.9831" stop-color="#E8E8E8"/>
<stop offset="1" stop-color="white"/>
</linearGradient>
<linearGradient id="paint27_linear_1466_13369" x1="88.1836" y1="33.5402" x2="11.264" y2="33.5402" gradientUnits="userSpaceOnUse">
<stop offset="0.7559" stop-color="#3D3D3D"/>
<stop offset="1" stop-color="#3D3D3D" stop-opacity="0.1"/>
</linearGradient>
<linearGradient id="paint28_linear_1466_13369" x1="88.1838" y1="26.3132" x2="11.2637" y2="26.3132" gradientUnits="userSpaceOnUse">
<stop offset="0.7559" stop-color="#3D3D3D"/>
<stop offset="1" stop-color="#3D3D3D" stop-opacity="0.1"/>
</linearGradient>
<linearGradient id="paint29_linear_1466_13369" x1="88.8178" y1="23.7631" x2="9.13869" y2="23.7631" gradientUnits="userSpaceOnUse">
<stop offset="0.7559" stop-color="#3D3D3D"/>
<stop offset="1" stop-color="#3D3D3D" stop-opacity="0.1"/>
</linearGradient>
<linearGradient id="paint30_linear_1466_13369" x1="33.5017" y1="30.4032" x2="0.962428" y2="30.4032" gradientUnits="userSpaceOnUse">
<stop offset="0.5899" stop-color="#ED1C24"/>
<stop offset="0.7464" stop-color="#ED1E26"/>
<stop offset="0.8027" stop-color="#EE252C"/>
<stop offset="0.8429" stop-color="#EF3038"/>
<stop offset="0.8754" stop-color="#F04148"/>
<stop offset="0.9032" stop-color="#F2575D"/>
<stop offset="0.9278" stop-color="#F47378"/>
<stop offset="0.9501" stop-color="#F69397"/>
<stop offset="0.9706" stop-color="#F9B9BB"/>
<stop offset="0.9889" stop-color="#FDE2E3"/>
<stop offset="1" stop-color="white"/>
</linearGradient>
<linearGradient id="paint31_linear_1466_13369" x1="33.5012" y1="14.8477" x2="0.962831" y2="14.8477" gradientUnits="userSpaceOnUse">
<stop offset="0.5899" stop-color="#ED1C24"/>
<stop offset="0.7464" stop-color="#ED1E26"/>
<stop offset="0.8027" stop-color="#EE252C"/>
<stop offset="0.8429" stop-color="#EF3038"/>
<stop offset="0.8754" stop-color="#F04148"/>
<stop offset="0.9032" stop-color="#F2575D"/>
<stop offset="0.9278" stop-color="#F47378"/>
<stop offset="0.9501" stop-color="#F69397"/>
<stop offset="0.9706" stop-color="#F9B9BB"/>
<stop offset="0.9889" stop-color="#FDE2E3"/>
<stop offset="1" stop-color="white"/>
</linearGradient>
<radialGradient id="paint32_radial_1466_13369" cx="0" cy="0" r="1" gradientUnits="userSpaceOnUse" gradientTransform="translate(47.353 35.5791) scale(5.86772 5.86773)">
<stop stop-color="#ED1C24"/>
<stop offset="0.3279" stop-color="#ED1E26"/>
<stop offset="0.4688" stop-color="#EE252D"/>
<stop offset="0.5738" stop-color="#EF3239"/>
<stop offset="0.6611" stop-color="#F0444A"/>
<stop offset="0.7374" stop-color="#F25B60"/>
<stop offset="0.8059" stop-color="#F4777C"/>
<stop offset="0.8686" stop-color="#F7999D"/>
<stop offset="0.9269" stop-color="#FAC1C3"/>
<stop offset="0.9795" stop-color="#FDECED"/>
<stop offset="1" stop-color="white"/>
</radialGradient>
<radialGradient id="paint33_radial_1466_13369" cx="0" cy="0" r="1" gradientUnits="userSpaceOnUse" gradientTransform="translate(46.9463 35.692) scale(5.86773 5.86773)">
<stop stop-color="#ED1C24"/>
<stop offset="0.3279" stop-color="#ED1E26"/>
<stop offset="0.4688" stop-color="#EE252D"/>
<stop offset="0.5738" stop-color="#EF3239"/>
<stop offset="0.6611" stop-color="#F0444A"/>
<stop offset="0.7374" stop-color="#F25B60"/>
<stop offset="0.8059" stop-color="#F4777C"/>
<stop offset="0.8686" stop-color="#F7999D"/>
<stop offset="0.9269" stop-color="#FAC1C3"/>
<stop offset="0.9795" stop-color="#FDECED"/>
<stop offset="1" stop-color="white"/>
</radialGradient>
<radialGradient id="paint34_radial_1466_13369" cx="0" cy="0" r="1" gradientUnits="userSpaceOnUse" gradientTransform="translate(46.9463 35.692) scale(5.86773 5.86772)">
<stop stop-color="#ED1C24"/>
<stop offset="0.3279" stop-color="#ED1E26"/>
<stop offset="0.4688" stop-color="#EE252D"/>
<stop offset="0.5738" stop-color="#EF3239"/>
<stop offset="0.6611" stop-color="#F0444A"/>
<stop offset="0.7374" stop-color="#F25B60"/>
<stop offset="0.8059" stop-color="#F4777C"/>
<stop offset="0.8686" stop-color="#F7999D"/>
<stop offset="0.9269" stop-color="#FAC1C3"/>
<stop offset="0.9795" stop-color="#FDECED"/>
<stop offset="1" stop-color="white"/>
</radialGradient>
<radialGradient id="paint35_radial_1466_13369" cx="0" cy="0" r="1" gradientUnits="userSpaceOnUse" gradientTransform="translate(46.9463 35.692) scale(5.86773 5.86773)">
<stop stop-color="#ED1C24"/>
<stop offset="0.3279" stop-color="#ED1E26"/>
<stop offset="0.4688" stop-color="#EE252D"/>
<stop offset="0.5738" stop-color="#EF3239"/>
<stop offset="0.6611" stop-color="#F0444A"/>
<stop offset="0.7374" stop-color="#F25B60"/>
<stop offset="0.8059" stop-color="#F4777C"/>
<stop offset="0.8686" stop-color="#F7999D"/>
<stop offset="0.9269" stop-color="#FAC1C3"/>
<stop offset="0.9795" stop-color="#FDECED"/>
<stop offset="1" stop-color="white"/>
</radialGradient>
<radialGradient id="paint36_radial_1466_13369" cx="0" cy="0" r="1" gradientUnits="userSpaceOnUse" gradientTransform="translate(46.9462 35.692) scale(5.86772 5.86773)">
<stop stop-color="#ED1C24"/>
<stop offset="0.3279" stop-color="#ED1E26"/>
<stop offset="0.4688" stop-color="#EE252D"/>
<stop offset="0.5738" stop-color="#EF3239"/>
<stop offset="0.6611" stop-color="#F0444A"/>
<stop offset="0.7374" stop-color="#F25B60"/>
<stop offset="0.8059" stop-color="#F4777C"/>
<stop offset="0.8686" stop-color="#F7999D"/>
<stop offset="0.9269" stop-color="#FAC1C3"/>
<stop offset="0.9795" stop-color="#FDECED"/>
<stop offset="1" stop-color="white"/>
</radialGradient>
<linearGradient id="paint37_linear_1466_13369" x1="81.8577" y1="47.1574" x2="73.8929" y2="17.7651" gradientUnits="userSpaceOnUse">
<stop offset="0.7559" stop-color="#3D3D3D"/>
<stop offset="0.7857" stop-color="#424242"/>
<stop offset="0.821" stop-color="#505050"/>
<stop offset="0.8591" stop-color="#686868"/>
<stop offset="0.8991" stop-color="#8A8A8A"/>
<stop offset="0.9408" stop-color="#B5B5B5"/>
<stop offset="0.9831" stop-color="#E8E8E8"/>
<stop offset="1" stop-color="white"/>
</linearGradient>
<linearGradient id="paint38_linear_1466_13369" x1="78.9155" y1="46.09" x2="71.6664" y2="19.3391" gradientUnits="userSpaceOnUse">
<stop offset="0.7559" stop-color="#3D3D3D"/>
<stop offset="0.7857" stop-color="#424242"/>
<stop offset="0.821" stop-color="#505050"/>
<stop offset="0.8591" stop-color="#686868"/>
<stop offset="0.8991" stop-color="#8A8A8A"/>
<stop offset="0.9408" stop-color="#B5B5B5"/>
<stop offset="0.9831" stop-color="#E8E8E8"/>
<stop offset="1" stop-color="white"/>
</linearGradient>
<linearGradient id="paint39_linear_1466_13369" x1="81.6618" y1="46.0669" x2="74.1238" y2="18.2495" gradientUnits="userSpaceOnUse">
<stop offset="0.7559" stop-color="#3D3D3D"/>
<stop offset="0.7857" stop-color="#424242"/>
<stop offset="0.821" stop-color="#505050"/>
<stop offset="0.8591" stop-color="#686868"/>
<stop offset="0.8991" stop-color="#8A8A8A"/>
<stop offset="0.9408" stop-color="#B5B5B5"/>
<stop offset="0.9831" stop-color="#E8E8E8"/>
<stop offset="1" stop-color="white"/>
</linearGradient>
<linearGradient id="paint40_linear_1466_13369" x1="80.3032" y1="46.2813" x2="72.8296" y2="18.7019" gradientUnits="userSpaceOnUse">
<stop offset="0.7559" stop-color="#3D3D3D"/>
<stop offset="0.7857" stop-color="#424242"/>
<stop offset="0.821" stop-color="#505050"/>
<stop offset="0.8591" stop-color="#686868"/>
<stop offset="0.8991" stop-color="#8A8A8A"/>
<stop offset="0.9408" stop-color="#B5B5B5"/>
<stop offset="0.9831" stop-color="#E8E8E8"/>
<stop offset="1" stop-color="white"/>
</linearGradient>
<linearGradient id="paint41_linear_1466_13369" x1="83.2359" y1="46.3212" x2="75.411" y2="17.4453" gradientUnits="userSpaceOnUse">
<stop offset="0.7559" stop-color="#3D3D3D"/>
<stop offset="0.7857" stop-color="#424242"/>
<stop offset="0.821" stop-color="#505050"/>
<stop offset="0.8591" stop-color="#686868"/>
<stop offset="0.8991" stop-color="#8A8A8A"/>
<stop offset="0.9408" stop-color="#B5B5B5"/>
<stop offset="0.9831" stop-color="#E8E8E8"/>
<stop offset="1" stop-color="white"/>
</linearGradient>
<linearGradient id="paint42_linear_1466_13369" x1="84.8861" y1="47.0635" x2="76.7288" y2="16.9608" gradientUnits="userSpaceOnUse">
<stop offset="0.7559" stop-color="#3D3D3D"/>
<stop offset="0.7857" stop-color="#424242"/>
<stop offset="0.821" stop-color="#505050"/>
<stop offset="0.8591" stop-color="#686868"/>
<stop offset="0.8991" stop-color="#8A8A8A"/>
<stop offset="0.9408" stop-color="#B5B5B5"/>
<stop offset="0.9831" stop-color="#E8E8E8"/>
<stop offset="1" stop-color="white"/>
</linearGradient>
<linearGradient id="paint43_linear_1466_13369" x1="82.2188" y1="46.8259" x2="74.3483" y2="17.782" gradientUnits="userSpaceOnUse">
<stop offset="0.7559" stop-color="#3D3D3D"/>
<stop offset="0.7857" stop-color="#424242"/>
<stop offset="0.821" stop-color="#505050"/>
<stop offset="0.8591" stop-color="#686868"/>
<stop offset="0.8991" stop-color="#8A8A8A"/>
<stop offset="0.9408" stop-color="#B5B5B5"/>
<stop offset="0.9831" stop-color="#E8E8E8"/>
<stop offset="1" stop-color="white"/>
</linearGradient>
<linearGradient id="paint44_linear_1466_13369" x1="87.6543" y1="44.7533" x2="80.0998" y2="16.8752" gradientUnits="userSpaceOnUse">
<stop offset="0.7559" stop-color="#3D3D3D"/>
<stop offset="0.7857" stop-color="#424242"/>
<stop offset="0.821" stop-color="#505050"/>
<stop offset="0.8591" stop-color="#686868"/>
<stop offset="0.8991" stop-color="#8A8A8A"/>
<stop offset="0.9408" stop-color="#B5B5B5"/>
<stop offset="0.9831" stop-color="#E8E8E8"/>
<stop offset="1" stop-color="white"/>
</linearGradient>
<linearGradient id="paint45_linear_1466_13369" x1="87.7648" y1="44.8167" x2="80.1685" y2="16.7844" gradientUnits="userSpaceOnUse">
<stop offset="0.7559" stop-color="#3D3D3D"/>
<stop offset="0.7857" stop-color="#424242"/>
<stop offset="0.821" stop-color="#505050"/>
<stop offset="0.8591" stop-color="#686868"/>
<stop offset="0.8991" stop-color="#8A8A8A"/>
<stop offset="0.9408" stop-color="#B5B5B5"/>
<stop offset="0.9831" stop-color="#E8E8E8"/>
<stop offset="1" stop-color="white"/>
</linearGradient>
<linearGradient id="paint46_linear_1466_13369" x1="87.2657" y1="44.9603" x2="79.6688" y2="16.9258" gradientUnits="userSpaceOnUse">
<stop offset="0.7559" stop-color="#3D3D3D"/>
<stop offset="0.7857" stop-color="#424242"/>
<stop offset="0.821" stop-color="#505050"/>
<stop offset="0.8591" stop-color="#686868"/>
<stop offset="0.8991" stop-color="#8A8A8A"/>
<stop offset="0.9408" stop-color="#B5B5B5"/>
<stop offset="0.9831" stop-color="#E8E8E8"/>
<stop offset="1" stop-color="white"/>
</linearGradient>
<linearGradient id="paint47_linear_1466_13369" x1="88.6163" y1="44.5662" x2="81.0238" y2="16.5481" gradientUnits="userSpaceOnUse">
<stop offset="0.7559" stop-color="#3D3D3D"/>
<stop offset="0.7857" stop-color="#424242"/>
<stop offset="0.821" stop-color="#505050"/>
<stop offset="0.8591" stop-color="#686868"/>
<stop offset="0.8991" stop-color="#8A8A8A"/>
<stop offset="0.9408" stop-color="#B5B5B5"/>
<stop offset="0.9831" stop-color="#E8E8E8"/>
<stop offset="1" stop-color="white"/>
</linearGradient>
<linearGradient id="paint48_linear_1466_13369" x1="88.2119" y1="44.6866" x2="80.6168" y2="16.6591" gradientUnits="userSpaceOnUse">
<stop offset="0.7559" stop-color="#3D3D3D"/>
<stop offset="0.7857" stop-color="#424242"/>
<stop offset="0.821" stop-color="#505050"/>
<stop offset="0.8591" stop-color="#686868"/>
<stop offset="0.8991" stop-color="#8A8A8A"/>
<stop offset="0.9408" stop-color="#B5B5B5"/>
<stop offset="0.9831" stop-color="#E8E8E8"/>
<stop offset="1" stop-color="white"/>
</linearGradient>
</defs>
</svg>
