<svg width="240" height="112" viewBox="0 0 240 112" fill="none" xmlns="http://www.w3.org/2000/svg">
<g clip-path="url(#clip0_1036_3844)">
<path d="M80.5336 76.2705C79.755 76.102 78.369 76.1612 77.1624 76.4362C75.7437 76.7586 75.1063 77.2576 75.7419 77.5499C78.4683 78.8047 81.904 79.9849 86.0337 81.0458C87.2885 81.3691 88.5825 81.6732 89.9075 81.9591C94.4123 82.9317 99.2878 83.6939 104.346 84.2439C105.524 84.3714 107.301 84.1382 108.319 83.7212C109.212 83.3551 109.218 82.9708 108.408 82.7951C108.296 82.7714 108.169 82.7505 108.026 82.735C103.259 82.2168 98.6339 81.4947 94.3486 80.5695C93.0892 80.2973 91.8589 80.0077 90.6615 79.7008C86.7276 78.6909 83.4621 77.5672 80.8841 76.3798C80.7894 76.337 80.6711 76.3005 80.5336 76.2705Z" fill="url(#paint0_linear_1036_3844)"/>
<path d="M63.9034 76.8688C63.1594 76.7076 61.8536 76.7531 60.668 77.0036C59.2155 77.3113 58.4961 77.8104 59.0553 78.1191C63.001 80.2936 68.4774 82.338 75.4373 84.1255C77.1065 84.5553 78.8275 84.9596 80.5887 85.3394C87.6168 86.8574 95.3188 87.9883 103.29 88.7296C104.504 88.8416 106.276 88.593 107.251 88.1723C108.083 87.8117 108.058 87.4438 107.273 87.2735C107.141 87.2453 106.988 87.2225 106.814 87.2061C99.2054 86.4986 91.7984 85.4131 85.0279 83.9507C83.3314 83.5846 81.675 83.1939 80.0632 82.7805C73.3529 81.0567 68.0849 79.088 64.3104 77.0063C64.2075 76.9507 64.0691 76.9043 63.9034 76.8688Z" fill="url(#paint1_linear_1036_3844)"/>
<path d="M187.502 72.4286C186.982 72.3166 186.17 72.2984 185.26 72.4031C183.703 72.5816 182.454 73.0479 182.464 73.4458C182.518 75.3053 181.442 77.1165 179.284 78.7866C178.204 79.6225 176.856 80.423 175.248 81.1815C173.636 81.9401 171.764 82.6567 169.616 83.3288C169.212 83.4544 168.8 83.5792 168.373 83.703L168.375 83.7021C166.016 84.3878 163.455 84.9925 160.708 85.5215C156.588 86.3147 152.037 86.9385 147.165 87.3847C142.294 87.8309 137.107 88.0977 131.769 88.176C130.316 88.1969 128.688 88.5675 128.133 89.0028C127.768 89.2888 127.959 89.5319 128.545 89.6585C128.85 89.724 129.263 89.7586 129.761 89.7514C137.441 89.6384 145.004 89.164 152.116 88.3016C155.674 87.87 159.116 87.3409 162.384 86.7117C165.653 86.0825 168.744 85.3531 171.585 84.5271L171.587 84.5262C172.097 84.3778 172.594 84.2284 173.082 84.0764C175.67 83.2668 177.92 82.4036 179.828 81.5048C182.69 80.1571 184.778 78.7301 186.14 77.2677C187.501 75.8052 188.14 74.3054 188.095 72.8011C188.091 72.6354 187.87 72.5079 187.502 72.4286Z" fill="url(#paint2_linear_1036_3844)"/>
<path d="M42.0461 77.6538C41.3286 77.499 40.0819 77.5345 38.9163 77.7676C37.4429 78.0617 36.6571 78.5607 37.1616 78.8822C42.4932 82.2834 50.5568 85.4915 61.2711 88.2424C63.4921 88.8134 65.7805 89.3516 68.1244 89.8579C78.5128 92.1007 90.002 93.7089 101.851 94.6751C103.089 94.7761 104.855 94.5148 105.796 94.0913C106.582 93.7362 106.539 93.3802 105.772 93.2144C105.625 93.1825 105.45 93.158 105.249 93.1416C93.8221 92.21 82.6634 90.651 72.5646 88.4701C70.2862 87.9784 68.0607 87.4548 65.8971 86.8984C55.4714 84.2221 47.641 81.1032 42.4905 77.8159C42.3858 77.7485 42.2337 77.6947 42.0461 77.6538Z" fill="url(#paint3_linear_1036_3844)"/>
<path d="M117.504 46.8438C117.257 46.7901 116.936 46.7573 116.552 46.751C104.564 46.5506 92.6346 46.9941 81.4576 48.1196C75.8719 48.6833 70.4728 49.4191 65.3752 50.3315C60.2803 51.244 55.4859 52.3349 51.1413 53.597L51.1431 53.5961C50.4738 53.79 49.8218 53.9876 49.1862 54.1862C45.2013 55.4319 41.8275 56.775 39.0701 58.181C34.9323 60.2909 32.1777 62.5384 30.7198 64.8404C29.2628 67.1434 29.097 69.5037 30.1616 71.8522C30.2198 71.9833 30.4275 72.0844 30.738 72.1518C31.3189 72.2774 32.2624 72.2829 33.2695 72.1408C34.8148 71.9232 35.9303 71.4406 35.7591 71.0645H35.7573C34.4041 68.0804 35.1681 65.1145 38.0084 62.3681C39.4271 60.9949 41.3613 59.6763 43.8008 58.4333C46.2422 57.1885 49.1844 56.0192 52.6502 54.9356C53.2057 54.7617 53.7721 54.5914 54.3503 54.4238L54.3521 54.4229C58.1349 53.3238 62.2955 52.3759 66.7894 51.5709C73.5261 50.3643 81.0287 49.4801 89.013 48.9337C96.9937 48.3882 105.444 48.1815 114.014 48.3263C115.403 48.35 117.095 48.0167 117.796 47.5814C118.305 47.2655 118.154 46.9841 117.504 46.8438Z" fill="url(#paint4_linear_1036_3844)"/>
<path d="M209.356 71.6428C208.804 71.5235 207.923 71.5116 206.96 71.6355C205.407 71.8349 204.228 72.3102 204.324 72.6982C205.011 75.4564 203.877 78.1728 200.965 80.6898C199.51 81.9482 197.612 83.1566 195.283 84.2994C192.951 85.4432 190.188 86.5223 186.973 87.5276C186.419 87.7006 185.851 87.8718 185.271 88.0403C181.754 89.062 177.908 89.9535 173.772 90.7211C167.57 91.8721 160.701 92.7436 153.384 93.3246C146.066 93.9056 138.308 94.1942 130.389 94.1815C128.968 94.1787 127.304 94.5303 126.672 94.9655C126.232 95.2679 126.404 95.531 127.024 95.6649C127.299 95.7241 127.661 95.7578 128.097 95.7587C139.219 95.776 150.208 95.2332 160.499 94.0968C165.643 93.5277 170.613 92.8092 175.312 91.9368C180.013 91.0644 184.442 90.0391 188.482 88.8653L188.483 88.8644C189.151 88.6704 189.801 88.4737 190.437 88.2752C194.133 87.1196 197.304 85.8803 199.944 84.5854C203.906 82.6421 206.674 80.5759 208.318 78.4551C209.962 76.3333 210.486 74.1552 209.945 71.976C209.909 71.8294 209.694 71.7156 209.356 71.6428Z" fill="url(#paint5_linear_1036_3844)"/>
<path d="M171.503 52.6053C162.55 50.6721 152.778 49.2105 142.666 48.2253C141.463 48.1087 139.689 48.3527 138.702 48.7725C137.851 49.135 137.867 49.5083 138.659 49.6795C138.785 49.7068 138.93 49.7287 139.096 49.7451C148.867 50.6976 158.358 52.1145 167.064 53.994C169.342 54.4858 171.568 55.0094 173.729 55.5658C185.48 58.5826 193.933 62.1614 198.97 65.9095C199.074 65.986 199.238 66.0479 199.447 66.0925C200.14 66.2419 201.332 66.2154 202.475 65.9987C203.966 65.7173 204.811 65.2192 204.367 64.8869C199.143 61.0012 190.431 57.3214 178.357 54.2208C176.135 53.6489 173.846 53.1107 171.503 52.6053Z" fill="url(#paint6_linear_1036_3844)"/>
<path d="M13.0991 78.6937C12.4015 78.5434 11.1995 78.5716 10.0512 78.792C8.56417 79.0761 7.73005 79.5751 8.18809 79.9039C15.188 84.9405 26.6208 89.7112 42.3299 93.7453C45.2913 94.5057 48.3382 95.2232 51.4616 95.898C66.3293 99.1088 82.8871 101.341 99.8974 102.585C101.155 102.677 102.918 102.406 103.829 101.981C104.583 101.629 104.523 101.282 103.771 101.12C103.612 101.086 103.421 101.059 103.2 101.044C86.6598 99.8346 70.4599 97.6537 55.9027 94.5093C52.8448 93.8491 49.8589 93.147 46.9559 92.4021C31.5637 88.45 20.384 83.7786 13.5689 78.8731C13.4651 78.7984 13.3039 78.7383 13.0991 78.6937Z" fill="url(#paint7_linear_1036_3844)"/>
<path d="M119.504 38.9379C119.271 38.8878 118.972 38.855 118.616 38.8468C102.077 38.4352 85.5727 38.9452 70.1641 40.4204C62.463 41.158 55.0333 42.1378 48.037 43.368C41.0425 44.5974 34.4824 46.0762 28.5534 47.7991L28.5552 47.7982C27.6756 48.0541 26.8187 48.3118 25.9818 48.574C20.5372 50.2769 15.9586 52.1173 12.2497 54.0478C6.68488 56.9444 3.06699 60.0442 1.2931 63.2223C-0.480782 66.4021 -0.417039 69.6649 1.40693 72.903C1.47614 73.026 1.67921 73.1216 1.97516 73.1853C2.57161 73.3137 3.54689 73.3156 4.5768 73.1644C6.11756 72.9377 7.19756 72.4523 6.98721 72.0798C4.63417 67.9083 5.34718 63.734 9.11077 59.8511C10.9912 57.9097 13.6302 56.0411 17.0186 54.2782C20.407 52.5143 24.5421 50.8551 29.4476 49.3207C30.2025 49.0849 30.9738 48.8518 31.7633 48.6232L31.767 48.6223C37.1105 47.0697 43.0104 45.7375 49.3838 44.6174C58.938 42.9382 69.5686 41.7371 80.832 41.0323C92.0918 40.3275 103.967 40.1198 115.953 40.4185C117.324 40.4522 119.032 40.128 119.766 39.6946C120.309 39.3731 120.169 39.0817 119.504 38.9379Z" fill="url(#paint8_linear_1036_3844)"/>
<path d="M238.299 70.6037C237.723 70.4799 236.795 70.4726 235.797 70.611C234.249 70.825 233.119 71.3067 233.275 71.6856C234.903 75.6376 233.769 79.5642 229.903 83.2149C227.97 85.0407 225.358 86.7973 222.071 88.4592C218.783 90.121 214.828 91.6873 210.176 93.1416C209.421 93.3774 208.65 93.6105 207.861 93.84C202.783 95.3152 197.205 96.591 191.198 97.6746C182.191 99.3001 172.202 100.495 161.607 101.242C151.014 101.991 139.826 102.292 128.476 102.137C127.081 102.118 125.394 102.454 124.706 102.89C124.214 103.202 124.37 103.48 125.013 103.618C125.266 103.673 125.595 103.707 125.989 103.711C141.679 103.925 157.246 103.305 171.772 101.812C179.033 101.066 186.037 100.099 192.64 98.9076C199.242 97.7165 205.443 96.3005 211.071 94.6641C211.948 94.4091 212.808 94.1505 213.643 93.8892C218.804 92.2746 223.188 90.5372 226.791 88.716C232.193 85.9832 235.844 83.0646 237.831 80.0651C239.817 77.0655 240.145 73.9821 238.88 70.9088C238.823 70.7749 238.615 70.6711 238.299 70.6037Z" fill="url(#paint9_linear_1036_3844)"/>
<path d="M188.167 46.5652C174.724 43.6622 159.899 41.5596 144.611 40.2628C143.379 40.1581 141.611 40.4167 140.661 40.8393C139.862 41.1962 139.901 41.5559 140.672 41.7226C140.815 41.7535 140.983 41.7781 141.176 41.7936C156.061 43.0557 170.563 45.1101 183.727 47.953C186.784 48.6132 189.768 49.3162 192.67 50.0602C209.389 54.3528 221.136 59.4942 227.721 64.8614C227.822 64.9443 227.992 65.0098 228.214 65.0581C228.893 65.2047 230.054 65.1828 231.184 64.9752C232.684 64.7002 233.563 64.2039 233.148 63.8661C226.378 58.3486 214.36 53.0989 197.296 48.717C194.335 47.9567 191.289 47.2391 188.167 46.5652Z" fill="url(#paint10_linear_1036_3844)"/>
<path d="M33.1172 63.4592L36.1332 67.3448L64.6 71.2468L120.089 88.4102L148.229 78.5618L129.829 59.6401L36.2042 40.1492L27.5615 50.1933L33.1172 63.4592Z" fill="url(#paint11_linear_1036_3844)"/>
<path d="M147.115 93.6817C146.961 93.75 146.649 93.8702 146.649 93.8702L137.693 97.6702L133.097 95.7998L124.454 89.5493V75.9683L124.886 70.3043L134.957 65.7703C140.004 63.5448 146.788 67.8411 150.109 75.3692C153.428 82.8945 152.164 91.4571 147.115 93.6817Z" fill="url(#paint12_linear_1036_3844)"/>
<path d="M58.8788 74.118L50.7661 77.623L40.8085 70.4528L39.7285 60.69L41.099 54.0106L48.1089 51.612C48.3093 51.5283 48.5133 51.4636 48.7172 51.4026L48.7664 51.3871L48.7691 51.3899C52.917 50.2261 57.9882 53.6582 60.4797 59.5262C63.1551 65.8195 63.1688 72.1328 58.8788 74.118Z" fill="url(#paint13_linear_1036_3844)"/>
<path d="M137.089 97.9645C142.212 95.7043 143.633 87.6787 140.263 80.0389C136.893 72.399 130.007 68.0379 124.884 70.298C119.76 72.5582 118.339 80.5838 121.709 88.2237C125.08 95.8635 131.965 100.225 137.089 97.9645Z" fill="#D8DEE8"/>
<path d="M135.428 93.0792C138.593 91.6831 139.471 86.7255 137.389 82.006C135.307 77.2865 131.054 74.5924 127.889 75.9885C124.724 77.3845 123.846 82.3422 125.928 87.0617C128.01 91.7811 132.264 94.4753 135.428 93.0792Z" fill="white"/>
<path d="M50.4331 77.7681C54.9622 75.996 56.5517 69.238 53.9832 62.6738C51.4148 56.1096 45.661 52.2249 41.1319 53.997C36.6027 55.7692 35.0133 62.5272 37.5817 69.0914C40.1502 75.6556 45.9039 79.5403 50.4331 77.7681Z" fill="#D8DEE8"/>
<path d="M49.2234 73.5556C52.0209 72.461 53.0027 68.2866 51.4162 64.2319C49.8296 60.1772 46.2756 57.7777 43.4781 58.8723C40.6805 59.9669 39.6987 64.1413 41.2852 68.196C42.8718 72.2506 46.4258 74.6502 49.2234 73.5556Z" fill="white"/>
<path d="M153.854 93.0352C150.939 93.1354 148.271 93.19 146.234 93.2192C144.062 93.251 142.168 91.7358 141.738 89.6076C141.099 86.446 140.144 83.9527 139.332 82.1797C138.545 80.4669 132.989 68.3583 124.069 67.6362C122.822 67.5342 121.313 67.4723 119.973 68.362C115.269 71.479 118.13 82.6068 118.13 82.6068L120.056 88.3173L57.542 72.7639C56.2917 72.4525 55.2645 71.5665 54.7746 70.3745C53.6819 67.7155 51.6512 62.8391 50.1459 59.6128C47.985 54.9832 44.1267 50.5075 40.2694 50.5075C36.4111 50.5075 35.485 51.7423 34.7137 54.3658C33.9424 56.9893 35.9485 65.0146 35.9485 67.3293C35.9485 67.3293 29.3893 62.3137 27.7693 60.6937C24.155 57.0794 24.3308 52.3879 24.0658 49.7362C23.0413 39.4762 27.9642 31.2634 30.085 28.1299C34.2055 25.4973 38.3288 22.8611 42.4494 20.2285C45.9216 17.3546 51.3971 13.9561 58.2368 10.7744H58.2395C60.0571 10.4102 62.0177 10.0897 64.1385 9.81738C78.4261 7.99341 97.6802 22.1171 97.6802 22.1171C97.6802 22.1171 130.552 43.5622 150.408 76.0731C152.434 79.3896 155.632 86.8221 153.854 93.0352Z" fill="url(#paint14_linear_1036_3844)"/>
<path d="M205.4 56.0613V74.2628C205.4 76.8225 203.904 79.1464 201.572 80.2028C193.936 83.6604 176.871 91.0774 168.979 92.0199C164.463 92.5599 158.799 92.8622 153.855 93.0352C155.632 86.822 152.435 79.3896 150.407 76.0713C130.551 43.5604 97.6794 22.1153 97.6794 22.1153C97.6794 22.1153 78.4244 7.99066 64.1368 9.81463C62.016 10.086 60.0563 10.4074 58.2378 10.7717C70.0321 5.2843 85.8751 0.437982 102.463 0.0400419C117.161 -0.311457 123.757 1.68826 133.946 5.13313C140.443 7.33046 147.292 11.3527 156.787 16.5532C164.333 20.6865 172.309 27.1373 182.56 32.1403C182.56 32.1403 199.845 41.4004 202.623 46.8012C205.4 52.203 205.4 56.0613 205.4 56.0613Z" fill="url(#paint15_linear_1036_3844)"/>
<path d="M77.8016 26.9179L78.0365 39.9434C70.2216 37.3381 59.2705 33.8322 55.393 32.8597C50.0441 31.5229 41.9141 27.8194 41.9141 27.8194C45.6303 24.5876 49.0469 22.5569 51.3809 21.3376C61.2055 16.1981 73.4379 14.1091 81.1044 16.8929C78.8998 19.754 77.736 23.2535 77.8016 26.9179Z" fill="url(#paint16_linear_1036_3844)"/>
<path d="M120.313 52.305C120.313 52.305 90.4783 44.2797 85.0236 42.3264C83.9619 41.9467 82.3974 41.4067 80.5206 40.7738L80.2702 26.8723C80.2119 23.5577 81.3411 20.3996 83.4647 17.8936C84.6439 18.4336 86.2767 19.2177 88.1097 20.2057C88.9521 20.6628 91.4034 21.965 94.2555 23.9128C97.7122 26.2713 100.564 28.7801 105.395 32.8605C112.701 39.0336 121.855 50.2506 121.855 50.9691C121.855 51.6876 122.371 52.305 120.313 52.305Z" fill="url(#paint17_linear_1036_3844)"/>
<path opacity="0.3" d="M57.8216 18.5229C55.6115 19.316 53.4424 20.2585 51.3799 21.3376C49.046 22.5569 45.6293 24.5876 41.9131 27.8194C41.9131 27.8194 50.0431 31.5229 55.3921 32.8597C59.2686 33.8322 70.2197 37.3381 78.0355 39.9434L77.8598 30.1752C72.4762 28.6717 67.1646 26.7485 62.2927 23.1297C60.5043 21.8521 58.9763 20.2685 57.8216 18.5229Z" fill="url(#paint18_linear_1036_3844)"/>
<path opacity="0.3" d="M97.1705 36.0933C91.8397 33.5754 86.0819 32.3361 80.3413 30.8427L80.5198 40.7739C82.3966 41.4067 83.961 41.9467 85.0228 42.3265C88.464 43.5594 101.611 47.2092 110.846 49.7343C107.694 43.6578 102.825 38.7969 97.1705 36.0933Z" fill="url(#paint19_linear_1036_3844)"/>
<path d="M111.321 53.6045C110.732 54.0398 109.747 53.6327 109.485 53.5152L105.988 50.0185L98.4316 49.5094C98.0646 49.4848 97.7213 49.3492 97.4472 49.1324C97.1695 48.913 96.9564 48.617 96.8426 48.2655C96.6386 47.6263 96.8025 46.9324 97.2715 46.4534C98.6265 45.0702 101.611 42.4039 104.469 42.4039C108.327 42.4039 109.176 46.6291 109.176 46.6291C109.182 46.6574 109.189 46.6847 109.194 46.7129C109.209 46.7867 109.221 46.8604 109.229 46.9333C109.331 47.7956 109.662 48.6289 110.305 49.2135C110.616 49.4967 110.91 49.8454 111.145 50.2753C111.677 51.2396 112.13 53.0089 111.321 53.6045Z" fill="url(#paint20_linear_1036_3844)"/>
<path d="M146.513 12.2888C157.362 18.8716 168.211 25.4545 179.062 32.0374C179.062 32.0374 158.572 43.0358 128.941 48.6944C125.35 45.0984 121.458 41.4022 117.253 37.6613C113.005 33.8814 108.839 30.4146 104.811 27.2402C110.814 23.9829 118.091 20.5818 126.583 17.6414C133.835 15.129 140.571 13.4398 146.513 12.2888Z" fill="url(#paint21_linear_1036_3844)"/>
<path opacity="0.3" d="M146.513 12.2888C143.083 12.9535 139.389 13.7986 135.484 14.8758C144.124 22.6552 151.537 32.1056 150.845 43.2252C168.194 37.8699 179.061 32.0374 179.061 32.0374C168.211 25.4545 157.362 18.8716 146.513 12.2888Z" fill="url(#paint22_linear_1036_3844)"/>
<path d="M136.415 59.3796C138.628 58.2386 145.743 54.9376 153.854 57.2961C158.045 58.5146 165.994 62.2608 166.587 68.0223C166.645 68.5887 166.621 69.0686 166.587 69.411C166.587 69.411 148.993 71.2632 145.52 70.0284C142.048 68.7936 136.415 60.537 136.415 59.3796Z" fill="white"/>
<path d="M200.667 57.6404C199.839 56.4329 198.262 53.7821 197.915 50.0422C197.605 46.712 198.416 44.0904 198.937 42.7463C199.77 43.4247 200.957 44.1723 201.906 45.4344C202.206 45.8333 203.07 46.7366 203.45 48.2391C203.904 50.0321 203.814 52.5336 203.244 54.0562C202.531 55.9557 201.305 57.1149 200.667 57.6404Z" fill="white"/>
<path d="M199.844 66.2129V69.2717L174.997 78.5618V75.5067L199.844 66.2129Z" fill="url(#paint23_linear_1036_3844)"/>
<path d="M199.844 71.2468V74.2164L174.997 83.5065V80.5406L199.844 71.2468Z" fill="url(#paint24_linear_1036_3844)"/>
<path d="M80.779 74.5806C80.5467 74.5806 80.3464 74.4067 80.32 74.1699L78.028 54.0689C77.834 52.5773 77.7302 51.0529 77.7184 49.545C77.7011 47.2757 77.8923 44.9882 78.2866 42.7472L78.313 42.505C78.3421 42.2509 78.5698 42.0688 78.8257 42.097C79.0797 42.1261 79.2619 42.3556 79.2336 42.6097L79.2027 42.8801C78.8138 45.0948 78.6272 47.3249 78.6445 49.5386C78.6554 51.0092 78.7574 52.4963 78.9468 53.9578L81.2397 74.0652C81.2689 74.3193 81.0867 74.5487 80.8318 74.5779C80.8136 74.5797 80.7963 74.5806 80.779 74.5806Z" fill="url(#paint25_linear_1036_3844)"/>
</g>
<defs>
<linearGradient id="paint0_linear_1036_3844" x1="151.1" y1="30.076" x2="-45.206" y2="197.368" gradientUnits="userSpaceOnUse">
<stop offset="0.00359712" stop-color="#1B2469"/>
<stop offset="1" stop-color="#9571F6"/>
</linearGradient>
<linearGradient id="paint1_linear_1036_3844" x1="148.616" y1="27.1613" x2="-47.6899" y2="194.453" gradientUnits="userSpaceOnUse">
<stop offset="0.00359712" stop-color="#1B2469"/>
<stop offset="1" stop-color="#9571F6"/>
</linearGradient>
<linearGradient id="paint2_linear_1036_3844" x1="179.859" y1="63.8222" x2="-16.4474" y2="231.115" gradientUnits="userSpaceOnUse">
<stop offset="0.00359712" stop-color="#1B2469"/>
<stop offset="1" stop-color="#9571F6"/>
</linearGradient>
<linearGradient id="paint3_linear_1036_3844" x1="145.362" y1="23.3427" x2="-50.9436" y2="190.635" gradientUnits="userSpaceOnUse">
<stop offset="0.00359712" stop-color="#1B2469"/>
<stop offset="1" stop-color="#9571F6"/>
</linearGradient>
<linearGradient id="paint4_linear_1036_3844" x1="131.503" y1="7.08103" x2="-64.8025" y2="174.373" gradientUnits="userSpaceOnUse">
<stop offset="0.00359712" stop-color="#1B2469"/>
<stop offset="1" stop-color="#9571F6"/>
</linearGradient>
<linearGradient id="paint5_linear_1036_3844" x1="186.048" y1="71.085" x2="-10.258" y2="238.377" gradientUnits="userSpaceOnUse">
<stop offset="0.00359712" stop-color="#1B2469"/>
<stop offset="1" stop-color="#9571F6"/>
</linearGradient>
<linearGradient id="paint6_linear_1036_3844" x1="172.973" y1="55.743" x2="-23.3322" y2="223.035" gradientUnits="userSpaceOnUse">
<stop offset="0.00359712" stop-color="#E38DDD"/>
<stop offset="1" stop-color="#9571F6"/>
</linearGradient>
<linearGradient id="paint7_linear_1036_3844" x1="141.06" y1="18.2955" x2="-55.2455" y2="185.587" gradientUnits="userSpaceOnUse">
<stop offset="0.00359712" stop-color="#1B2469"/>
<stop offset="1" stop-color="#9571F6"/>
</linearGradient>
<linearGradient id="paint8_linear_1036_3844" x1="123.254" y1="-2.59959" x2="-73.052" y2="164.693" gradientUnits="userSpaceOnUse">
<stop offset="0.00359712" stop-color="#1B2469"/>
<stop offset="1" stop-color="#9571F6"/>
</linearGradient>
<linearGradient id="paint9_linear_1036_3844" x1="194.307" y1="80.7767" x2="-1.99881" y2="248.069" gradientUnits="userSpaceOnUse">
<stop offset="0.00359712" stop-color="#1B2469"/>
<stop offset="1" stop-color="#9571F6"/>
</linearGradient>
<linearGradient id="paint10_linear_1036_3844" x1="177.229" y1="60.7368" x2="-19.0766" y2="228.029" gradientUnits="userSpaceOnUse">
<stop offset="0.00359712" stop-color="#1B2469"/>
<stop offset="1" stop-color="#9571F6"/>
</linearGradient>
<linearGradient id="paint11_linear_1036_3844" x1="63.1553" y1="148.495" x2="85.6446" y2="72.0306" gradientUnits="userSpaceOnUse">
<stop stop-color="#1B2469"/>
<stop offset="1" stop-color="#893976"/>
</linearGradient>
<linearGradient id="paint12_linear_1036_3844" x1="124.454" y1="81.4266" x2="151.952" y2="81.4266" gradientUnits="userSpaceOnUse">
<stop stop-color="#444B8C"/>
<stop offset="0.9964" stop-color="#3E4177"/>
</linearGradient>
<linearGradient id="paint13_linear_1036_3844" x1="39.7282" y1="64.3936" x2="62.3256" y2="64.3936" gradientUnits="userSpaceOnUse">
<stop stop-color="#444B8C"/>
<stop offset="0.9964" stop-color="#3E4177"/>
</linearGradient>
<linearGradient id="paint14_linear_1036_3844" x1="106.902" y1="23.8119" x2="79.3284" y2="89.8645" gradientUnits="userSpaceOnUse">
<stop stop-color="#FCB148"/>
<stop offset="0.0521" stop-color="#FDBA46"/>
<stop offset="0.1424" stop-color="#FFC244"/>
<stop offset="0.3183" stop-color="#FFC444"/>
<stop offset="0.4849" stop-color="#FDB946"/>
<stop offset="0.7754" stop-color="#F99C4D"/>
<stop offset="0.8658" stop-color="#F8924F"/>
<stop offset="1" stop-color="#F8924F"/>
</linearGradient>
<linearGradient id="paint15_linear_1036_3844" x1="198.834" y1="86.4849" x2="104.015" y2="7.90317" gradientUnits="userSpaceOnUse">
<stop stop-color="#FCB148"/>
<stop offset="0.0521" stop-color="#FDBA46"/>
<stop offset="0.1424" stop-color="#FFC244"/>
<stop offset="0.3183" stop-color="#FFC444"/>
<stop offset="0.4849" stop-color="#FDB946"/>
<stop offset="0.7754" stop-color="#F99C4D"/>
<stop offset="0.8658" stop-color="#F8924F"/>
<stop offset="1" stop-color="#F8924F"/>
</linearGradient>
<linearGradient id="paint16_linear_1036_3844" x1="60.5718" y1="46.2467" x2="61.4868" y2="22.913" gradientUnits="userSpaceOnUse">
<stop stop-color="#444B8C"/>
<stop offset="0.9964" stop-color="#3E4177"/>
</linearGradient>
<linearGradient id="paint17_linear_1036_3844" x1="103.589" y1="51.5287" x2="93.5672" y2="27.8402" gradientUnits="userSpaceOnUse">
<stop stop-color="#444B8C"/>
<stop offset="0.9964" stop-color="#3E4177"/>
</linearGradient>
<linearGradient id="paint18_linear_1036_3844" x1="59.5309" y1="45.194" x2="60.3134" y2="25.2389" gradientUnits="userSpaceOnUse">
<stop stop-color="#444B8C"/>
<stop offset="0.9964" stop-color="#3E4177"/>
</linearGradient>
<linearGradient id="paint19_linear_1036_3844" x1="97.7307" y1="50.0923" x2="91.4045" y2="35.1393" gradientUnits="userSpaceOnUse">
<stop stop-color="#444B8C"/>
<stop offset="0.9964" stop-color="#3E4177"/>
</linearGradient>
<linearGradient id="paint20_linear_1036_3844" x1="103.06" y1="59.8351" x2="104.526" y2="47.9518" gradientUnits="userSpaceOnUse">
<stop stop-color="#FCB148"/>
<stop offset="0.0521" stop-color="#FDBA46"/>
<stop offset="0.1424" stop-color="#FFC244"/>
<stop offset="0.3183" stop-color="#FFC444"/>
<stop offset="0.4849" stop-color="#FDB946"/>
<stop offset="0.7754" stop-color="#F99C4D"/>
<stop offset="0.8658" stop-color="#F8924F"/>
<stop offset="1" stop-color="#F8924F"/>
</linearGradient>
<linearGradient id="paint21_linear_1036_3844" x1="166.226" y1="43.7378" x2="133.273" y2="28.4215" gradientUnits="userSpaceOnUse">
<stop stop-color="#444B8C"/>
<stop offset="0.9964" stop-color="#3E4177"/>
</linearGradient>
<linearGradient id="paint22_linear_1036_3844" x1="171.199" y1="38.2244" x2="148.986" y2="27.9001" gradientUnits="userSpaceOnUse">
<stop stop-color="#444B8C"/>
<stop offset="0.9964" stop-color="#3E4177"/>
</linearGradient>
<linearGradient id="paint23_linear_1036_3844" x1="190.108" y1="88.9389" x2="187.433" y2="72.4624" gradientUnits="userSpaceOnUse">
<stop stop-color="#FCB148"/>
<stop offset="0.0521" stop-color="#FDBA46"/>
<stop offset="0.1424" stop-color="#FFC244"/>
<stop offset="0.3183" stop-color="#FFC444"/>
<stop offset="0.4849" stop-color="#FDB946"/>
<stop offset="0.7754" stop-color="#F99C4D"/>
<stop offset="0.8658" stop-color="#F8924F"/>
<stop offset="1" stop-color="#F8924F"/>
</linearGradient>
<linearGradient id="paint24_linear_1036_3844" x1="190.079" y1="93.7501" x2="187.432" y2="77.4511" gradientUnits="userSpaceOnUse">
<stop stop-color="#FCB148"/>
<stop offset="0.0521" stop-color="#FDBA46"/>
<stop offset="0.1424" stop-color="#FFC244"/>
<stop offset="0.3183" stop-color="#FFC444"/>
<stop offset="0.4849" stop-color="#FDB946"/>
<stop offset="0.7754" stop-color="#F99C4D"/>
<stop offset="0.8658" stop-color="#F8924F"/>
<stop offset="1" stop-color="#F8924F"/>
</linearGradient>
<linearGradient id="paint25_linear_1036_3844" x1="75.1171" y1="59.6089" x2="100.942" y2="52.5612" gradientUnits="userSpaceOnUse">
<stop stop-color="#FCB148"/>
<stop offset="0.0521" stop-color="#FDBA46"/>
<stop offset="0.1424" stop-color="#FFC244"/>
<stop offset="0.3183" stop-color="#FFC444"/>
<stop offset="0.4849" stop-color="#FDB946"/>
<stop offset="0.7754" stop-color="#F99C4D"/>
<stop offset="0.8658" stop-color="#F8924F"/>
<stop offset="1" stop-color="#F8924F"/>
</linearGradient>
<clipPath id="clip0_1036_3844">
<rect width="239.628" height="111.602" fill="white"/>
</clipPath>
</defs>
</svg>
