<svg xmlns="http://www.w3.org/2000/svg" width="18.146" height="11.361" viewBox="0 0 18.146 11.361">
  <g id="arrow" transform="translate(18.146 43.203) rotate(180)">
    <g id="Group_95121" data-name="Group 95121" transform="translate(0 31.842)">
      <path id="Path_123550" data-name="Path 123550" d="M17.349,36.592a.947.947,0,0,0-.164-.012H2.941l.2-.095a1.9,1.9,0,0,0,.536-.379L6.3,33.486a.981.981,0,0,0,.137-1.256.948.948,0,0,0-1.422-.123L.278,36.846a.948.948,0,0,0,0,1.34h0l4.739,4.739a.948.948,0,0,0,1.422-.095A.981.981,0,0,0,6.3,41.576L3.685,38.95a1.9,1.9,0,0,0-.474-.346l-.284-.128H17.133a.981.981,0,0,0,1-.8A.948.948,0,0,0,17.349,36.592Z" transform="translate(0 -31.842)" fill="#2f60d0"/>
    </g>
  </g>
</svg>
