<svg xmlns="http://www.w3.org/2000/svg" width="20" height="20" viewBox="0 0 20 20">
  <g id="Layer_22" data-name="Layer 22" transform="translate(-2.001 -2)">
    <g id="Path_123551" data-name="Path 123551" fill="#fff">
      <path d="M15.572,9.471,13.007,12l2.564,2.529a.725.725,0,1,1-1.007,1.043L12,13.007,9.472,15.571a.712.712,0,1,1-1.007-1.007L10.993,12,8.465,9.471A.714.714,0,0,1,9.472,8.464L12,10.993l2.529-2.529a.725.725,0,1,1,1.043,1.007Zm3.5,9.6a10,10,0,1,1,0-14.143,10,10,0,0,1,0,14.143ZM18.065,5.936a8.571,8.571,0,1,0,2.521,6.071,8.571,8.571,0,0,0-2.521-6.071Z" stroke="none"/>
      <path d="M 12.00101757049561 2 C 14.56018924713135 2 17.11904525756836 2.976093292236328 19.07172012329102 4.928567886352539 C 22.97743988037109 8.833898544311523 22.97743988037109 15.16609764099121 19.07172012329102 19.0714282989502 C 15.1663703918457 22.97637748718262 8.83491039276123 22.97615814208984 4.929819107055664 19.07094764709473 C 1.024740219116211 15.16573810577393 1.024740219116211 8.834267616271973 4.929819107055664 4.929058074951172 C 6.882360458374023 2.976448059082031 9.44184684753418 2 12.00101757049561 2 Z M 12.01425170898438 20.57857131958008 C 14.2031078338623 20.57857131958008 16.39181900024414 19.74552726745605 18.0645694732666 18.07857894897461 C 19.67847061157227 16.47026824951172 20.58562088012695 14.28558826446533 20.58562088012695 12.00714778900146 C 20.58562088012695 9.728697776794434 19.67847061157227 7.544017791748047 18.0645694732666 5.935718536376953 C 14.71415996551514 2.596916198730469 9.292448997497559 2.603187561035156 5.949769973754883 5.949737548828125 C 2.607099533081055 9.29627799987793 2.607089996337891 14.71799850463867 5.949769973754883 18.06454849243164 C 7.623554229736328 19.74027442932129 9.818974494934082 20.57857131958008 12.01425170898438 20.57857131958008 Z M 15.050368309021 8.242959976196289 C 15.23165607452393 8.242959976196289 15.41315650939941 8.310542106628418 15.55385971069336 8.446428298950195 C 15.84183979034424 8.72453784942627 15.84982967376709 9.18344783782959 15.57172012329102 9.471427917480469 L 13.00743007659912 11.99999809265137 L 15.57172012329102 14.52856826782227 C 15.71597003936768 14.66361808776855 15.79782962799072 14.85239791870117 15.79782962799072 15.04999828338623 C 15.79782962799072 15.24759769439697 15.71597003936768 15.43637847900391 15.57172012329102 15.5714282989502 C 15.43691921234131 15.70512962341309 15.25434112548828 15.77962779998779 15.06457042694092 15.77856826782227 C 14.87718963623047 15.77777767181396 14.6976203918457 15.70338821411133 14.56457042694092 15.5714282989502 L 12.00028991699219 13.0071382522583 L 9.471719741821289 15.5714282989502 C 9.337691307067871 15.70436000823975 9.15630054473877 15.77855205535889 8.967576026916504 15.77857971191406 C 8.779203414916992 15.77857971191406 8.598390579223633 15.70415687561035 8.464570045471191 15.5714282989502 C 8.187629699707031 15.29282855987549 8.187629699707031 14.8428783416748 8.464570045471191 14.56428813934326 L 10.99314022064209 11.99999809265137 L 8.464570045471191 9.471427917480469 C 8.221879959106445 9.188028335571289 8.238189697265625 8.765578269958496 8.502030372619629 8.501738548278809 C 8.765860557556152 8.237908363342285 9.188320159912109 8.221588134765625 9.471719741821289 8.464287757873535 L 12.00028991699219 10.99285793304443 L 14.52886009216309 8.464287757873535 C 14.67108917236328 8.317010879516602 14.86061191558838 8.242959976196289 15.050368309021 8.242959976196289 Z" stroke="none" fill="#e0e4f5"/>
    </g>
  </g>
</svg>
