<svg width="197" height="72" viewBox="0 0 197 72" fill="none" xmlns="http://www.w3.org/2000/svg">
<path d="M185.687 0H11.2538C5.03849 0 0 5.68862 0 12.7059V59.2941C0 66.3114 5.03849 72 11.2538 72H185.687C191.903 72 196.941 66.3114 196.941 59.2941V12.7059C196.941 5.68862 191.903 0 185.687 0Z" fill="#080A1F"/>
<path d="M54.758 34.5579C53.7426 29.4502 58.593 26.4537 58.593 26.4537C57.3428 24.7678 55.5573 23.5564 53.5287 23.0178C51.383 22.4926 49.1184 22.7911 47.1821 23.8543C46.4344 24.2126 45.6294 24.4366 44.804 24.516C42.5148 24.516 40.8408 22.0913 36.4785 23.1957C33.4735 23.9538 30.3098 27.4236 29.738 31.5604C29.3146 36.2764 30.3767 41.0068 32.7758 45.089C35.1539 49.1888 37.5765 50.7293 39.296 50.7738C41.0155 50.8183 42.7319 49.5424 44.8019 49.2311C46.8719 48.9198 48.1478 49.9818 50.1796 50.5536C52.2115 51.1253 52.9125 50.5949 55.244 48.6127C57.5755 46.6306 59.6963 40.9437 59.6963 40.9437C58.393 40.3946 57.2536 39.5183 56.3884 38.3995C55.5232 37.2807 54.9616 35.9575 54.758 34.5579Z" fill="white"/>
<path d="M49.663 20.2131C51.912 17.9218 51.1507 14.3748 51.1507 14.3748C49.1695 14.7792 47.3421 15.7333 45.8778 17.1277C43.7601 19.33 44.1138 22.8093 44.1138 22.8093C46.1908 22.5501 48.133 21.6415 49.663 20.2131Z" fill="white"/>
<path d="M75.0102 47.6099L73.9482 50.7419H72.0042L76.6482 38.3219H78.2682L82.7682 50.7419H80.7522L79.6902 47.6099H75.0102ZM75.3702 46.1339H79.3302L77.3682 40.3919H77.3862L75.3702 46.1339ZM85.8583 42.4439C86.1943 42.1079 86.5903 41.8439 87.0463 41.6519C87.5023 41.4599 87.9703 41.3639 88.4503 41.3639C89.6023 41.3639 90.4783 41.7899 91.0783 42.6419C91.6783 43.4939 91.9783 44.6399 91.9783 46.0799C91.9783 47.0159 91.8403 47.8439 91.5643 48.5639C91.2883 49.2719 90.8743 49.8239 90.3223 50.2199C89.7823 50.6159 89.1283 50.8139 88.3603 50.8139C87.8923 50.8139 87.4423 50.7239 87.0103 50.5439C86.5783 50.3639 86.1943 50.1059 85.8583 49.7699H85.8943V53.8739H84.0763V41.5439H85.8763L85.8943 42.4439H85.8583ZM85.8943 48.6179C86.1103 48.7979 86.3863 48.9599 86.7223 49.1039C87.0583 49.2479 87.4243 49.3199 87.8203 49.3199C88.5403 49.3199 89.0983 49.0379 89.4943 48.4739C89.8903 47.9099 90.0883 47.1119 90.0883 46.0799C90.0883 45.1319 89.8903 44.3879 89.4943 43.8479C89.0983 43.2959 88.5403 43.0199 87.8203 43.0199C87.4243 43.0199 87.0583 43.0919 86.7223 43.2359C86.3863 43.3799 86.1103 43.5479 85.8943 43.7399V48.6179ZM95.5615 42.4439C95.8975 42.1079 96.2935 41.8439 96.7495 41.6519C97.2055 41.4599 97.6735 41.3639 98.1535 41.3639C99.3055 41.3639 100.181 41.7899 100.781 42.6419C101.381 43.4939 101.681 44.6399 101.681 46.0799C101.681 47.0159 101.543 47.8439 101.267 48.5639C100.991 49.2719 100.577 49.8239 100.025 50.2199C99.4855 50.6159 98.8315 50.8139 98.0635 50.8139C97.5955 50.8139 97.1455 50.7239 96.7135 50.5439C96.2815 50.3639 95.8975 50.1059 95.5615 49.7699H95.5975V53.8739H93.7795V41.5439H95.5795L95.5975 42.4439H95.5615ZM95.5975 48.6179C95.8135 48.7979 96.0895 48.9599 96.4255 49.1039C96.7615 49.2479 97.1275 49.3199 97.5235 49.3199C98.2435 49.3199 98.8015 49.0379 99.1975 48.4739C99.5935 47.9099 99.7915 47.1119 99.7915 46.0799C99.7915 45.1319 99.5935 44.3879 99.1975 43.8479C98.8015 43.2959 98.2435 43.0199 97.5235 43.0199C97.1275 43.0199 96.7615 43.0919 96.4255 43.2359C96.0895 43.3799 95.8135 43.5479 95.5975 43.7399V48.6179ZM103.897 50.7059V38.4119H105.697V50.7059H103.897ZM109.888 46.2779C109.924 47.2979 110.188 48.0659 110.68 48.5819C111.184 49.0979 111.958 49.3559 113.002 49.3559C113.47 49.3559 113.89 49.3259 114.262 49.2659C114.646 49.2059 115.036 49.1039 115.432 48.9599L115.882 50.2379C115.258 50.4899 114.706 50.6519 114.226 50.7239C113.758 50.7959 113.242 50.8319 112.678 50.8319C111.13 50.8319 109.96 50.4059 109.168 49.5539C108.388 48.7019 107.998 47.5079 107.998 45.9719C107.998 44.9879 108.166 44.1299 108.502 43.3979C108.838 42.6539 109.324 42.0839 109.96 41.6879C110.596 41.2799 111.352 41.0759 112.228 41.0759C113.08 41.0759 113.794 41.2979 114.37 41.7419C114.946 42.1859 115.354 42.7979 115.594 43.5779C115.834 44.3579 115.894 45.2579 115.774 46.2779H109.888ZM114.208 45.1619C114.208 44.6219 114.124 44.1419 113.956 43.7219C113.8 43.2899 113.572 42.9599 113.272 42.7319C112.972 42.4919 112.612 42.3719 112.192 42.3719C111.508 42.3719 110.962 42.6239 110.554 43.1279C110.158 43.6199 109.936 44.2979 109.888 45.1619H114.208ZM125.554 50.9219C124.798 50.9219 124.048 50.8739 123.304 50.7779C122.56 50.6939 121.81 50.5439 121.054 50.3279V48.7259C122.05 48.9419 122.896 49.0979 123.592 49.1939C124.3 49.2779 124.93 49.3199 125.482 49.3199C126.058 49.3199 126.538 49.2359 126.922 49.0679C127.306 48.8879 127.594 48.6539 127.786 48.3659C127.978 48.0779 128.074 47.7599 128.074 47.4119C128.074 47.0519 127.966 46.7519 127.75 46.5119C127.546 46.2599 127.27 46.0559 126.922 45.8999C126.586 45.7319 126.142 45.5579 125.59 45.3779L125.104 45.2339C124.324 44.9819 123.664 44.7299 123.124 44.4779C122.596 44.2139 122.152 43.8479 121.792 43.3799C121.432 42.8999 121.252 42.2819 121.252 41.5259C121.252 40.4339 121.636 39.6119 122.404 39.0599C123.184 38.5079 124.234 38.2319 125.554 38.2319C126.262 38.2319 126.952 38.2859 127.624 38.3939C128.308 38.4899 129.034 38.6519 129.802 38.8799V40.5179C128.866 40.2659 128.068 40.0919 127.408 39.9959C126.76 39.8999 126.154 39.8519 125.59 39.8519C124.81 39.8519 124.216 39.9899 123.808 40.2659C123.412 40.5419 123.214 40.9619 123.214 41.5259C123.214 41.9099 123.328 42.2219 123.556 42.4619C123.796 42.7019 124.09 42.8939 124.438 43.0379C124.786 43.1819 125.278 43.3559 125.914 43.5599L126.148 43.6139C126.952 43.8539 127.618 44.0999 128.146 44.3519C128.674 44.6039 129.124 44.9699 129.496 45.4499C129.868 45.9179 130.054 46.5299 130.054 47.2859C130.054 48.4619 129.64 49.3619 128.812 49.9859C127.996 50.6099 126.91 50.9219 125.554 50.9219ZM133.944 48.5099C133.944 48.8699 134.028 49.1339 134.196 49.3019C134.376 49.4699 134.622 49.5539 134.934 49.5539C135.09 49.5539 135.258 49.5479 135.438 49.5359C135.618 49.5119 135.738 49.4879 135.798 49.4639V50.7959C135.594 50.8319 135.33 50.8619 135.006 50.8859C134.694 50.9099 134.436 50.9219 134.232 50.9219C133.476 50.9219 132.936 50.7359 132.612 50.3639C132.288 49.9919 132.126 49.4279 132.126 48.6719V43.1999H130.92L131.19 41.8319H132.126V39.5999L133.944 39.1319V41.8319H135.888L135.618 43.1999H133.944V48.5099ZM141.07 50.8319C140.17 50.8319 139.408 50.6339 138.784 50.2379C138.16 49.8299 137.692 49.2719 137.38 48.5639C137.08 47.8559 136.93 47.0399 136.93 46.1159C136.93 45.1919 137.08 44.3759 137.38 43.6679C137.692 42.9479 138.16 42.3899 138.784 41.9939C139.408 41.5859 140.17 41.3819 141.07 41.3819C141.97 41.3819 142.732 41.5859 143.356 41.9939C143.98 42.3899 144.442 42.9479 144.742 43.6679C145.054 44.3759 145.21 45.1919 145.21 46.1159C145.21 47.0399 145.054 47.8559 144.742 48.5639C144.442 49.2719 143.98 49.8299 143.356 50.2379C142.732 50.6339 141.97 50.8319 141.07 50.8319ZM141.07 42.7139C140.266 42.7139 139.654 43.0319 139.234 43.6679C138.826 44.3039 138.622 45.1199 138.622 46.1159C138.622 47.1119 138.826 47.9279 139.234 48.5639C139.654 49.1999 140.266 49.5179 141.07 49.5179C141.874 49.5179 142.48 49.1999 142.888 48.5639C143.296 47.9279 143.5 47.1119 143.5 46.1159C143.5 45.1079 143.296 44.2919 142.888 43.6679C142.48 43.0319 141.874 42.7139 141.07 42.7139ZM147.006 50.7059V41.6519H148.824V43.3259C149.22 42.7379 149.694 42.3059 150.246 42.0299C150.81 41.7419 151.404 41.6039 152.028 41.6159V43.0379C151.62 43.0019 151.188 43.0679 150.732 43.2359C150.288 43.3919 149.898 43.6079 149.562 43.8839C149.226 44.1479 148.98 44.4239 148.824 44.7119V50.7059H147.006ZM154.958 46.2779C154.994 47.2979 155.258 48.0659 155.75 48.5819C156.254 49.0979 157.028 49.3559 158.072 49.3559C158.54 49.3559 158.96 49.3259 159.332 49.2659C159.716 49.2059 160.106 49.1039 160.502 48.9599L160.952 50.2379C160.328 50.4899 159.776 50.6519 159.296 50.7239C158.828 50.7959 158.312 50.8319 157.748 50.8319C156.2 50.8319 155.03 50.4059 154.238 49.5539C153.458 48.7019 153.068 47.5079 153.068 45.9719C153.068 44.9879 153.236 44.1299 153.572 43.3979C153.908 42.6539 154.394 42.0839 155.03 41.6879C155.666 41.2799 156.422 41.0759 157.298 41.0759C158.15 41.0759 158.864 41.2979 159.44 41.7419C160.016 42.1859 160.424 42.7979 160.664 43.5779C160.904 44.3579 160.964 45.2579 160.844 46.2779H154.958ZM159.278 45.1619C159.278 44.6219 159.194 44.1419 159.026 43.7219C158.87 43.2899 158.642 42.9599 158.342 42.7319C158.042 42.4919 157.682 42.3719 157.262 42.3719C156.578 42.3719 156.032 42.6239 155.624 43.1279C155.228 43.6199 155.006 44.2979 154.958 45.1619H159.278Z" fill="white"/>
<path d="M72.3602 21.5624V14.0164H75.0332C77.1782 14.0164 78.1902 15.4024 78.1902 17.7564C78.1902 20.1544 77.1782 21.5624 75.0332 21.5624H72.3602ZM75.0332 20.7484C76.4852 20.7484 77.2332 19.7474 77.2332 17.7564C77.2332 15.7764 76.4962 14.8194 75.0332 14.8194H73.3172V20.7484H75.0332ZM81.8447 21.6064C80.2167 21.6064 79.3697 20.3964 79.3697 18.7134C79.3697 17.0194 80.2167 15.8204 81.8447 15.8204C83.4727 15.8204 84.3197 17.0194 84.3197 18.7134C84.3197 20.3964 83.4727 21.6064 81.8447 21.6064ZM81.8447 16.4804C80.6897 16.4804 80.1947 17.4924 80.1947 18.7134C80.1947 19.9234 80.6897 20.9464 81.8447 20.9464C82.9997 20.9464 83.4727 19.9234 83.4727 18.7134C83.4727 17.4924 82.9997 16.4804 81.8447 16.4804ZM92.4466 15.9084H93.4146L91.5996 21.5294H90.5326L89.2236 17.2064L87.9256 21.5294H86.8916L85.0766 15.9084H86.0336L87.4526 20.6714L88.7836 15.9084H89.7076L91.0386 20.6714L92.4466 15.9084ZM95.1517 21.5294H94.2717V15.9964H95.1517V16.6344C95.8557 16.1174 96.4387 15.8864 97.1427 15.8864C98.2647 15.8864 98.8147 16.5024 98.8147 17.6794V21.5294H97.9347V17.9544C97.9347 17.1624 97.5717 16.7444 96.8017 16.7444C96.1197 16.7444 95.4927 17.1844 95.1517 17.4594V21.5294ZM101.336 21.5294H100.445V14.0164H101.336V21.5294ZM105.327 21.6064C103.699 21.6064 102.852 20.3964 102.852 18.7134C102.852 17.0194 103.699 15.8204 105.327 15.8204C106.955 15.8204 107.802 17.0194 107.802 18.7134C107.802 20.3964 106.955 21.6064 105.327 21.6064ZM105.327 16.4804C104.172 16.4804 103.677 17.4924 103.677 18.7134C103.677 19.9234 104.172 20.9464 105.327 20.9464C106.482 20.9464 106.955 19.9234 106.955 18.7134C106.955 17.4924 106.482 16.4804 105.327 16.4804ZM112.365 17.7454C112.365 16.1724 110.847 16.2824 109.362 16.8544L109.23 16.2494C111.056 15.4684 113.245 15.5124 113.245 17.7234V21.5294H112.354V20.7594C111.771 21.3424 111.144 21.6064 110.418 21.6064C109.45 21.6064 108.878 21.0014 108.878 20.1654C108.878 18.9554 110.198 17.9984 112.365 18.1304V17.7454ZM112.365 18.6804C110.649 18.5044 109.714 19.3514 109.714 20.0664C109.714 20.6054 110.132 20.9024 110.748 20.9024C111.463 20.9024 111.936 20.6164 112.365 20.1984V18.6804ZM118.26 13.9504H119.151V21.5294H118.282L118.26 20.9794C117.809 21.3754 117.237 21.6064 116.632 21.6064C115.191 21.6064 114.454 20.4404 114.454 18.7134C114.454 16.9754 115.224 15.8204 116.676 15.8204C117.259 15.8204 117.809 16.0294 118.26 16.4254V13.9504ZM115.378 18.7134C115.378 20.0884 115.939 20.8694 116.929 20.8694C117.545 20.8694 118.029 20.5724 118.26 20.3744V17.0524C118.029 16.8434 117.545 16.5464 116.929 16.5464C115.939 16.5464 115.378 17.3384 115.378 18.7134ZM125.681 21.6724C123.547 21.6724 122.524 20.1764 122.524 17.7564C122.524 15.3804 123.547 13.9064 125.681 13.9064C127.815 13.9064 128.838 15.3804 128.838 17.7564C128.838 20.1764 127.815 21.6724 125.681 21.6724ZM125.681 20.8584C127.364 20.8584 127.87 19.3954 127.87 17.7564C127.87 15.7544 127.133 14.7094 125.681 14.7094C124.229 14.7094 123.481 15.7544 123.481 17.7564C123.481 19.3954 123.987 20.8584 125.681 20.8584ZM131.041 21.5294H130.161V15.9964H131.041V16.6344C131.745 16.1174 132.328 15.8864 133.032 15.8864C134.154 15.8864 134.704 16.5024 134.704 17.6794V21.5294H133.824V17.9544C133.824 17.1624 133.461 16.7444 132.691 16.7444C132.009 16.7444 131.382 17.1844 131.041 17.4594V21.5294ZM143.072 14.8194H140.905V21.5624H139.948V14.8194H137.781V14.0164H143.072V14.8194ZM146.888 15.8644C147.966 15.8424 148.637 16.4584 148.637 17.6794V21.5294H147.757V17.9544C147.757 17.1514 147.383 16.7554 146.679 16.7444C145.997 16.7334 145.359 17.1514 144.974 17.4594V21.5294H144.094V14.0164H144.974V16.6124C145.601 16.1064 146.25 15.8644 146.888 15.8644ZM150.753 18.7684C150.775 20.1434 151.38 20.8694 152.766 20.8694C153.36 20.8694 153.8 20.8034 154.295 20.6274L154.515 21.2654C153.734 21.5624 153.228 21.5954 152.612 21.5954C150.731 21.5954 149.829 20.4954 149.829 18.6474C149.829 16.8104 150.764 15.6554 152.359 15.6554C153.932 15.6554 154.658 16.9974 154.493 18.7684H150.753ZM153.712 18.1964C153.712 17.1184 153.206 16.3044 152.337 16.3044C151.391 16.3044 150.819 17.0194 150.753 18.1964H153.712Z" fill="white"/>
</svg>
