<svg width="198" height="72" viewBox="0 0 198 72" fill="none" xmlns="http://www.w3.org/2000/svg">
<path d="M186.57 0H12.1361C5.92084 0 0.882355 5.68862 0.882355 12.7059V59.2941C0.882355 66.3114 5.92084 72 12.1361 72H186.57C192.785 72 197.824 66.3114 197.824 59.2941V12.7059C197.824 5.68862 192.785 0 186.57 0Z" fill="#080A1F"/>
<path d="M46.7158 32.2974L26.7178 51.5585C26.2566 51.2432 25.8801 50.8192 25.6216 50.3239C25.363 49.8286 25.2304 49.2774 25.2354 48.7187V15.8761C25.2304 15.3175 25.363 14.7662 25.6216 14.2709C25.8801 13.7756 26.2566 13.3516 26.7178 13.0363L46.7158 32.2974Z" fill="#2196F3"/>
<path d="M53.7146 25.5697L46.7158 32.2974L26.7135 13.0364C26.7889 12.9778 26.8674 12.9234 26.9486 12.8733C27.4678 12.5588 28.0613 12.388 28.6682 12.3785C29.2752 12.369 29.8737 12.5212 30.4025 12.8193L53.7146 25.5697Z" fill="#4CAF50"/>
<path d="M62.1968 32.2974C62.2025 32.9252 62.0372 33.5426 61.7186 34.0836C61.4 34.6245 60.9401 35.0685 60.3884 35.368L53.7178 39.0209L46.7189 32.2932L53.7178 25.5654L60.3884 29.2183C60.9414 29.5185 61.4021 29.9638 61.7208 30.5064C62.0395 31.049 62.2041 31.6682 62.1968 32.2974Z" fill="#FFC107"/>
<path d="M53.7146 39.0252L30.4025 51.7755C29.8723 52.0692 29.2744 52.2187 28.6683 52.2092C28.0623 52.1997 27.4694 52.0316 26.9486 51.7215C26.8674 51.6714 26.7889 51.617 26.7135 51.5585L46.7158 32.2974L53.7146 39.0252Z" fill="#F44336"/>
<path d="M85.1437 44.5499V49.9319C84.4357 50.2559 83.7397 50.5019 83.0557 50.6699C82.3717 50.8259 81.6697 50.9039 80.9497 50.9039C78.9937 50.9039 77.5537 50.3399 76.6297 49.2119C75.7057 48.0719 75.2437 46.5299 75.2437 44.5859C75.2437 42.6419 75.7057 41.1059 76.6297 39.9779C77.5537 38.8379 78.9937 38.2679 80.9497 38.2679C81.6577 38.2679 82.3297 38.3459 82.9657 38.5019C83.6137 38.6579 84.2977 38.9039 85.0177 39.2399V41.4359C84.4177 41.1599 83.7877 40.9439 83.1277 40.7879C82.4797 40.6319 81.8557 40.5539 81.2557 40.5539C80.1997 40.5539 79.3957 40.8959 78.8437 41.5799C78.2917 42.2519 78.0157 43.2539 78.0157 44.5859C78.0157 45.4619 78.1417 46.1999 78.3937 46.7999C78.6457 47.3999 78.9937 47.8559 79.4377 48.1679C79.8937 48.4679 80.4157 48.6179 81.0037 48.6179C81.2197 48.6179 81.4357 48.5999 81.6517 48.5639C81.8677 48.5279 82.1077 48.4739 82.3717 48.4019V44.5499H85.1437ZM91.0907 50.8679C90.1187 50.8679 89.3087 50.6639 88.6607 50.2559C88.0127 49.8479 87.5327 49.2899 87.2207 48.5819C86.9207 47.8739 86.7707 47.0639 86.7707 46.1519C86.7707 45.2519 86.9207 44.4479 87.2207 43.7399C87.5327 43.0319 88.0127 42.4739 88.6607 42.0659C89.3087 41.6579 90.1187 41.4539 91.0907 41.4539C92.0627 41.4539 92.8667 41.6579 93.5027 42.0659C94.1507 42.4739 94.6307 43.0319 94.9427 43.7399C95.2547 44.4479 95.4107 45.2519 95.4107 46.1519C95.4107 47.0639 95.2547 47.8739 94.9427 48.5819C94.6307 49.2899 94.1507 49.8479 93.5027 50.2559C92.8667 50.6639 92.0627 50.8679 91.0907 50.8679ZM91.0907 43.2539C90.4547 43.2539 89.9627 43.5239 89.6147 44.0639C89.2787 44.6039 89.1107 45.2999 89.1107 46.1519C89.1107 47.0159 89.2787 47.7179 89.6147 48.2579C89.9627 48.7859 90.4547 49.0499 91.0907 49.0499C91.7267 49.0499 92.2067 48.7859 92.5307 48.2579C92.8547 47.7299 93.0167 47.0279 93.0167 46.1519C93.0167 45.2879 92.8547 44.5919 92.5307 44.0639C92.2067 43.5239 91.7267 43.2539 91.0907 43.2539ZM100.987 50.8679C100.015 50.8679 99.2052 50.6639 98.5572 50.2559C97.9092 49.8479 97.4292 49.2899 97.1172 48.5819C96.8172 47.8739 96.6672 47.0639 96.6672 46.1519C96.6672 45.2519 96.8172 44.4479 97.1172 43.7399C97.4292 43.0319 97.9092 42.4739 98.5572 42.0659C99.2052 41.6579 100.015 41.4539 100.987 41.4539C101.959 41.4539 102.763 41.6579 103.399 42.0659C104.047 42.4739 104.527 43.0319 104.839 43.7399C105.151 44.4479 105.307 45.2519 105.307 46.1519C105.307 47.0639 105.151 47.8739 104.839 48.5819C104.527 49.2899 104.047 49.8479 103.399 50.2559C102.763 50.6639 101.959 50.8679 100.987 50.8679ZM100.987 43.2539C100.351 43.2539 99.8592 43.5239 99.5112 44.0639C99.1752 44.6039 99.0072 45.2999 99.0072 46.1519C99.0072 47.0159 99.1752 47.7179 99.5112 48.2579C99.8592 48.7859 100.351 49.0499 100.987 49.0499C101.623 49.0499 102.103 48.7859 102.427 48.2579C102.751 47.7299 102.913 47.0279 102.913 46.1519C102.913 45.2879 102.751 44.5919 102.427 44.0639C102.103 43.5239 101.623 43.2539 100.987 43.2539ZM107.734 51.9299C108.502 52.2539 109.246 52.4219 109.966 52.4339C110.686 52.4579 111.268 52.3139 111.712 52.0019C112.156 51.7019 112.378 51.2459 112.378 50.6339V49.6619C112.102 49.9859 111.766 50.2379 111.37 50.4179C110.974 50.5859 110.572 50.6699 110.164 50.6699C109.396 50.6699 108.742 50.4659 108.202 50.0579C107.662 49.6499 107.254 49.0919 106.978 48.3839C106.702 47.6759 106.564 46.8719 106.564 45.9719C106.564 44.5799 106.852 43.4519 107.428 42.5879C108.016 41.7119 108.88 41.2739 110.02 41.2739C110.452 41.2739 110.872 41.3759 111.28 41.5799C111.7 41.7719 112.054 42.0299 112.342 42.3539H112.378V41.4539H114.916V50.7059C114.916 51.8339 114.544 52.7159 113.8 53.3519C113.056 53.9999 112.096 54.3539 110.92 54.4139C109.756 54.4739 108.562 54.2459 107.338 53.7299L107.734 51.9299ZM110.974 48.6359C111.262 48.6359 111.526 48.5819 111.766 48.4739C112.018 48.3659 112.222 48.2459 112.378 48.1139V44.0999C112.222 43.9679 112.018 43.8539 111.766 43.7579C111.526 43.6499 111.262 43.5959 110.974 43.5959C110.422 43.5959 109.99 43.8119 109.678 44.2439C109.378 44.6759 109.228 45.2519 109.228 45.9719C109.228 46.8239 109.378 47.4839 109.678 47.9519C109.99 48.4079 110.422 48.6359 110.974 48.6359ZM116.733 50.7059V38.4479H119.271V50.7059H116.733ZM123.697 46.4759C123.745 47.2199 123.979 47.8019 124.399 48.2219C124.831 48.6299 125.503 48.8339 126.415 48.8339C126.847 48.8339 127.243 48.8039 127.603 48.7439C127.975 48.6839 128.353 48.5819 128.737 48.4379L129.349 50.1659C128.665 50.4659 128.065 50.6519 127.549 50.7239C127.033 50.8079 126.493 50.8499 125.929 50.8499C124.309 50.8499 123.091 50.4179 122.275 49.5539C121.459 48.6779 121.051 47.4839 121.051 45.9719C121.051 44.9999 121.225 44.1419 121.573 43.3979C121.921 42.6539 122.425 42.0779 123.085 41.6699C123.745 41.2619 124.525 41.0579 125.425 41.0579C126.325 41.0579 127.081 41.2799 127.693 41.7239C128.317 42.1679 128.755 42.8039 129.007 43.6319C129.259 44.4479 129.295 45.3959 129.115 46.4759H123.697ZM126.937 44.9639C126.937 44.5199 126.877 44.1359 126.757 43.8119C126.637 43.4879 126.457 43.2419 126.217 43.0739C125.977 42.9059 125.695 42.8219 125.371 42.8219C124.879 42.8219 124.483 43.0259 124.183 43.4339C123.883 43.8299 123.721 44.3399 123.697 44.9639H126.937ZM137.381 50.7239H134.609V38.4479H139.919C140.771 38.4479 141.521 38.6159 142.169 38.9519C142.817 39.2759 143.315 39.7439 143.663 40.3559C144.023 40.9559 144.203 41.6579 144.203 42.4619C144.203 43.2779 144.023 43.9919 143.663 44.6039C143.315 45.2159 142.817 45.6839 142.169 46.0079C141.533 46.3319 140.783 46.4939 139.919 46.4939H137.381V50.7239ZM139.649 44.1899C140.201 44.1899 140.633 44.0579 140.945 43.7939C141.269 43.5179 141.431 43.0739 141.431 42.4619C141.431 41.8619 141.269 41.4239 140.945 41.1479C140.621 40.8719 140.189 40.7339 139.649 40.7339H137.381V44.1899H139.649ZM145.789 50.7059V38.4479H148.327V50.7059H145.789ZM155.166 44.6039C155.166 43.6919 154.776 43.1939 153.996 43.1099C153.216 43.0139 152.25 43.1819 151.098 43.6139L150.63 41.9399C151.686 41.5079 152.76 41.2619 153.852 41.2019C154.944 41.1299 155.856 41.3579 156.588 41.8859C157.332 42.4139 157.704 43.2899 157.704 44.5139V50.7059H155.166V49.6439C154.398 50.4599 153.498 50.8679 152.466 50.8679C151.722 50.8679 151.134 50.6279 150.702 50.1479C150.282 49.6559 150.072 49.0439 150.072 48.3119C150.072 47.6159 150.276 47.0159 150.684 46.5119C151.092 45.9959 151.68 45.6059 152.448 45.3419C153.216 45.0779 154.122 44.9639 155.166 44.9999V44.6039ZM155.166 46.4219C154.566 46.3499 154.056 46.3919 153.636 46.5479C153.228 46.7039 152.928 46.9199 152.736 47.1959C152.544 47.4599 152.448 47.7239 152.448 47.9879C152.448 48.2999 152.55 48.5399 152.754 48.7079C152.97 48.8639 153.246 48.9419 153.582 48.9419C153.882 48.9419 154.164 48.8819 154.428 48.7619C154.692 48.6419 154.938 48.4739 155.166 48.2579V46.4219ZM162.812 50.1659L162.524 51.9479L158.78 41.6879H161.624L163.496 48.3479L163.532 48.3659L165.44 41.6879H168.158L163.91 53.9639H161.498L162.812 50.1659Z" fill="white"/>
<path d="M80.9787 17.7674V21.0564C80.546 21.2544 80.1207 21.4048 79.7027 21.5074C79.2847 21.6028 78.8557 21.6504 78.4157 21.6504C77.2203 21.6504 76.3403 21.3058 75.7757 20.6164C75.211 19.9198 74.9287 18.9774 74.9287 17.7894C74.9287 16.6014 75.211 15.6628 75.7757 14.9734C76.3403 14.2768 77.2203 13.9284 78.4157 13.9284C78.8483 13.9284 79.259 13.9761 79.6477 14.0714C80.0437 14.1668 80.4617 14.3171 80.9017 14.5224V15.8644C80.535 15.6958 80.15 15.5638 79.7467 15.4684C79.3507 15.3731 78.9693 15.3254 78.6027 15.3254C77.9573 15.3254 77.466 15.5344 77.1287 15.9524C76.7913 16.3631 76.6227 16.9754 76.6227 17.7894C76.6227 18.3248 76.6997 18.7758 76.8537 19.1424C77.0077 19.5091 77.2203 19.7878 77.4917 19.9784C77.7703 20.1618 78.0893 20.2534 78.4487 20.2534C78.5807 20.2534 78.7127 20.2424 78.8447 20.2204C78.9767 20.1984 79.1233 20.1654 79.2847 20.1214V17.7674H80.9787ZM83.678 18.9444C83.7073 19.3991 83.8503 19.7548 84.107 20.0114C84.371 20.2608 84.7816 20.3854 85.339 20.3854C85.603 20.3854 85.845 20.3671 86.065 20.3304C86.2923 20.2938 86.5233 20.2314 86.758 20.1434L87.132 21.1994C86.714 21.3828 86.3473 21.4964 86.032 21.5404C85.7166 21.5918 85.3866 21.6174 85.042 21.6174C84.052 21.6174 83.3076 21.3534 82.809 20.8254C82.3103 20.2901 82.061 19.5604 82.061 18.6364C82.061 18.0424 82.1673 17.5181 82.38 17.0634C82.5926 16.6088 82.9006 16.2568 83.304 16.0074C83.7073 15.7581 84.184 15.6334 84.734 15.6334C85.284 15.6334 85.746 15.7691 86.12 16.0404C86.5013 16.3118 86.769 16.7004 86.923 17.2064C87.077 17.7051 87.099 18.2844 86.989 18.9444H83.678ZM85.658 18.0204C85.658 17.7491 85.6213 17.5144 85.548 17.3164C85.4746 17.1184 85.3646 16.9681 85.218 16.8654C85.0713 16.7628 84.899 16.7114 84.701 16.7114C84.4003 16.7114 84.1583 16.8361 83.975 17.0854C83.7916 17.3274 83.6926 17.6391 83.678 18.0204H85.658ZM89.9665 20.0224C89.9665 20.1838 90.0142 20.3048 90.1095 20.3854C90.2049 20.4661 90.3259 20.5064 90.4725 20.5064C90.5459 20.5064 90.6339 20.5028 90.7365 20.4954C90.8392 20.4808 90.9125 20.4661 90.9565 20.4514V21.5624C90.8099 21.5918 90.6192 21.6138 90.3845 21.6284C90.1572 21.6431 89.9739 21.6504 89.8345 21.6504C89.3139 21.6504 88.9472 21.5294 88.7345 21.2874C88.5292 21.0381 88.4265 20.6641 88.4265 20.1654V17.3274H87.7445L87.9425 16.1724H88.4265V14.8524L89.9665 14.4784V16.1724H91.0335L90.8465 17.3274H89.9665V20.0224ZM93.773 14.0384H95.467V21.5404H93.773V14.0384ZM98.3562 20.0224C98.3562 20.1838 98.4038 20.3048 98.4992 20.3854C98.5945 20.4661 98.7155 20.5064 98.8622 20.5064C98.9355 20.5064 99.0235 20.5028 99.1262 20.4954C99.2288 20.4808 99.3022 20.4661 99.3462 20.4514V21.5624C99.1995 21.5918 99.0088 21.6138 98.7742 21.6284C98.5468 21.6431 98.3635 21.6504 98.2242 21.6504C97.7035 21.6504 97.3368 21.5294 97.1242 21.2874C96.9188 21.0381 96.8162 20.6641 96.8162 20.1654V17.3274H96.1342L96.3322 16.1724H96.8162V14.8524L98.3562 14.4784V16.1724H99.4232L99.2362 17.3274H98.3562V20.0224ZM105.452 21.6504C104.689 21.6504 104.055 21.4891 103.549 21.1664C103.043 20.8364 102.665 20.3818 102.416 19.8024C102.174 19.2231 102.053 18.5484 102.053 17.7784C102.053 17.0084 102.174 16.3374 102.416 15.7654C102.665 15.1861 103.043 14.7351 103.549 14.4124C104.055 14.0898 104.689 13.9284 105.452 13.9284C106.207 13.9284 106.838 14.0898 107.344 14.4124C107.85 14.7351 108.224 15.1861 108.466 15.7654C108.715 16.3374 108.84 17.0084 108.84 17.7784C108.84 18.5484 108.715 19.2231 108.466 19.8024C108.224 20.3818 107.85 20.8364 107.344 21.1664C106.838 21.4891 106.207 21.6504 105.452 21.6504ZM105.452 20.2534C106.038 20.2534 106.467 20.0371 106.739 19.6044C107.01 19.1644 107.146 18.5558 107.146 17.7784C107.146 16.9644 107.003 16.3521 106.717 15.9414C106.431 15.5308 106.009 15.3254 105.452 15.3254C104.887 15.3254 104.462 15.5308 104.176 15.9414C103.89 16.3521 103.747 16.9644 103.747 17.7784C103.747 18.5558 103.882 19.1644 104.154 19.6044C104.432 20.0371 104.865 20.2534 105.452 20.2534ZM109.83 21.5294V16.0184H111.381V16.4474C111.696 16.2494 111.979 16.1101 112.228 16.0294C112.477 15.9488 112.767 15.9084 113.097 15.9084C113.64 15.9084 114.05 16.0624 114.329 16.3704C114.608 16.6784 114.747 17.1184 114.747 17.6904V21.5294H113.196V18.2184C113.196 17.6758 112.936 17.4044 112.415 17.4044C112.232 17.4044 112.052 17.4448 111.876 17.5254C111.7 17.6061 111.535 17.7014 111.381 17.8114V21.5294H109.83Z" fill="white"/>
</svg>
