<svg width="16" height="16" viewBox="0 0 16 16" fill="none" xmlns="http://www.w3.org/2000/svg">
<path d="M11.3333 5.33317H12.6667C13.403 5.33317 14 5.93012 14 6.6665V10.6665C14 11.4029 13.403 11.9998 12.6667 11.9998H11.3333V14.6665L8.66667 11.9998H6C5.63181 11.9998 5.29848 11.8506 5.05719 11.6093M5.05719 11.6093L7.33333 9.33317H10C10.7364 9.33317 11.3333 8.73622 11.3333 7.99984V3.99984C11.3333 3.26346 10.7364 2.6665 10 2.6665H3.33333C2.59695 2.6665 2 3.26346 2 3.99984V7.99984C2 8.73622 2.59695 9.33317 3.33333 9.33317H4.66667V11.9998L5.05719 11.6093Z" stroke="#686868" stroke-width="1.5" stroke-linecap="round" stroke-linejoin="round"/>
</svg>
