<svg width="70" height="70" viewBox="0 0 70 70" fill="none" xmlns="http://www.w3.org/2000/svg">
<g id="svgexport-19 (2) 1" clip-path="url(#clip0_1394_30889)">
<g id="Group">
<path id="Vector" d="M41.5625 13.125H15.3125C14.105 13.125 13.125 14.105 13.125 15.3125C13.125 16.52 14.105 17.5 15.3125 17.5H41.5625C42.77 17.5 43.75 16.52 43.75 15.3125C43.75 14.105 42.77 13.125 41.5625 13.125ZM32.8125 21.875H15.3125C14.105 21.875 13.125 22.855 13.125 24.0625C13.125 25.27 14.105 26.25 15.3125 26.25H32.8125C34.02 26.25 35 25.27 35 24.0625C35 22.855 34.02 21.875 32.8125 21.875Z" fill="#1B2469"/>
<path id="Vector_2" d="M48.125 0H8.75C3.92437 0 0 3.92437 0 8.75V52.5C0 53.3488 0.49 54.1231 1.26 54.4819C1.5507 54.6166 1.86712 54.6867 2.1875 54.6875C2.69062 54.6875 3.18937 54.5125 3.5875 54.18L16.1044 43.75H48.125C52.9506 43.75 56.875 39.8256 56.875 35V8.75C56.875 3.92437 52.9506 0 48.125 0ZM52.5 35C52.5 37.4106 50.54 39.375 48.125 39.375H15.3125C14.8006 39.375 14.3063 39.5544 13.9125 39.8825L4.375 47.8319V8.75C4.375 6.33938 6.335 4.375 8.75 4.375H48.125C50.54 4.375 52.5 6.33938 52.5 8.75V35Z" fill="#1B2469"/>
<path id="Vector_3" d="M61.25 17.5C60.0425 17.5 59.0625 18.48 59.0625 19.6875C59.0625 20.895 60.0425 21.875 61.25 21.875C63.665 21.875 65.625 23.8394 65.625 26.25V63.2581L58.24 57.3519C57.8516 57.0439 57.3707 56.8759 56.875 56.875H26.25C23.835 56.875 21.875 54.9106 21.875 52.5V50.3125C21.875 49.105 20.895 48.125 19.6875 48.125C18.48 48.125 17.5 49.105 17.5 50.3125V52.5C17.5 57.3256 21.4244 61.25 26.25 61.25H56.105L66.4431 69.5231C66.8329 69.8316 67.3154 69.9996 67.8125 70C68.1319 70 68.4556 69.93 68.7619 69.7856C69.1327 69.6061 69.4454 69.3259 69.6644 68.9769C69.8833 68.628 69.9996 68.2244 70 67.8125V26.25C70 21.4244 66.0756 17.5 61.25 17.5Z" fill="#1B2469"/>
</g>
</g>
<defs>
<clipPath id="clip0_1394_30889">
<rect width="70" height="70" fill="white"/>
</clipPath>
</defs>
</svg>
