<svg width="23" height="23" viewBox="0 0 23 23" fill="none" xmlns="http://www.w3.org/2000/svg">
<path d="M1.61538 10.7783L4.03627 13.3687C4.16464 13.506 4.33202 13.5988 4.51482 13.6339C4.69762 13.6691 4.88662 13.6448 5.05519 13.5646L11.9801 10.2707C12.1937 10.1691 12.4381 10.1582 12.6596 10.2404C12.881 10.3227 13.0614 10.4913 13.161 10.7091C13.2606 10.927 13.2713 11.1763 13.1907 11.4022C13.1101 11.6281 12.9448 11.8121 12.7312 11.9137L5.80628 15.2076C5.63767 15.2877 5.49796 15.4198 5.40685 15.5852C5.31574 15.7506 5.27782 15.9411 5.29844 16.1296L5.68791 19.6869C5.74741 20.2142 5.95686 20.7122 6.29044 21.1196C6.62402 21.5269 7.06716 21.8258 7.56524 21.9794C8.06332 22.133 8.59457 22.1346 9.09353 21.984C9.59248 21.8334 10.0373 21.5371 10.3733 21.1318L19.0976 10.6102C19.4266 10.2136 19.6373 9.72915 19.7048 9.21421C19.7723 8.69927 19.6938 8.17538 19.4786 7.70453C19.2633 7.23368 18.9203 6.83558 18.4902 6.55734C18.0601 6.27909 17.5608 6.13236 17.0515 6.13449L3.54197 6.18849C3.02163 6.19042 2.51321 6.3476 2.07938 6.64067C1.64555 6.93374 1.30526 7.34988 1.10045 7.83781C0.895641 8.32573 0.835266 8.86413 0.926764 9.38663C1.01826 9.90913 1.25764 10.3929 1.61538 10.7783Z" fill="white"/>
</svg>
