<svg width="42" height="42" viewBox="0 0 42 42" fill="none" xmlns="http://www.w3.org/2000/svg">
<g clip-path="url(#clip0_1466_10918)">
<path d="M21 42C32.598 42 42 32.598 42 21C42 9.40202 32.598 0 21 0C9.40202 0 0 9.40202 0 21C0 32.598 9.40202 42 21 42Z" fill="#3D9635"/>
<path d="M6.1758 12.2258C6.10623 13.3112 6.01698 15.2314 6.83205 15.4257C7.82298 15.528 7.27698 13.5344 7.63398 13.1721C7.70223 12.9962 7.82823 12.9962 7.83742 13.218V14.9164C7.82362 15.0968 7.87232 15.2764 7.97534 15.425C8.07835 15.5737 8.22941 15.6824 8.40311 15.7328C8.66561 15.7131 8.83623 15.7223 8.9373 16.011C8.98105 16.9849 9.02173 17.9588 9.05936 18.9327C9.05936 18.9327 9.66442 19.1361 9.6933 17.2907C9.63284 16.56 9.614 15.8265 9.63686 15.0936C9.63686 14.8889 9.87311 14.8705 10.0411 14.982C10.3036 15.1868 10.4165 15.4362 10.8181 15.3351C11.4324 15.1395 11.7972 14.8101 11.8077 14.2772C11.7926 13.7622 11.6997 13.2525 11.5321 12.7652C11.5584 12.672 11.41 12.441 11.4415 12.3479C11.5505 12.5434 11.7159 12.5237 11.7526 12.3479C11.693 11.9887 11.5067 11.6628 11.2276 11.4291C11.0097 11.2152 10.6882 11.2611 10.5714 11.7165C10.5591 12.2976 10.736 12.867 11.0754 13.3388C11.18 13.5975 11.2227 13.877 11.2 14.1552C11.1185 14.2057 11.0203 14.2224 10.9266 14.2015C10.8329 14.1807 10.7511 14.124 10.6987 14.0436C10.6987 14.0436 10.2052 13.6262 10.2052 13.5435C10.3246 13.112 10.3104 12.6544 10.1645 12.231C10.11 11.9769 10.0007 11.7377 9.84423 11.5302C9.72348 11.3727 9.55811 11.3727 9.47936 11.5302C9.30573 12.0946 9.31954 12.7001 9.51873 13.2561C9.62767 13.6262 9.80355 13.8585 9.72348 13.8585C9.65523 14.0725 9.51611 14.016 9.41636 13.7745C9.29644 13.2548 9.23959 12.7224 9.24705 12.189C9.20111 11.7717 9.15123 10.8765 8.90842 10.6495C8.76011 10.4264 8.53698 10.5379 8.45823 10.7519C8.43933 11.1536 8.44766 11.5561 8.48317 11.9567C8.62844 12.5983 8.72974 13.2491 8.78636 13.9045C8.80736 14.8232 8.31648 14.2982 8.33748 13.8402C8.44232 13.2598 8.43653 12.6649 8.32042 12.0867C8.24036 11.8465 8.14586 11.79 7.94767 11.8373C7.79017 11.8176 7.39248 12.3098 7.28092 13.1262C7.22254 13.3896 7.17872 13.656 7.14967 13.9242C7.09192 14.3415 6.84648 14.6382 6.67455 13.8585C6.5223 13.2929 6.43305 11.9016 6.18367 12.2258" fill="white"/>
<path d="M8.87209 16.6772C7.99666 17.1694 7.14616 17.6143 6.28516 18.0776C6.43049 17.6133 6.69671 17.196 7.05651 16.8685C7.41632 16.541 7.85675 16.315 8.33266 16.2139C8.85766 16.2322 8.72641 16.4462 8.87209 16.6772Z" fill="white"/>
<path d="M12.1695 10.5373C12.1123 10.5491 12.0568 10.5676 12.0041 10.5924C11.8702 10.6389 11.7594 10.7353 11.6948 10.8615C11.6303 10.9876 11.6169 11.1339 11.6576 11.2697C11.907 12.9759 12.0658 14.2753 12.3138 15.9723C12.3571 16.1771 12.2049 16.437 12.0146 16.4186C11.6878 16.1679 11.6064 15.6573 11.0499 15.6849C10.8149 15.7324 10.6004 15.8516 10.4359 16.026C10.2714 16.2004 10.1649 16.4214 10.1311 16.6588C10.0562 17.026 10.0562 17.4046 10.1311 17.7718C10.2301 17.9152 10.3759 18.0198 10.5435 18.0677C10.711 18.1156 10.8901 18.1038 11.0499 18.0343C11.294 17.9227 11.4975 17.6405 11.5841 17.7101C11.6379 17.8217 11.5762 18.7115 10.4317 19.3888C9.72427 19.7405 9.16514 19.8337 8.8567 19.184C8.67295 18.7772 8.87114 17.2363 8.41308 17.5893C7.0507 21.54 11.6011 22.0965 12.1117 17.756C12.1445 17.6353 12.243 17.5145 12.3178 17.5434C12.3519 17.5618 12.3755 17.6077 12.3834 17.7009C12.2784 21.624 8.86458 21.8838 8.28577 20.6593C8.14546 20.2311 8.0763 19.7829 8.08102 19.3323C8.08049 19.1763 8.03192 19.0241 7.94189 18.8966C7.80277 18.7863 7.6177 19.0922 7.5757 19.6211C7.53395 19.9343 7.52033 20.2505 7.53502 20.5661C7.71614 23.6833 12.113 22.3472 12.831 19.7786C12.9725 18.9686 13.0122 18.1441 12.9491 17.3242H12.9635L12.974 17.315C13.419 17.84 14.024 17.3793 14.1618 17.2035C14.1763 17.1772 14.1968 17.1548 14.2216 17.1381C14.2465 17.1213 14.2749 17.1107 14.3047 17.1071C14.3344 17.1035 14.3646 17.1071 14.3927 17.1174C14.4208 17.1278 14.446 17.1447 14.4663 17.1667C14.5521 17.2354 14.6534 17.2819 14.7614 17.3021C14.8694 17.3224 14.9807 17.3157 15.0855 17.2828C15.1903 17.2498 15.2853 17.1916 15.3623 17.1132C15.4393 17.0349 15.4958 16.9387 15.5268 16.8333C15.604 16.3448 15.6536 15.8523 15.6751 15.3581C15.5026 15.3957 15.3407 15.4715 15.2013 15.5799C15.1828 15.6011 15.1706 15.627 15.1659 15.6547C15.1488 15.786 15.1305 15.933 15.1095 16.0721C15.107 16.0845 15.1039 16.0968 15.1003 16.1088C15.0898 16.1255 15.0748 16.1387 15.057 16.1469C15.0359 16.1612 15.0115 16.1695 14.9861 16.1712C14.9608 16.1729 14.9355 16.1678 14.9127 16.1564C14.89 16.1451 14.8707 16.1279 14.8569 16.1066C14.843 16.0853 14.8351 16.0607 14.8338 16.0353C14.7301 15.5103 14.297 15.4224 14.0332 16.2572C13.8521 16.4252 13.5345 16.4527 13.499 16.2204C13.545 15.6547 13.3402 15.5799 12.9386 15.8398C12.8073 14.7268 12.6761 13.6702 12.5448 12.5585C12.7155 12.5585 12.8651 12.6977 13.0213 12.4837C12.8802 11.8245 12.6404 11.1905 12.3099 10.6029C12.3001 10.5896 12.2896 10.5769 12.2784 10.5648C12.2756 10.5646 12.2729 10.5637 12.2706 10.562C12.2683 10.5604 12.2664 10.5582 12.2653 10.5557H12.2495C12.2416 10.5465 12.2285 10.5465 12.2272 10.5373C12.2062 10.5373 12.1878 10.5281 12.1695 10.5373ZM10.9462 16.6312C10.9996 16.6262 11.0531 16.6402 11.0973 16.6706C11.1414 16.7011 11.1734 16.7462 11.1877 16.7979C11.2038 16.8477 11.2076 16.9007 11.1989 16.9523C11.1902 17.0039 11.1693 17.0527 11.1378 17.0945C11.1024 17.1602 10.9869 17.1326 10.9003 17.1326C10.8565 17.1367 10.8126 17.1273 10.7744 17.1057C10.7361 17.0842 10.7054 17.0514 10.6863 17.0118C10.6548 16.9095 10.7415 16.8071 10.7835 16.7244C10.8255 16.6417 10.7913 16.706 10.7979 16.6968C10.8406 16.6622 10.8918 16.6395 10.9462 16.6312Z" fill="white"/>
<path d="M15.2351 10.4445C15.1276 10.455 15.0232 10.4867 14.928 10.5377C14.8176 10.6536 14.7483 10.8026 14.7308 10.9617C14.7132 11.1208 14.7484 11.2812 14.8308 11.4184C15.0041 11.5024 15.1773 11.7072 15.0592 11.8122C14.5736 12.3975 13.2992 13.3872 13.2348 13.5657V13.584H13.2453C13.5596 13.6377 13.8804 13.6408 14.1956 13.5932V13.584C14.7695 13.0355 15.2964 12.4397 15.7706 11.803C15.7063 11.7387 15.6393 11.6914 15.575 11.6271C15.5597 11.6148 15.5473 11.5992 15.5388 11.5815C15.5303 11.5638 15.5259 11.5444 15.5259 11.5247C15.5259 11.5051 15.5303 11.4857 15.5388 11.4679C15.5473 11.4502 15.5597 11.4346 15.575 11.4223C15.6987 11.3106 15.7737 11.1548 15.7837 10.9884C15.7938 10.822 15.7382 10.6583 15.6288 10.5325C15.5085 10.467 15.3717 10.4378 15.2351 10.4485M15.1747 10.959C15.2548 10.9498 15.348 11.043 15.3952 11.1533C15.4425 11.2635 15.4202 11.3948 15.3414 11.4223C15.2627 11.4499 15.1537 11.358 15.1012 11.2373C15.0487 11.1165 15.0776 10.9866 15.1603 10.9682C15.1603 10.9682 15.1603 10.959 15.1747 10.959ZM6.37572 19.4798C6.15708 19.8649 6.02086 20.2913 5.97567 20.7319C5.93048 21.1725 5.97732 21.6176 6.11322 22.0392C6.17274 22.1256 6.25753 22.1916 6.35597 22.228C6.45441 22.2644 6.5617 22.2695 6.66315 22.2426C6.96634 22.0943 7.10284 21.3987 7.02803 21.1493C6.92697 20.9629 6.8469 20.9353 6.74322 21.0928C6.5319 21.5758 6.44134 21.2412 6.42165 20.9616C6.39712 20.5032 6.41646 20.0435 6.4794 19.5887C6.53322 19.2094 6.4794 19.3197 6.37309 19.4785M27.1342 18.0885C26.667 16.9467 26.016 15.8245 25.8099 15.3979C25.6038 14.9713 24.0407 12.4212 23.8097 12.1245C23.3004 11.4473 24.6339 12.412 23.6403 11.0575C23.265 10.6952 23.2466 10.6768 22.9224 10.3802C22.7702 10.249 22.3777 10.0285 22.3147 10.3986C22.2789 10.6675 22.29 10.9406 22.3475 11.2058C22.4464 11.4517 22.5789 11.6827 22.7413 11.8922C24.4128 14.3775 25.8663 17.0027 27.0857 19.7383C27.3009 19.6281 27.255 18.2828 27.1277 18.0885" fill="white"/>
<path d="M25.0757 21.8913C24.9798 22.0029 25.3001 22.5122 25.7188 22.503C26.4131 22.4203 27.0313 21.978 27.593 20.8151C27.827 20.418 27.9733 19.9754 28.0222 19.517C28.0923 17.3192 27.9353 15.1201 27.5537 12.9545C27.5294 12.8035 27.5352 12.6492 27.5707 12.5004C27.6153 12.4361 27.7689 12.5004 27.849 12.3521C27.971 12.213 27.5353 11.0816 27.2872 10.6458C27.1993 10.4503 27.1678 10.3217 27.0247 10.6642C26.8473 11.0537 26.7636 11.4795 26.7806 11.9072C27.1127 14.4862 27.2137 16.7634 27.4368 19.3359C27.474 19.6009 27.4164 19.8705 27.2741 20.0972C26.6842 20.8509 25.9354 21.4653 25.0809 21.8966M33.0504 25.6608C32.5477 25.9863 32.5477 26.3657 32.9559 26.3748C33.3712 26.3848 33.782 26.2866 34.1478 26.0899C34.5137 25.8931 34.8221 25.6046 35.0428 25.2527C35.2425 24.7961 35.3568 24.3067 35.3801 23.8089C35.4744 21.4372 35.3478 19.0618 35.0021 16.7135C34.9577 16.4936 34.9344 16.2699 34.9325 16.0455C34.9798 15.9247 35.2042 16.0638 35.2803 15.9142C35.4037 15.783 34.6989 14.7553 34.4469 14.3195C34.3629 14.124 34.3314 13.994 34.1844 14.3471C34.0187 14.7359 33.9686 15.1643 34.04 15.5808C34.4131 18.2381 34.6462 20.9132 34.7383 23.595C34.7206 23.8188 34.6739 24.0394 34.5992 24.2512C34.4082 24.577 34.1796 24.8792 33.918 25.1516C33.687 25.3367 33.204 25.5217 33.0478 25.6608" fill="white"/>
<path d="M34.8513 19.3588C34.8435 18.7026 34.8684 18.1343 34.8435 17.6421C34.8185 17.1499 34.623 15.3137 34.5613 14.9252C34.4996 14.5367 34.4221 13.9329 34.3276 13.4591C34.2726 13.1842 34.2436 12.9047 34.241 12.6244C34.2778 12.4931 34.4392 12.6336 34.5114 12.4761C34.4288 11.7535 34.2059 11.0539 33.8551 10.4168C33.7646 10.2225 33.5926 10.2855 33.384 10.6031C33.1845 10.8066 33.2527 11.2699 33.3328 11.7161C33.879 14.6177 34.1445 17.5652 34.1255 20.5178C34.0966 20.7501 34.8592 19.8038 34.8513 19.3588ZM31.1645 15.7219C30.8482 15.7127 30.1893 15.0354 29.9977 14.6378C29.94 14.4445 29.9531 14.2369 30.0345 14.0524C30.1513 13.9697 30.3311 13.8673 30.4636 13.9697C30.4636 13.9697 30.6028 14.1823 30.5765 14.2112C30.7471 14.3031 30.822 14.2479 30.839 14.1639C30.8495 14.0327 30.7852 13.9513 30.7852 13.803C30.8574 13.3856 31.2761 13.3292 31.4415 13.5891C31.5544 13.8136 31.6145 14.061 31.6173 14.3123C31.6173 14.433 31.4454 14.2939 31.3548 14.3214C31.2643 14.349 31.2354 14.4711 31.2236 14.5839C31.1958 14.9636 31.1779 15.3439 31.1698 15.7245M25.3606 20.0912C25.4499 19.1908 25.3318 17.373 25.3239 16.8454C25.295 15.6024 25.11 13.1993 25.0273 12.8003C24.9275 12.0403 25.3016 12.8843 25.2478 12.4393C25.0829 11.7273 24.7654 11.0596 24.3172 10.4824C24.1781 10.2593 24.186 10.2133 23.9628 10.5375C23.8209 11.0361 23.8309 11.5658 23.9917 12.0587C24.2918 13.5146 24.4874 14.9901 24.5771 16.4739C24.6719 18.0367 24.6837 19.6034 24.6125 21.1674C24.8501 21.1674 25.2294 20.7317 25.3606 20.0912Z" fill="white"/>
<path d="M35.9235 18.6541C35.3735 17.6041 34.5335 16.3809 34.3117 15.9635C34.0899 15.5461 32.1947 12.4303 31.9584 12.1573C31.2654 11.3501 32.276 12.026 31.8272 11.3868C31.5857 11.0626 31.3113 10.7644 31.0082 10.497C30.8467 10.3854 30.7457 10.1531 30.6932 10.5337C30.6645 10.8728 30.6562 11.2134 30.6682 11.5535C30.7047 11.784 30.7996 12.0014 30.9439 12.1848C32.8152 14.7525 34.4774 17.4663 35.9143 20.3C36.1243 20.1898 36.0521 18.8445 35.9222 18.6594M29.2127 28.5884C29.1151 28.6178 29.0277 28.674 28.9605 28.7507C28.8934 28.8273 28.8491 28.9213 28.8328 29.0219C28.8165 29.1225 28.8289 29.2257 28.8684 29.3196C28.908 29.4136 28.9731 29.4945 29.0565 29.5531C23.8787 29.5531 15.9315 29.4599 14.2344 29.4599C13.2776 29.4599 10.2654 29.3287 10.209 29.3287C10.5085 29.7856 10.93 30.1493 11.4258 30.3788C11.9216 30.6082 12.4717 30.6941 13.0138 30.6268C15.3159 30.6268 25.9669 30.5992 28.9948 30.5992C28.9182 30.8055 28.8956 31.028 28.9291 31.2456C28.9626 31.4631 29.0512 31.6685 29.1864 31.8421L29.1982 31.8513C29.1999 31.8546 29.2026 31.8573 29.2059 31.859C29.2092 31.8607 29.213 31.8612 29.2166 31.8605H29.2258C29.4279 31.917 29.5159 31.749 29.5867 31.6387C30.3606 31.682 31.1364 31.6789 31.9099 31.6295C32.024 31.8146 32.1395 31.9905 32.3535 31.9629C32.7315 31.8697 33.0281 31.8238 33.0412 30.9615C33.0412 30.9615 33.0019 29.4954 32.1435 29.5886C31.94 29.6161 31.3717 29.6818 31.3717 29.6818C30.7155 29.5978 30.2259 29.5886 29.4857 29.5505C29.5552 29.4573 29.6734 29.0583 29.5264 28.9192C29.502 28.8987 29.4737 28.8833 29.4433 28.8738C29.4129 28.8644 29.3809 28.8611 29.3492 28.8641H29.3347C29.3347 28.8641 29.3229 28.8549 29.319 28.8457V28.8365C29.2851 28.7552 29.2575 28.6714 29.2363 28.5858H29.2192M29.571 30.6858C30.3217 30.7226 31.0305 30.695 31.7891 30.7318C31.8353 30.7943 31.8586 30.8709 31.855 30.9485C31.8514 31.0262 31.8212 31.1003 31.7694 31.1583C31.7694 31.1675 31.7589 31.1675 31.7589 31.1675H31.7379C31.4925 31.1583 31.352 31.1583 31.1066 31.1491C31.1066 31.1308 31.0987 31.1216 31.0987 31.1032C31.0384 30.9076 30.621 30.9273 30.5186 31.0848V31.1308C30.5161 31.1398 30.5161 31.1493 30.5186 31.1583C30.1966 31.1788 29.8734 31.1665 29.5539 31.1216C29.4607 30.9903 29.4712 30.7501 29.5854 30.6858M16.1139 11.3356C15.6112 12.9487 16.4053 14.7298 16.9539 14.5631C17.3477 14.739 17.601 13.8858 17.7664 12.9579C17.8792 12.6954 17.9619 12.6705 18.0197 12.8004C18.0026 14.0433 18.0971 14.3216 18.3806 14.693C18.4566 14.7746 18.5484 14.8401 18.6503 14.8854C18.7523 14.9307 18.8623 14.9549 18.9739 14.9566C19.0854 14.9583 19.1962 14.9375 19.2995 14.8954C19.4028 14.8532 19.4965 14.7906 19.575 14.7114C19.6157 14.6746 20.0672 14.1641 20.0672 14.1641C20.0911 14.1331 20.1214 14.1076 20.1562 14.0896C20.1909 14.0715 20.2292 14.0612 20.2683 14.0595C20.3074 14.0577 20.3465 14.0645 20.3827 14.0794C20.4189 14.0943 20.4514 14.1169 20.478 14.1457C20.6237 14.294 20.6092 14.5631 20.9269 14.739C21.0946 14.8045 21.2784 14.8175 21.4537 14.7762C21.629 14.735 21.7877 14.6414 21.9086 14.508C22.0897 14.1641 22.1291 14.0433 22.2118 13.9134C22.343 13.7191 22.5609 13.8031 22.5609 13.8675C22.5412 13.979 22.4179 14.0814 22.4979 14.2756C22.6554 14.4069 22.6909 14.3216 22.7827 14.294C23.103 14.1181 23.3445 13.3385 23.3445 13.3385C23.355 13.0419 23.2132 13.0695 23.1135 13.1351C22.994 13.2178 22.9822 13.2466 22.8615 13.3293C22.7066 13.3477 22.4021 13.4685 22.2551 13.2086C22.0989 12.8936 22.0989 12.4486 21.9782 12.1336C21.9782 12.1153 21.7774 11.6415 21.9664 11.6086C22.0595 11.627 22.2617 11.6913 22.2958 11.4971C22.3982 11.312 22.0819 10.7739 21.8679 10.514C21.8297 10.458 21.7789 10.4118 21.7196 10.379C21.6603 10.3462 21.5941 10.3277 21.5264 10.325C21.4587 10.3223 21.3912 10.3355 21.3295 10.3636C21.2678 10.3916 21.2135 10.4337 21.171 10.4865C21.0466 10.652 20.981 10.8543 20.9846 11.0613C20.9568 11.1957 20.9573 11.3345 20.986 11.4687C21.0147 11.6029 21.071 11.7297 21.1513 11.841C21.4504 12.313 21.5885 12.8693 21.545 13.4265C21.4943 13.5174 21.42 13.5929 21.3299 13.6451C21.2398 13.6973 21.1373 13.7242 21.0332 13.7231C20.9019 13.6863 20.6788 13.6207 20.5607 12.656C20.5886 11.8963 20.5027 11.1368 20.306 10.4025C20.205 10.1058 20.1341 9.81839 19.8887 10.329C19.7818 10.4896 19.7132 10.6727 19.6881 10.8641C19.6631 11.0554 19.6823 11.25 19.7443 11.4328C19.933 11.9838 19.987 12.572 19.9018 13.1482C19.8182 13.3142 19.7198 13.4724 19.6078 13.6207C19.5369 13.7136 19.4325 13.7753 19.3169 13.7927C19.2013 13.8101 19.0834 13.7818 18.9883 13.7139C18.8821 13.654 18.7922 13.5689 18.7266 13.4661C18.6609 13.3634 18.6214 13.2461 18.6116 13.1246C18.6553 12.4902 18.6346 11.853 18.5499 11.2228C18.4003 10.8697 18.147 10.9996 18.042 11.102C17.5493 11.7225 17.2284 12.4617 17.1114 13.2453C16.967 13.7638 16.8135 13.6155 16.7072 13.4028C16.4447 13.1338 16.4289 10.9813 16.1139 11.3343" fill="white"/>
<path d="M17.8139 14.6842C17.8139 14.6934 17.8074 14.6934 17.7995 14.6934V14.7026C17.7667 14.7209 17.7234 14.7866 17.6367 14.8601C17.5633 14.9586 17.511 15.0713 17.483 15.1909C17.455 15.3106 17.4519 15.4348 17.474 15.5557C17.4805 15.6029 17.7496 16.4469 17.9832 17.0493C18.1789 17.7013 18.2449 18.3853 18.1775 19.0627C17.8022 19.9329 17.1733 20.6698 16.3728 21.1771C16.256 21.2362 16.127 21.267 15.9961 21.267C15.8652 21.267 15.7362 21.2362 15.6194 21.1771V21.1679C15.5472 21.1115 15.4905 21.0374 15.4549 20.9529C15.4193 20.8684 15.4059 20.7761 15.416 20.6849C16.2226 20.1883 16.8565 19.455 17.2312 18.5849C17.4082 18.0954 17.4252 17.5623 17.2797 17.0624C17.2343 16.8092 17.1285 16.5705 16.9713 16.3668C16.9713 16.3668 16.9713 16.3668 16.9713 16.3576C17.0724 16.3025 17.3335 16.5243 17.3769 16.3852C17.3009 15.9861 17.1197 15.6145 16.8519 15.3089C16.8171 15.2579 16.7712 15.2154 16.7177 15.1846C16.6641 15.1538 16.6043 15.1355 16.5427 15.131C16.4811 15.1266 16.4193 15.1362 16.3619 15.1591C16.3045 15.1819 16.2531 15.2174 16.2114 15.263C15.9948 15.4021 15.9489 15.8943 16.0499 16.3301C16.168 16.6451 16.487 16.7015 16.714 17.3499V17.3591C16.7573 17.5846 16.7438 17.8173 16.6747 18.0363C16.2895 18.5724 15.8324 19.0529 15.3162 19.4643L15.307 19.4735V19.484H15.2926V19.4735C15.2976 19.4027 15.2976 19.3317 15.2926 19.2609C15.2926 19.0758 15.3595 18.6296 15.3543 18.5469V18.5377C14.9671 18.8251 14.8293 19.6966 14.7624 19.9565C13.7756 20.5715 12.8524 21.2828 12.0061 22.0801C11.6675 22.6655 14.3305 21.3937 14.6311 21.2454C14.6311 21.2454 14.639 21.2454 14.6429 21.2546C14.6992 21.4461 14.779 21.6299 14.8805 21.8019C15.0359 22.0274 15.2576 22.199 15.5148 22.2931C15.772 22.3871 16.0521 22.3989 16.3164 22.3269C17.1907 21.9038 17.9155 21.2244 18.394 20.3791C18.4728 20.2479 18.6001 20.1468 18.7143 20.2479C18.9895 20.7864 19.4121 21.2356 19.9329 21.543C20.4537 21.8505 21.0512 22.0035 21.6556 21.9843C21.9877 21.5289 21.8315 21.2979 21.695 21.2139C21.6517 21.1771 20.977 20.8805 20.8747 20.5839C20.8104 20.3148 20.9665 20.0733 21.2907 19.8869C22.2144 19.7911 23.1249 19.5953 24.0063 19.3029C24.038 18.9371 24.1391 18.5808 24.3042 18.2529C24.3384 18.1785 24.3913 18.1143 24.4578 18.0665C24.4578 18.0665 24.4578 18.0665 24.4578 18.0573V18.0481C24.4589 18.0421 24.4589 18.0358 24.4578 18.0298L24.3042 17.9274L21.3537 17.909C21.3243 17.8974 21.2965 17.882 21.271 17.8631V17.8079C21.2942 17.7765 21.3269 17.7535 21.3642 17.7423C22.073 17.6399 23.3225 17.4089 23.4039 16.0453C23.4255 15.8916 23.4154 15.7352 23.3741 15.5857C23.3329 15.4361 23.2614 15.2967 23.1641 15.1759C23.0667 15.055 22.9457 14.9555 22.8084 14.8833C22.671 14.8112 22.5204 14.768 22.3657 14.7564C22.0703 14.8197 21.8109 14.9952 21.6423 15.2459C21.4736 15.4966 21.4088 15.8029 21.4614 16.1004C21.4364 16.2776 21.5191 16.6385 21.3537 16.6753C20.267 16.796 19.0831 17.5573 19.0398 18.1046H19.0254L19.0175 18.1138H19.003L18.9899 18.1046C18.9344 18.0704 18.8908 18.0199 18.8649 17.96C18.8391 17.9001 18.8323 17.8337 18.8455 17.7699C18.7958 16.7825 18.5415 15.8162 18.0987 14.9323C17.9491 14.7564 17.8809 14.6908 17.8362 14.6816H17.8179M22.132 15.8969C22.2144 15.8885 22.2969 15.9114 22.363 15.9613C22.4151 15.9876 22.4592 16.0271 22.4911 16.076C22.5229 16.1249 22.5412 16.1813 22.5442 16.2395V16.2749L22.5258 16.2933C22.468 16.3576 22.342 16.3484 22.216 16.2644C22.1675 16.2378 22.1259 16.2002 22.0944 16.1546C22.063 16.1091 22.0426 16.0568 22.0349 16.0019V15.9914C22.0349 15.9731 22.0428 15.9639 22.048 15.9639L22.0559 15.9455C22.0559 15.9363 22.0559 15.9363 22.0704 15.9271C22.0794 15.918 22.0903 15.9108 22.1023 15.9061C22.1142 15.9013 22.1271 15.8991 22.1399 15.8996M19.3955 18.7004H19.4244C19.831 18.7866 20.2441 18.8393 20.6594 18.8579C21.002 18.8855 21.1713 19.1821 20.851 19.3121C20.5308 19.442 20.2302 19.526 20.2302 20.0458C20.2736 20.1909 20.2736 20.3456 20.2302 20.4907C20.2302 20.4999 20.2224 20.5091 20.2171 20.5091V20.5274H20.2079L20.1935 20.5366C20.1927 20.5392 20.1911 20.5414 20.189 20.5431C20.1869 20.5447 20.1843 20.5457 20.1817 20.5458C20.1029 20.555 19.994 20.4631 19.91 20.4251C19.6841 20.2697 19.4941 20.0677 19.3528 19.8327C19.2115 19.5977 19.1222 19.3351 19.091 19.0627C19.087 19.0187 19.0919 18.9743 19.1052 18.9322C19.1186 18.8901 19.1402 18.851 19.1687 18.8173C19.1973 18.7836 19.2323 18.7559 19.2717 18.7358C19.3111 18.7158 19.354 18.7037 19.3981 18.7004M9.89561 11.3544C10.2382 11.5303 10.8747 11.4568 10.8485 10.8438C10.8458 10.7479 10.841 10.6521 10.834 10.5564C10.7671 10.3713 10.5715 10.4081 10.5322 10.6036C10.5177 10.6588 10.5532 10.7611 10.5059 10.7979C10.4587 10.8346 10.3681 10.8071 10.3747 10.6404C10.3713 10.5866 10.3522 10.535 10.3195 10.4921C10.3093 10.4807 10.2964 10.4722 10.2819 10.4673C10.2674 10.4625 10.2519 10.4615 10.2369 10.4645C10.1909 10.4737 10.1909 10.4829 10.1699 10.5288C10.1536 10.5734 10.1448 10.6204 10.1437 10.6679C10.1358 10.7323 10.1122 10.7519 10.0728 10.7611C10.0334 10.7703 10.0426 10.7703 10.0032 10.7428C9.98486 10.7139 9.95336 10.7047 9.95336 10.6588C9.9525 10.609 9.94723 10.5593 9.93761 10.5104C9.91632 10.4828 9.88621 10.4634 9.8523 10.4553C9.66461 10.4553 9.6528 10.6955 9.66461 10.7887C9.64886 10.8071 9.64361 11.2336 9.89561 11.3544Z" fill="white"/>
<path d="M19.8671 16.1032C20.207 16.2804 21.0155 16.178 20.8213 15.5782C20.8191 15.4821 20.8121 15.3862 20.8003 15.2908C20.7333 15.1057 20.5456 15.1516 20.4997 15.338C20.4892 15.4023 20.526 15.5047 20.4774 15.5414C20.4288 15.5782 20.3383 15.5414 20.3461 15.3748C20.3427 15.3238 20.3234 15.2751 20.291 15.2356C20.2811 15.2253 20.269 15.2175 20.2556 15.2127C20.2421 15.2079 20.2277 15.2063 20.2136 15.2081C20.169 15.2173 20.169 15.2264 20.1427 15.2724C20.1283 15.3175 20.12 15.3642 20.1178 15.4115C20.1178 15.4771 20.0902 15.4955 20.0495 15.5047C20.0088 15.5139 20.0206 15.5139 19.9813 15.4863C19.9419 15.4588 19.9314 15.4496 19.9314 15.4023C19.9331 15.3519 19.9256 15.3017 19.9091 15.254C19.8898 15.2255 19.8601 15.2057 19.8264 15.1989C19.6426 15.1989 19.6321 15.4391 19.6387 15.5323C19.6282 15.5414 19.6203 15.968 19.8723 16.0979M25.6815 14.1371C26.0201 14.3129 26.6593 14.2303 26.633 13.6121C26.633 13.5661 26.6225 13.3811 26.6186 13.3246C26.5464 13.1488 26.3561 13.1855 26.3167 13.3811C26.301 13.4362 26.3364 13.5386 26.2865 13.5661C26.2616 13.6029 26.1553 13.5845 26.1553 13.4086C26.1487 13.3556 26.1298 13.3048 26.1001 13.2603C26.0764 13.251 26.0506 13.2479 26.0253 13.2511C25.9807 13.2511 25.9807 13.2603 25.9531 13.3063C25.9379 13.3543 25.9291 13.4042 25.9269 13.4546C25.9269 13.511 25.902 13.5294 25.8586 13.5386C25.8153 13.5478 25.8232 13.5478 25.793 13.5202C25.7784 13.5114 25.7663 13.4991 25.7576 13.4844C25.7489 13.4698 25.7439 13.4532 25.7431 13.4362C25.7415 13.383 25.734 13.3302 25.7208 13.2787C25.6963 13.2605 25.6681 13.248 25.6381 13.2419C25.4531 13.2419 25.4373 13.4821 25.4505 13.5661C25.4373 13.5845 25.4295 14.0111 25.6828 14.1318M28.691 19.0629C28.4875 19.3999 28.3639 19.7791 28.3296 20.1713C28.2952 20.5635 28.3511 20.9583 28.4928 21.3256C28.6196 21.7142 28.8788 22.0458 29.2252 22.2628C29.2763 22.3183 29.3398 22.3609 29.4106 22.387C29.4814 22.4131 29.5575 22.422 29.6324 22.4129C29.7073 22.4038 29.779 22.377 29.8414 22.3347C29.9039 22.2923 29.9554 22.2358 29.9917 22.1696C30.3382 21.7614 30.3474 20.7324 30.5075 20.5276C30.6256 20.147 30.9105 20.2126 31.0496 20.3793C31.1758 20.5766 31.3461 20.7419 31.547 20.8623C31.6129 20.9404 31.6937 21.0046 31.7847 21.0512C31.8757 21.0977 31.9751 21.1257 32.077 21.1333C32.1789 21.141 32.2813 21.1284 32.3783 21.096C32.4752 21.0637 32.5648 21.0123 32.6416 20.945C32.93 20.7622 33.1387 20.4772 33.2257 20.147C33.3527 18.586 33.3672 17.0179 33.269 15.4548C33.252 15.3433 32.933 13.5254 32.933 13.5058C32.933 13.4861 32.8871 12.5791 32.8543 12.3652C32.8464 12.2733 32.828 12.2444 32.9107 12.2549C32.9973 12.3468 33.0052 12.356 33.0603 12.3744C33.147 12.3941 33.2257 12.2261 33.1745 12.0686C32.912 11.5121 32.6325 10.9464 32.3621 10.3991C32.3004 10.3164 32.2138 10.2416 32.1075 10.4083C32.0432 10.4747 31.9927 10.5532 31.9589 10.6393C31.9251 10.7253 31.9087 10.8172 31.9106 10.9096C31.9355 11.3034 31.9972 11.7168 32.0195 12.1158C32.1285 12.7918 32.2361 13.4782 32.345 14.1646C32.4461 15.6215 32.4763 16.9563 32.576 18.4132C32.5994 18.9397 32.4782 19.4626 32.2256 19.9252C32.2256 19.9252 31.988 20.0919 31.824 19.916C31.5965 19.6393 31.3969 19.3408 31.2281 19.0248C30.984 18.7754 30.8212 18.8398 30.648 19.0248C30.2197 19.6963 29.8787 20.4196 29.6334 21.1773C29.5468 21.3256 29.3118 21.4556 29.052 21.1681C28.7087 20.5252 28.5821 19.7887 28.691 19.0681M25.835 10.5566C26.0011 10.6988 26.1291 10.8802 26.2072 11.0845C26.2854 11.2887 26.3113 11.5092 26.2826 11.726C26.2209 12.1434 26.0621 12.6067 25.944 12.5424C25.8258 12.4781 26.028 12.125 25.9111 11.7444C25.839 11.4937 25.4268 11.0488 25.4701 10.9096C25.4525 10.8592 25.4496 10.8048 25.462 10.7528C25.4743 10.7008 25.5012 10.6535 25.5396 10.6163C25.578 10.5792 25.6262 10.5538 25.6786 10.5432C25.7309 10.5326 25.7852 10.5373 25.835 10.5566Z" fill="white"/>
<path d="M29.6719 19.4798C29.6998 18.8666 29.6783 18.2521 29.6076 17.6423C29.5892 17.1606 29.1193 13.1798 29.0196 12.8097C28.9041 12.1154 29.4803 12.7178 29.4133 12.3096C29.2165 11.7991 28.7216 11.0483 28.5681 10.6034C28.4696 10.4078 28.5103 10.2411 28.3056 10.5561C28.126 11.1189 28.0621 11.7123 28.1179 12.3004C28.7064 15.0573 29.0194 17.8659 29.0524 20.6847C29.2873 20.6847 29.559 20.0822 29.6771 19.4798M33.444 15.3284C33.7288 15.4951 33.889 16.3574 33.8588 16.6081C33.805 17.0622 33.658 17.5544 33.5516 17.4887C33.4453 17.4231 33.574 16.8128 33.5188 16.6264C33.4519 16.3574 33.0778 15.8665 33.1159 15.7182C33.0398 15.4111 33.2813 15.2824 33.444 15.3244M14.2343 17.9022C14.4968 18.0137 14.6543 18.6542 14.628 18.8393C14.5742 19.1727 14.4338 19.5257 14.334 19.4956C14.2343 19.4654 14.3576 18.9942 14.3012 18.8551C14.2815 18.5125 13.9075 18.3301 13.9206 18.187C13.8497 17.9179 14.0702 17.872 14.2382 17.9088M7.13102 10.3435C7.52477 10.4747 7.54577 11.1218 7.52477 11.3174C7.47095 11.6599 7.33051 12.0314 7.22814 11.9854C7.12576 11.9395 7.22814 11.4749 7.17302 11.3292C7.11658 11.1152 6.77926 10.7543 6.82389 10.6427C6.74776 10.4104 6.9722 10.2989 7.13495 10.3461M14.8735 13.4042C14.7193 13.5255 14.6121 13.6965 14.5702 13.888C14.5283 14.0796 14.5543 14.2798 14.6438 14.4542C14.6955 14.5315 14.7711 14.5897 14.859 14.62C14.9469 14.6504 15.0423 14.6511 15.1307 14.6222C15.426 14.6682 15.6006 14.0001 15.6006 14.0001C15.6006 14.0001 15.6098 13.8151 15.2633 14.1668C15.1136 14.2049 15.0953 14.1392 15.0572 14.0461C15.0223 13.8725 15.0377 13.6926 15.1018 13.5276C15.1556 13.3596 15.0428 13.2861 14.8735 13.4069M17.127 10.0928C16.9957 10.1995 16.8874 10.3318 16.8086 10.4816C16.7299 10.6314 16.6824 10.7956 16.669 10.9643C16.6571 11.1874 16.6191 11.1874 16.7516 11.3357C16.8501 11.4932 16.9472 11.4749 17.1388 11.3541C17.1881 11.3196 17.2299 11.2756 17.262 11.2246C17.294 11.1737 17.3155 11.1169 17.3252 11.0575C17.3725 10.795 17.0837 11.1782 17.0443 10.8908C16.9826 10.6217 17.1664 10.5194 17.3436 10.2503C17.3436 10.0744 17.3436 9.95369 17.127 10.0928ZM18.9475 10.4551C18.8752 10.7876 18.8313 11.1257 18.8162 11.4657C18.7624 11.7164 19.0538 11.8266 19.1811 11.5024C19.3123 11.149 19.3819 10.7756 19.3871 10.3986C19.3294 10.018 19.0984 10.0377 18.9475 10.4551ZM30.4056 17.0123C30.4476 16.9742 32.02 15.7129 32.02 15.7129C32.1814 15.6486 32.1512 16.3692 32.0738 16.3534C31.5969 16.8832 31.0326 17.3271 30.4056 17.6659C30.3295 17.7224 30.2507 17.1751 30.4056 17.0176M31.8428 17.0031C32.1236 17.1606 32.2365 18.0689 32.2024 18.3156C32.2129 18.7986 31.9399 19.1871 31.827 19.132C31.7141 19.0769 31.8388 18.5296 31.785 18.334C31.6634 18.0386 31.5753 17.7304 31.5225 17.4152C31.4438 17.1081 31.6721 16.9414 31.8415 16.9979M22.4728 20.9354C22.6022 20.7711 22.7527 20.6245 22.9204 20.4996C22.9709 20.4742 23.0286 20.4668 23.0839 20.4785C23.1392 20.4901 23.1889 20.5203 23.2249 20.5639C23.2525 20.7319 23.1278 20.8986 23.1671 21.1296C23.1986 21.2228 23.2249 21.3344 23.3771 21.2884C23.4765 21.2006 23.5926 21.134 23.7185 21.0924C23.8444 21.0509 23.9774 21.0354 24.1095 21.0469C24.3064 21.0469 24.3077 21.4171 24.1909 21.4171C23.8445 21.5124 23.5092 21.6444 23.1908 21.8108C23.1461 21.8429 23.0906 21.8561 23.0363 21.8475C22.982 21.8389 22.9332 21.8092 22.9007 21.7649C22.8702 21.7171 22.8518 21.6626 22.847 21.6062C22.8422 21.5497 22.8512 21.4929 22.8731 21.4407C22.8863 21.2543 22.8193 21.1532 22.6789 21.1624C22.5739 21.2359 22.4833 21.2727 22.4308 21.1441C22.4125 21.0417 22.4046 20.9866 22.4728 20.9301M33.5018 21.4276C33.5464 21.4734 33.5714 21.5349 33.5714 21.5988C33.5714 21.6628 33.5464 21.7243 33.5018 21.7701C33.3889 21.8909 33.3141 21.946 33.2012 22.0667C33.1513 22.1691 33.1185 22.3174 33.276 22.3634C33.5687 22.4566 34.2512 21.9696 34.2512 21.946C34.2877 21.9128 34.3134 21.8694 34.3249 21.8214C34.3364 21.7734 34.3331 21.7231 34.3155 21.6769C34.2512 21.5942 34.1081 21.6402 34.0123 21.6402C33.9625 21.6402 33.8115 21.6034 33.8811 21.4643C33.9315 21.3815 33.9729 21.2935 34.0045 21.2018C34.0478 21.0811 34.0136 21.0076 33.8417 20.9393C33.7026 20.9163 33.5608 20.9163 33.4217 20.9393C33.3206 20.9669 33.2905 21.0233 33.2668 21.1532C33.2734 21.3567 33.3863 21.3475 33.5044 21.4315" fill="white"/>
</g>
<defs>
<clipPath id="clip0_1466_10918">
<rect width="42" height="42" fill="white"/>
</clipPath>
</defs>
</svg>
