<svg width="22" height="24" viewBox="0 0 22 24" fill="none" xmlns="http://www.w3.org/2000/svg">
<path d="M6.34655 16C4.34351 16 2.71973 14.2091 2.71973 12C2.71973 10.0929 3.92978 8.4976 5.54929 8.09695C5.47764 7.74395 5.43984 7.37684 5.43984 7C5.43984 4.23858 7.46957 2 9.97337 2C12.167 2 13.9967 3.71825 14.4164 6.00098C14.4465 6.00033 14.4767 6 14.5069 6C17.0107 6 19.0404 8.23858 19.0404 11C19.0404 13.419 17.4829 15.4367 15.4136 15.9M13.6002 13L10.8801 10M10.8801 10L8.15996 13M10.8801 10L10.8801 22" stroke="#6A6A6A" stroke-width="2" stroke-linecap="round" stroke-linejoin="round"/>
</svg>
